<svg width="178" height="76" viewBox="0 0 178 76" fill="none" xmlns="http://www.w3.org/2000/svg">
<mask id="mask0_57_2174" style="mask-type:alpha" maskUnits="userSpaceOnUse" x="0" y="0" width="178" height="76">
<rect width="178" height="76" fill="#C4C4C4"/>
</mask>
<g mask="url(#mask0_57_2174)">
</g>
<g style="mix-blend-mode:luminosity" clip-path="url(#clip0_57_2174)">
<path d="M55.4204 40.0077L54.4846 42.617H54.4066C54.2507 42.0286 53.9647 41.1333 53.4969 40.0589L48.4801 27.6519H43.5674V47.4263H46.8166V35.224C46.8166 34.4565 46.8166 33.5868 46.7906 32.5123C46.7646 31.9751 46.7126 31.5658 46.6866 31.2589H46.7646C46.9205 32.0263 47.1025 32.5891 47.2324 32.9472L53.2629 47.3751H55.5503L61.5288 32.8193C61.6588 32.4868 61.7887 31.8216 61.9187 31.2589H61.9967C61.9187 32.717 61.8667 34.0216 61.8407 34.8147V47.3496H65.2978V27.6007H60.567L55.4204 40.0077ZM68.573 33.1775H71.9521V47.3496H68.573V33.1775ZM70.2886 27.1914C69.7167 27.1914 69.2488 27.3961 68.8589 27.7542C68.469 28.1123 68.2611 28.5728 68.2611 29.1356C68.2611 29.6728 68.469 30.1333 68.8589 30.4914C69.2488 30.8496 69.7167 31.0286 70.2886 31.0286C70.8604 31.0286 71.3543 30.824 71.7182 30.4914C72.1081 30.1333 72.3161 29.6728 72.3161 29.1356C72.3161 28.5984 72.1081 28.1379 71.7182 27.7542C71.3803 27.3961 70.8864 27.1914 70.2886 27.1914ZM83.9351 33.0496C83.3112 32.9216 82.6614 32.8449 82.0376 32.8449C80.504 32.8449 79.1003 33.1775 77.9306 33.8426C76.7609 34.5077 75.8252 35.4286 75.2273 36.5798C74.6035 37.7565 74.2915 39.1123 74.2915 40.6728C74.2915 42.0286 74.6035 43.231 75.2013 44.331C75.7992 45.4054 76.631 46.2751 77.7487 46.8635C78.8144 47.4519 80.0621 47.7589 81.4657 47.7589C83.0773 47.7589 84.455 47.4263 85.5467 46.8123L85.5727 46.7868V43.717L85.4427 43.8193C84.9488 44.1775 84.377 44.4844 83.8051 44.6635C83.2073 44.8682 82.6614 44.9705 82.1935 44.9705C80.8419 44.9705 79.7762 44.5868 79.0223 43.7426C78.2425 42.924 77.8526 41.7984 77.8526 40.3914C77.8526 38.9333 78.2425 37.7821 79.0483 36.9379C79.8541 36.0937 80.9199 35.6589 82.2195 35.6589C83.3112 35.6589 84.429 36.017 85.4427 36.7333L85.5727 36.8356V33.5868L85.5467 33.5612C85.1048 33.3821 84.6109 33.1775 83.9351 33.0496ZM95.0862 32.9472C94.2545 32.9472 93.4747 33.203 92.7988 33.7403C92.227 34.2007 91.8371 34.8658 91.4992 35.6589H91.4732V33.1775H88.094V47.3496H91.4732V40.11C91.4732 38.8821 91.7331 37.8589 92.305 37.117C92.8768 36.3496 93.6046 35.9658 94.4884 35.9658C94.8003 35.9658 95.1122 36.0426 95.5021 36.0937C95.8661 36.1961 96.126 36.2984 96.3079 36.4263L96.4379 36.5286V33.203L96.3599 33.1775C96.126 33.024 95.6581 32.9472 95.0862 32.9472ZM104.288 32.8705C101.923 32.8705 100.025 33.5612 98.6993 34.917C97.3477 36.2728 96.6978 38.1403 96.6978 40.4937C96.6978 42.6937 97.3737 44.4844 98.6733 45.7891C99.973 47.0682 101.741 47.7333 103.95 47.7333C106.263 47.7333 108.109 47.0426 109.435 45.6612C110.786 44.2798 111.436 42.4379 111.436 40.1612C111.436 37.91 110.812 36.1193 109.539 34.8147C108.317 33.51 106.523 32.8705 104.288 32.8705ZM106.991 43.7682C106.367 44.5612 105.38 44.9449 104.158 44.9449C102.936 44.9449 101.948 44.5612 101.247 43.717C100.545 42.924 100.207 41.7728 100.207 40.3147C100.207 38.8054 100.571 37.6542 101.247 36.8356C101.948 36.017 102.91 35.6077 104.132 35.6077C105.328 35.6077 106.263 35.9914 106.939 36.7844C107.615 37.5775 107.979 38.7286 107.979 40.2379C107.927 41.7728 107.641 42.9751 106.991 43.7682ZM118.974 39.0612C117.908 38.6263 117.233 38.2937 116.921 38.0123C116.661 37.7565 116.531 37.3984 116.531 36.9379C116.531 36.5542 116.687 36.1705 117.077 35.9147C117.467 35.6589 117.908 35.531 118.558 35.531C119.13 35.531 119.728 35.6333 120.3 35.7868C120.872 35.9403 121.392 36.1705 121.807 36.4775L121.937 36.5798V33.4589L121.859 33.4333C121.47 33.2798 120.95 33.1263 120.326 32.9984C119.702 32.8961 119.13 32.8449 118.662 32.8449C117.051 32.8449 115.725 33.2286 114.685 34.0728C113.646 34.8658 113.152 35.9403 113.152 37.1937C113.152 37.8589 113.256 38.4472 113.49 38.9333C113.724 39.4193 114.061 39.8798 114.529 40.2635C114.997 40.6217 115.673 41.031 116.609 41.4147C117.389 41.7472 117.986 42.003 118.35 42.2077C118.714 42.4123 118.948 42.6426 119.13 42.8217C119.26 43.0263 119.338 43.2821 119.338 43.6147C119.338 44.5612 118.61 45.0217 117.129 45.0217C116.557 45.0217 115.959 44.9193 115.257 44.6891C114.555 44.4589 113.905 44.1263 113.36 43.7426L113.23 43.6403V46.8891L113.308 46.9147C113.801 47.1449 114.399 47.2984 115.127 47.4775C115.855 47.6054 116.505 47.7077 117.077 47.7077C118.818 47.7077 120.248 47.324 121.262 46.4798C122.301 45.6612 122.847 44.6123 122.847 43.2565C122.847 42.31 122.587 41.4658 122.015 40.8263C121.262 40.2123 120.326 39.5728 118.974 39.0612ZM131.763 32.8705C129.398 32.8705 127.5 33.5612 126.174 34.917C124.849 36.2728 124.173 38.1403 124.173 40.4937C124.173 42.6937 124.849 44.4844 126.148 45.7891C127.448 47.0682 129.216 47.7333 131.425 47.7333C133.738 47.7333 135.584 47.0426 136.91 45.6612C138.261 44.2798 138.911 42.4379 138.911 40.1612C138.911 37.91 138.287 36.1193 137.014 34.8147C135.792 33.51 133.998 32.8705 131.763 32.8705ZM134.44 43.7682C133.816 44.5612 132.829 44.9449 131.607 44.9449C130.359 44.9449 129.398 44.5612 128.696 43.717C127.994 42.924 127.656 41.7728 127.656 40.3147C127.656 38.8054 128.02 37.6542 128.696 36.8356C129.398 36.017 130.359 35.6077 131.581 35.6077C132.751 35.6077 133.712 35.9914 134.388 36.7844C135.064 37.5775 135.428 38.7286 135.428 40.2379C135.428 41.7728 135.09 42.9751 134.44 43.7682ZM156.976 35.9147V33.1775H153.571V28.9821L153.467 29.0077L150.244 29.9542L150.166 29.9798V33.1775H145.071V31.3868C145.071 30.5682 145.279 29.9286 145.643 29.5193C146.007 29.11 146.553 28.9054 147.229 28.9054C147.697 28.9054 148.191 29.0077 148.737 29.2379L148.867 29.3147V26.424L148.789 26.3984C148.321 26.2449 147.697 26.1426 146.891 26.1426C145.877 26.1426 144.994 26.3728 144.188 26.7565C143.382 27.1914 142.784 27.7798 142.342 28.5728C141.9 29.3403 141.666 30.21 141.666 31.2077V33.1775H139.301V35.8891H141.666V47.3496H145.071V35.9147H150.166V43.2054C150.166 46.1984 151.596 47.7077 154.455 47.7077C154.923 47.7077 155.417 47.631 155.885 47.5542C156.379 47.4519 156.743 47.324 156.95 47.2217L156.976 47.1961V44.4589L156.847 44.5612C156.639 44.6891 156.457 44.7914 156.145 44.8682C155.885 44.9449 155.651 44.9705 155.469 44.9705C154.793 44.9705 154.325 44.817 153.987 44.4333C153.675 44.0751 153.519 43.4868 153.519 42.617V35.9147H156.976Z" fill="#737373"/>
<path d="M0 21H15.9339V36.6814H0V21Z" fill="#F15121"/>
<path d="M17.5977 21H33.5316V36.6814H17.5977V21Z" fill="#7EB801"/>
<path d="M0.000976562 38.3188H15.9349V54.0002H0.000976562V38.3188Z" fill="#00A3EE"/>
<path d="M17.5977 38.3188H33.5316V54.0002H17.5977V38.3188Z" fill="#FFB700"/>
</g>
<defs>
<clipPath id="clip0_57_2174">
<rect width="157" height="33" fill="white" transform="translate(0 21)"/>
</clipPath>
</defs>
</svg>
