<svg width="178" height="76" viewBox="0 0 178 76" fill="none" xmlns="http://www.w3.org/2000/svg">
<mask id="mask0_57_2182" style="mask-type:alpha" maskUnits="userSpaceOnUse" x="0" y="0" width="178" height="76">
<rect width="178" height="76" fill="#C4C4C4"/>
</mask>
<g mask="url(#mask0_57_2182)">
</g>
<g style="mix-blend-mode:luminosity" clip-path="url(#clip0_57_2182)">
<path d="M30.1378 23.1199V35.249H19.1965V23.1199H14.002V52.0733H19.1965V40.338H30.1378V52.0733H35.3324V23.1199H30.1378Z" fill="#465660"/>
<path d="M51.9567 42.7113C51.9567 43.8716 51.5039 44.9845 50.698 45.805C49.8921 46.6255 48.799 47.0864 47.6593 47.0864C46.5195 47.0864 45.4265 46.6255 44.6206 45.805C43.8146 44.9845 43.3619 43.8716 43.3619 42.7113V30.3101H38.4346V42.7113C38.4346 45.1997 39.4055 47.5861 41.1338 49.3457C42.8621 51.1053 45.2062 52.0938 47.6504 52.0938C50.0945 52.0938 52.4386 51.1053 54.1669 49.3457C55.8952 47.5861 56.8661 45.1997 56.8661 42.7113V30.3101H51.9567V42.7113Z" fill="#465660"/>
<path d="M88.4636 31.5879C88.4636 29.046 90.1154 28.2401 91.9249 28.2401C93.3833 28.2401 95.3099 29.3699 96.5697 30.7406L99.7969 26.8694C98.1859 24.6514 94.918 23.1174 92.2431 23.1174C86.8984 23.1174 83.0324 26.3045 83.0324 31.5879C83.0324 41.3902 94.8009 38.2808 94.8009 43.7662C94.8009 45.4583 93.1873 46.9533 91.3396 46.9533C88.4254 46.9533 87.4812 45.5023 86.1425 43.9683L82.5615 47.7592C84.8521 50.6224 87.6772 52.076 91.0621 52.076C96.1396 52.076 100.225 48.8501 100.225 43.8077C100.225 32.9249 88.456 36.3063 88.456 31.5879" fill="#465660"/>
<path d="M161.267 47.4447C158.355 47.4447 157.528 46.1621 157.528 44.198V35.5047H162.053V31.0998H157.528V25.2878L152.532 27.5706V45.2785C152.532 49.8078 155.602 52.0906 159.811 52.0906C160.471 52.1029 161.131 52.049 161.781 51.93L163 47.3618C162.45 47.4006 161.819 47.4395 161.267 47.4395" fill="#465660"/>
<path d="M70.7104 30.4548C68.2696 30.4548 66.567 31.1751 64.9203 32.8205V23.2903H59.9854V40.9541C59.9854 47.5667 64.6811 52.096 69.957 52.096C75.8107 52.096 80.9595 47.4864 80.9595 41.278C80.9595 35.1473 76.2205 30.4574 70.7104 30.4574V30.4548ZM70.6798 47.0407C69.5724 47.0407 68.4899 46.7064 67.5691 46.08C66.6483 45.4536 65.9306 44.5633 65.5068 43.5217C65.0831 42.48 64.9722 41.3339 65.1882 40.2281C65.4043 39.1223 65.9375 38.1065 66.7206 37.3093C67.5037 36.5121 68.5014 35.9692 69.5875 35.7492C70.6736 35.5292 71.7994 35.6421 72.8226 36.0736C73.8457 36.505 74.7202 37.2357 75.3354 38.1731C75.9507 39.1106 76.279 40.2127 76.279 41.3402C76.279 42.852 75.6891 44.302 74.6391 45.371C73.589 46.4401 72.1648 47.0407 70.6798 47.0407Z" fill="#465660"/>
<path d="M124.297 41.0136C124.297 34.7948 119.159 30.1956 113.295 30.1956C108.019 30.1956 103.323 34.7249 103.323 41.3375V59.0116H108.258V49.4685C109.902 51.1112 111.608 51.8342 114.046 51.8342C119.556 51.8342 124.295 47.1468 124.295 41.0136H124.297ZM119.625 40.9514C119.625 42.0788 119.296 43.181 118.681 44.1184C118.066 45.0559 117.191 45.7865 116.168 46.218C115.145 46.6494 114.019 46.7623 112.933 46.5424C111.847 46.3224 110.849 45.7795 110.066 44.9822C109.283 44.185 108.75 43.1693 108.534 42.0635C108.318 40.9577 108.429 39.8115 108.852 38.7699C109.276 37.7283 109.994 36.838 110.915 36.2116C111.835 35.5852 112.918 35.2509 114.025 35.2509C115.51 35.2509 116.935 35.8515 117.985 36.9205C119.035 37.9896 119.625 39.4395 119.625 40.9514Z" fill="#465660"/>
<path d="M140.238 29.9534V24.9059C140.893 24.5942 141.448 24.0995 141.837 23.4793C142.227 22.8591 142.436 22.1389 142.439 21.4027V21.2861C142.439 20.2553 142.037 19.2667 141.321 18.5378C140.605 17.8089 139.634 17.3994 138.621 17.3994H138.507C137.494 17.3994 136.523 17.8089 135.807 18.5378C135.091 19.2667 134.689 20.2553 134.689 21.2861V21.4027C134.693 22.1389 134.901 22.8591 135.291 23.4793C135.681 24.0995 136.236 24.5942 136.891 24.9059V29.9534C135.008 30.2467 133.234 31.0414 131.75 32.257L118.154 21.4752C118.25 21.1197 118.301 20.7531 118.307 20.3844C118.308 19.5182 118.057 18.671 117.586 17.9499C117.114 17.2289 116.443 16.6664 115.658 16.3336C114.872 16.0008 114.007 15.9127 113.173 16.0804C112.338 16.248 111.571 16.664 110.968 17.2756C110.366 17.8872 109.955 18.6669 109.788 19.5162C109.621 20.3656 109.705 21.2463 110.029 22.047C110.354 22.8477 110.904 23.5324 111.611 24.0146C112.318 24.4967 113.149 24.7546 114 24.7556C114.744 24.7522 115.474 24.5503 116.118 24.17L129.507 34.7756C128.304 36.6256 127.677 38.8017 127.706 41.0203C127.736 43.2388 128.421 45.3969 129.673 47.213L125.601 51.3589C125.271 51.2518 124.928 51.195 124.583 51.1904C123.884 51.191 123.202 51.4023 122.621 51.7976C122.041 52.193 121.588 52.7547 121.321 53.4118C121.054 54.0689 120.984 54.7918 121.121 55.4892C121.257 56.1866 121.593 56.8272 122.087 57.3301C122.581 57.8329 123.21 58.1754 123.895 58.3142C124.58 58.4531 125.291 58.3821 125.936 58.1102C126.581 57.8383 127.133 57.3777 127.521 56.7867C127.91 56.1956 128.117 55.5006 128.118 54.7895C128.113 54.4376 128.058 54.0883 127.952 53.7531L131.981 49.6513C133.295 50.6805 134.823 51.39 136.447 51.7254C138.072 52.0608 139.75 52.0131 141.354 51.5861C142.958 51.1591 144.444 50.3641 145.7 49.262C146.955 48.1598 147.946 46.7797 148.597 45.2275C149.247 43.6752 149.54 41.992 149.453 40.3066C149.366 38.6213 148.902 36.9785 148.095 35.5043C147.288 34.03 146.16 32.7633 144.799 31.8011C143.437 30.839 141.876 30.207 140.238 29.9534ZM138.568 46.5523C137.466 46.5513 136.389 46.2177 135.473 45.5936C134.557 44.9696 133.844 44.0831 133.422 43.0463C133.001 42.0094 132.891 40.8688 133.107 39.7684C133.322 38.6681 133.853 37.6574 134.633 36.8642C135.412 36.071 136.405 35.5309 137.486 35.3121C138.567 35.0932 139.687 35.2056 140.705 35.6348C141.724 36.0641 142.594 36.791 143.207 37.7237C143.819 38.6564 144.146 39.7531 144.147 40.8751C144.147 42.3801 143.56 43.8235 142.514 44.8877C141.469 45.9518 140.051 46.5497 138.573 46.5497" fill="#EE721C"/>
</g>
<defs>
<clipPath id="clip0_57_2182">
<rect width="149" height="43" fill="white" transform="translate(14 16)"/>
</clipPath>
</defs>
</svg>
