<svg width="178" height="76" viewBox="0 0 178 76" fill="none" xmlns="http://www.w3.org/2000/svg">
<mask id="mask0_57_2170" style="mask-type:alpha" maskUnits="userSpaceOnUse" x="0" y="0" width="178" height="76">
<rect width="178" height="76" fill="#C4C4C4"/>
</mask>
<g mask="url(#mask0_57_2170)">
</g>
<g style="mix-blend-mode:luminosity" clip-path="url(#clip0_57_2170)">
<path d="M56.7133 47.6006C56.4796 47.04 56.2605 46.4506 56.0268 45.9475L54.9458 43.5468L54.9019 43.5037C51.6882 36.6037 48.2554 29.5887 44.618 22.6887L44.4719 22.4012C44.1068 21.7256 43.7416 20.9781 43.3617 20.2881C42.8943 19.4687 42.4415 18.5918 41.6965 17.7581C40.9703 16.8857 40.0563 16.1829 39.0206 15.7002C37.9849 15.2176 36.8532 14.9673 35.7072 14.9673C34.5613 14.9673 33.4296 15.2176 32.3939 15.7002C31.3581 16.1829 30.4442 16.8857 29.718 17.7581C29.0315 18.5918 28.5202 19.4687 28.0527 20.2881C27.6875 21.0356 27.3223 21.7687 26.9425 22.4443L26.7965 22.7318C23.2175 29.6318 19.7263 36.6468 16.5125 43.5468L16.4249 43.6331C16.1035 44.3806 15.7237 45.1568 15.3585 45.9906C15.1248 46.4937 14.8911 47.04 14.6573 47.6437C14.0263 49.2247 13.8248 50.9401 14.0727 52.621C14.3206 54.302 15.0092 55.8903 16.0709 57.2296C17.1325 58.5688 18.5304 59.6127 20.1268 60.2584C21.7233 60.9041 23.4632 61.1293 25.175 60.9118C26.8161 60.6992 28.3964 60.1613 29.8203 59.3306C31.7193 58.2812 33.5453 56.7575 35.5904 54.5581C37.6355 56.7575 39.5053 58.2812 41.3605 59.345C43.1445 60.3754 45.1649 60.9442 47.2328 60.9981C49.6276 61.0079 51.945 60.1647 53.7574 58.6244C55.5697 57.084 56.7546 54.9504 57.0931 52.6175C57.4844 50.941 57.352 49.1874 56.7133 47.5862V47.6006ZM35.7365 49.9868C33.2239 46.8243 31.5878 43.9206 31.0327 41.4337C30.8027 40.5122 30.7532 39.556 30.8867 38.6162C30.9889 37.8831 31.2665 37.2362 31.6463 36.69C32.5227 35.4393 34.0566 34.6631 35.7365 34.6631C36.5342 34.6391 37.3256 34.8104 38.0395 35.1617C38.7534 35.5129 39.3675 36.0331 39.8267 36.6756C40.2065 37.2506 40.484 37.8831 40.5717 38.6162C40.7177 39.45 40.6593 40.4131 40.4256 41.4337C39.8705 43.8775 38.2344 46.81 35.7365 49.9868ZM54.3469 52.1143C54.1809 53.2988 53.7024 54.4197 52.9592 55.3655C52.2159 56.3113 51.2337 57.049 50.1106 57.505C49.0004 57.965 47.7733 58.0943 46.5755 57.965C45.4068 57.8212 44.2382 57.4475 43.0404 56.7575C41.0515 55.5478 39.2632 54.0449 37.7377 52.3012C40.8054 48.5637 42.6606 45.1568 43.3617 42.1237C43.6977 40.6862 43.7416 39.3925 43.5955 38.1993C43.4131 37.0684 42.9845 35.9897 42.3392 35.0368C41.6024 34.0037 40.6189 33.1644 39.4752 32.5929C38.3316 32.0214 37.0627 31.7352 35.7803 31.7593C33.0778 31.7593 30.6675 32.9956 29.2067 35.0225C28.5492 35.9729 28.1242 37.0602 27.9651 38.1993C27.7752 39.4068 27.819 40.7437 28.1988 42.1237C28.9 45.1568 30.799 48.6068 33.8228 52.33C32.3233 54.1069 30.5307 55.6231 28.5202 56.815C27.3077 57.505 26.1537 57.8643 24.9851 58.0081C23.1677 58.2372 21.3319 57.7511 19.8767 56.6556C18.4214 55.56 17.4645 53.9435 17.2137 52.1575C17.0676 51.0075 17.1699 49.8575 17.6373 48.5637C17.7834 48.1037 18.0025 47.6437 18.2363 47.0975C18.5576 46.35 18.9374 45.5737 19.3026 44.7975L19.3611 44.6968C22.5164 37.84 25.9638 30.8393 29.5427 23.9825L29.6888 23.695C30.054 23.005 30.4192 22.2718 30.799 21.5818C31.1788 20.8487 31.5878 20.1443 32.1137 19.5693C32.5689 19.0346 33.1377 18.6046 33.78 18.3095C34.4223 18.0145 35.1226 17.8616 35.8314 17.8616C36.5403 17.8616 37.2405 18.0145 37.8828 18.3095C38.5251 18.6046 39.0939 19.0346 39.5491 19.5693C40.0604 20.1443 40.484 20.8487 40.8638 21.5818C41.229 22.2718 41.5942 23.0193 41.974 23.695L42.1201 23.9825C45.6844 30.8393 49.1318 37.84 52.3456 44.6968L52.3894 44.74C52.7692 45.4875 53.0906 46.3212 53.4558 47.04C53.6895 47.6006 53.9232 48.0462 54.0693 48.5206C54.3468 49.8143 54.4929 50.9643 54.3469 52.1143ZM74.681 49.6706C73.5802 49.6864 72.49 49.4582 71.4911 49.0028C70.4922 48.5474 69.6103 47.8765 68.9109 47.04C67.3391 45.2574 66.505 42.959 66.5736 40.6C66.5496 38.1896 67.4106 35.8517 68.9985 34.0162C69.733 33.169 70.6473 32.4905 71.677 32.0285C72.7067 31.5666 73.8269 31.3324 74.9585 31.3425C76.0233 31.3138 77.0781 31.5521 78.0236 32.0349C78.969 32.5177 79.7742 33.2292 80.3634 34.1025L80.5095 31.8456H84.775V49.2106H80.4949L80.3488 46.6806C79.7414 47.613 78.9018 48.3772 77.9098 48.9005C76.9178 49.4238 75.8064 49.6889 74.681 49.6706ZM75.7912 45.5306C76.6384 45.5306 77.3834 45.3006 78.0846 44.8837C78.7273 44.4237 79.2532 43.82 79.6622 43.0868C80.0274 42.3537 80.2173 41.4768 80.2173 40.4993C80.2743 39.6503 80.1063 38.8013 79.7299 38.0354C79.3536 37.2694 78.7816 36.6126 78.07 36.1293C77.3862 35.7101 76.5968 35.4879 75.7912 35.4879C74.9856 35.4879 74.1961 35.7101 73.5123 36.1293C72.8696 36.5893 72.3437 37.1931 71.9347 37.9262C71.5484 38.7347 71.3584 39.6205 71.3796 40.5137C71.3226 41.3627 71.4906 42.2117 71.867 42.9777C72.2434 43.7437 72.8153 44.4004 73.5269 44.8837C74.2135 45.3006 74.9585 45.5306 75.7912 45.5306ZM92.0789 27.1593C92.0789 27.6625 91.9913 28.1225 91.7575 28.4962C91.5238 28.8556 91.2024 29.1862 90.7788 29.4162C90.3552 29.6462 89.9023 29.7325 89.4349 29.7325C88.9674 29.7325 88.5 29.6462 88.0764 29.4162C87.6757 29.1967 87.3388 28.88 87.0976 28.4962C86.8714 28.0867 86.7605 27.6252 86.7763 27.1593C86.7763 26.6418 86.8785 26.1818 87.0976 25.8225C87.3314 25.3912 87.6673 25.1325 88.0764 24.9025C88.5 24.6725 88.9528 24.5718 89.4349 24.5718C89.8999 24.5613 90.3597 24.6697 90.7693 24.8864C91.179 25.103 91.5246 25.4206 91.7721 25.8081C91.9847 26.2272 92.09 26.6911 92.0789 27.1593ZM87.1122 49.1531V31.8168H91.7575V49.1818H87.0976L87.1122 49.1531ZM104.174 36.3593V36.4168C103.955 36.3162 103.663 36.2731 103.444 36.23C103.152 36.1725 102.918 36.1725 102.64 36.1725C101.34 36.1725 100.362 36.5462 99.7188 37.3225C99.0176 38.1131 98.6963 39.22 98.6963 40.6431V49.1675H94.0364V31.8025H98.3165L98.4625 34.4331C98.93 33.5131 99.4851 32.8231 100.274 32.3056C101.059 31.8028 101.982 31.5517 102.918 31.5868C103.254 31.5868 103.575 31.6156 103.853 31.6731C103.999 31.7162 104.087 31.7162 104.174 31.7593V36.3593ZM106.044 49.1531V24.6868H110.689V34.0306C111.347 33.1968 112.092 32.55 113.027 32.0468C114.507 31.3327 116.188 31.1302 117.799 31.4718C119.411 31.8135 120.858 32.6794 121.908 33.93C123.483 35.7162 124.318 38.0204 124.245 40.3843C124.269 42.7947 123.408 45.1326 121.82 46.9681C121.086 47.8153 120.172 48.4938 119.142 48.9558C118.112 49.4177 116.992 49.6519 115.86 49.6418C114.796 49.6705 113.741 49.4323 112.795 48.9494C111.85 48.4666 111.045 47.7551 110.456 46.8818L110.31 49.1387L106.044 49.1818V49.1531ZM115.028 45.5306C115.86 45.5306 116.605 45.3006 117.307 44.8837C117.949 44.4237 118.475 43.82 118.884 43.0868C119.264 42.3537 119.439 41.4768 119.439 40.4993C119.439 39.5362 119.264 38.6593 118.884 37.9262C118.501 37.2193 117.962 36.6055 117.307 36.1293C116.623 35.7101 115.833 35.4879 115.028 35.4879C114.222 35.4879 113.433 35.7101 112.749 36.1293C112.092 36.5893 111.58 37.1931 111.157 37.9262C110.77 38.7347 110.58 39.6205 110.602 40.5137C110.545 41.3627 110.713 42.2117 111.089 42.9777C111.465 43.7437 112.037 44.4004 112.749 44.8837C113.436 45.3006 114.181 45.5306 115.028 45.5306ZM125.998 49.1675V31.8025H130.278L130.424 34.0593C130.962 33.1942 131.725 32.4862 132.634 32.0086C133.544 31.5309 134.566 31.301 135.596 31.3425C136.773 31.3225 137.931 31.6445 138.923 32.2684C139.916 32.8922 140.699 33.7902 141.176 34.85C141.687 35.9425 141.965 37.2937 141.965 38.8031V49.2106H137.305V39.4068C137.305 38.1993 137.027 37.2506 136.472 36.5462C135.917 35.8562 135.157 35.4825 134.193 35.4825C133.492 35.4825 132.879 35.6262 132.338 35.9425C131.827 36.2731 131.403 36.69 131.082 37.2793C130.757 37.8751 130.596 38.5441 130.614 39.22V49.1675H125.998ZM144.287 49.1675V24.6725H148.947V34.0162C149.578 33.1778 150.4 32.4957 151.345 32.0241C152.291 31.5525 153.336 31.3044 154.396 31.2993C155.497 31.2835 156.587 31.5117 157.586 31.9671C158.585 32.4225 159.467 33.0934 160.166 33.93C161.73 35.7161 162.559 38.0133 162.489 40.37C162.514 42.7806 161.653 45.1189 160.064 46.9537C159.329 47.801 158.415 48.4794 157.385 48.9414C156.356 49.4033 155.235 49.6375 154.104 49.6275C153.039 49.6561 151.984 49.4179 151.039 48.9351C150.093 48.4523 149.288 47.7408 148.699 46.8675L148.567 49.1243L144.287 49.1675ZM153.315 45.5306C154.162 45.5306 154.907 45.3006 155.594 44.8837C156.251 44.4237 156.762 43.82 157.186 43.0868C157.551 42.3537 157.741 41.4768 157.741 40.4993C157.798 39.6503 157.63 38.8013 157.254 38.0354C156.877 37.2694 156.305 36.6126 155.594 36.1293C154.91 35.7101 154.121 35.4879 153.315 35.4879C152.509 35.4879 151.72 35.7101 151.036 36.1293C150.393 36.5893 149.868 37.1931 149.459 37.9262C149.051 38.7275 148.86 39.6186 148.903 40.5137C148.846 41.3627 149.014 42.2117 149.391 42.9777C149.767 43.7437 150.339 44.4004 151.051 44.8837C151.737 45.3006 152.439 45.5306 153.315 45.5306Z" fill="#F7575C"/>
</g>
<defs>
<clipPath id="clip0_57_2170">
<rect width="149" height="46" fill="white" transform="translate(14 15)"/>
</clipPath>
</defs>
</svg>
