<svg width="178" height="76" viewBox="0 0 178 76" fill="none" xmlns="http://www.w3.org/2000/svg">
<mask id="mask0_31_821" style="mask-type:alpha" maskUnits="userSpaceOnUse" x="0" y="0" width="178" height="76">
<rect width="178" height="76" fill="#C4C4C4"/>
</mask>
<g mask="url(#mask0_31_821)">
</g>
<g style="mix-blend-mode:luminosity" clip-path="url(#clip0_31_821)">
<path d="M65.4204 40.0077L64.4846 42.617H64.4066C64.2507 42.0286 63.9647 41.1333 63.4969 40.0589L58.4801 27.6519H53.5674V47.4263H56.8166V35.224C56.8166 34.4565 56.8166 33.5868 56.7906 32.5123C56.7646 31.9751 56.7126 31.5658 56.6866 31.2589H56.7646C56.9205 32.0263 57.1025 32.5891 57.2324 32.9472L63.2629 47.3751H65.5503L71.5288 32.8193C71.6588 32.4868 71.7887 31.8216 71.9187 31.2589H71.9967C71.9187 32.717 71.8667 34.0216 71.8407 34.8147V47.3496H75.2978V27.6007H70.567L65.4204 40.0077ZM78.573 33.1775H81.9521V47.3496H78.573V33.1775ZM80.2886 27.1914C79.7167 27.1914 79.2488 27.3961 78.8589 27.7542C78.469 28.1123 78.2611 28.5728 78.2611 29.1356C78.2611 29.6728 78.469 30.1333 78.8589 30.4914C79.2488 30.8496 79.7167 31.0286 80.2886 31.0286C80.8604 31.0286 81.3543 30.824 81.7182 30.4914C82.1081 30.1333 82.3161 29.6728 82.3161 29.1356C82.3161 28.5984 82.1081 28.1379 81.7182 27.7542C81.3803 27.3961 80.8864 27.1914 80.2886 27.1914ZM93.9351 33.0496C93.3112 32.9216 92.6614 32.8449 92.0376 32.8449C90.504 32.8449 89.1003 33.1775 87.9306 33.8426C86.7609 34.5077 85.8252 35.4286 85.2273 36.5798C84.6035 37.7565 84.2915 39.1123 84.2915 40.6728C84.2915 42.0286 84.6035 43.231 85.2013 44.331C85.7992 45.4054 86.631 46.2751 87.7487 46.8635C88.8144 47.4519 90.0621 47.7589 91.4657 47.7589C93.0773 47.7589 94.455 47.4263 95.5467 46.8123L95.5727 46.7868V43.717L95.4427 43.8193C94.9488 44.1775 94.377 44.4844 93.8051 44.6635C93.2073 44.8682 92.6614 44.9705 92.1935 44.9705C90.8419 44.9705 89.7762 44.5868 89.0223 43.7426C88.2425 42.924 87.8526 41.7984 87.8526 40.3914C87.8526 38.9333 88.2425 37.7821 89.0483 36.9379C89.8541 36.0937 90.9199 35.6589 92.2195 35.6589C93.3112 35.6589 94.429 36.017 95.4427 36.7333L95.5727 36.8356V33.5868L95.5467 33.5612C95.1048 33.3821 94.6109 33.1775 93.9351 33.0496ZM105.086 32.9472C104.254 32.9472 103.475 33.203 102.799 33.7403C102.227 34.2007 101.837 34.8658 101.499 35.6589H101.473V33.1775H98.094V47.3496H101.473V40.11C101.473 38.8821 101.733 37.8589 102.305 37.117C102.877 36.3496 103.605 35.9658 104.488 35.9658C104.8 35.9658 105.112 36.0426 105.502 36.0937C105.866 36.1961 106.126 36.2984 106.308 36.4263L106.438 36.5286V33.203L106.36 33.1775C106.126 33.024 105.658 32.9472 105.086 32.9472ZM114.288 32.8705C111.923 32.8705 110.025 33.5612 108.699 34.917C107.348 36.2728 106.698 38.1403 106.698 40.4937C106.698 42.6937 107.374 44.4844 108.673 45.7891C109.973 47.0682 111.741 47.7333 113.95 47.7333C116.263 47.7333 118.109 47.0426 119.435 45.6612C120.786 44.2798 121.436 42.4379 121.436 40.1612C121.436 37.91 120.812 36.1193 119.539 34.8147C118.317 33.51 116.523 32.8705 114.288 32.8705ZM116.991 43.7682C116.367 44.5612 115.38 44.9449 114.158 44.9449C112.936 44.9449 111.948 44.5612 111.247 43.717C110.545 42.924 110.207 41.7728 110.207 40.3147C110.207 38.8054 110.571 37.6542 111.247 36.8356C111.948 36.017 112.91 35.6077 114.132 35.6077C115.328 35.6077 116.263 35.9914 116.939 36.7844C117.615 37.5775 117.979 38.7286 117.979 40.2379C117.927 41.7728 117.641 42.9751 116.991 43.7682ZM128.974 39.0612C127.908 38.6263 127.233 38.2937 126.921 38.0123C126.661 37.7565 126.531 37.3984 126.531 36.9379C126.531 36.5542 126.687 36.1705 127.077 35.9147C127.467 35.6589 127.908 35.531 128.558 35.531C129.13 35.531 129.728 35.6333 130.3 35.7868C130.872 35.9403 131.392 36.1705 131.807 36.4775L131.937 36.5798V33.4589L131.859 33.4333C131.47 33.2798 130.95 33.1263 130.326 32.9984C129.702 32.8961 129.13 32.8449 128.662 32.8449C127.051 32.8449 125.725 33.2286 124.685 34.0728C123.646 34.8658 123.152 35.9403 123.152 37.1937C123.152 37.8589 123.256 38.4472 123.49 38.9333C123.724 39.4193 124.061 39.8798 124.529 40.2635C124.997 40.6217 125.673 41.031 126.609 41.4147C127.389 41.7472 127.986 42.003 128.35 42.2077C128.714 42.4123 128.948 42.6426 129.13 42.8217C129.26 43.0263 129.338 43.2821 129.338 43.6147C129.338 44.5612 128.61 45.0217 127.129 45.0217C126.557 45.0217 125.959 44.9193 125.257 44.6891C124.555 44.4589 123.905 44.1263 123.36 43.7426L123.23 43.6403V46.8891L123.308 46.9147C123.801 47.1449 124.399 47.2984 125.127 47.4775C125.855 47.6054 126.505 47.7077 127.077 47.7077C128.818 47.7077 130.248 47.324 131.262 46.4798C132.301 45.6612 132.847 44.6123 132.847 43.2565C132.847 42.31 132.587 41.4658 132.015 40.8263C131.262 40.2123 130.326 39.5728 128.974 39.0612ZM141.763 32.8705C139.398 32.8705 137.5 33.5612 136.174 34.917C134.849 36.2728 134.173 38.1403 134.173 40.4937C134.173 42.6937 134.849 44.4844 136.148 45.7891C137.448 47.0682 139.216 47.7333 141.425 47.7333C143.738 47.7333 145.584 47.0426 146.91 45.6612C148.261 44.2798 148.911 42.4379 148.911 40.1612C148.911 37.91 148.287 36.1193 147.014 34.8147C145.792 33.51 143.998 32.8705 141.763 32.8705ZM144.44 43.7682C143.816 44.5612 142.829 44.9449 141.607 44.9449C140.359 44.9449 139.398 44.5612 138.696 43.717C137.994 42.924 137.656 41.7728 137.656 40.3147C137.656 38.8054 138.02 37.6542 138.696 36.8356C139.398 36.017 140.359 35.6077 141.581 35.6077C142.751 35.6077 143.712 35.9914 144.388 36.7844C145.064 37.5775 145.428 38.7286 145.428 40.2379C145.428 41.7728 145.09 42.9751 144.44 43.7682ZM166.976 35.9147V33.1775H163.571V28.9821L163.467 29.0077L160.244 29.9542L160.166 29.9798V33.1775H155.071V31.3868C155.071 30.5682 155.279 29.9286 155.643 29.5193C156.007 29.11 156.553 28.9054 157.229 28.9054C157.697 28.9054 158.191 29.0077 158.737 29.2379L158.867 29.3147V26.424L158.789 26.3984C158.321 26.2449 157.697 26.1426 156.891 26.1426C155.877 26.1426 154.994 26.3728 154.188 26.7565C153.382 27.1914 152.784 27.7798 152.342 28.5728C151.9 29.3403 151.666 30.21 151.666 31.2077V33.1775H149.301V35.8891H151.666V47.3496H155.071V35.9147H160.166V43.2054C160.166 46.1984 161.596 47.7077 164.455 47.7077C164.923 47.7077 165.417 47.631 165.885 47.5542C166.379 47.4519 166.743 47.324 166.95 47.2217L166.976 47.1961V44.4589L166.847 44.5612C166.639 44.6891 166.457 44.7914 166.145 44.8682C165.885 44.9449 165.651 44.9705 165.469 44.9705C164.793 44.9705 164.325 44.817 163.987 44.4333C163.675 44.0751 163.519 43.4868 163.519 42.617V35.9147H166.976Z" fill="#737373"/>
<path d="M10 21H25.9339V36.6814H10V21Z" fill="#F15121"/>
<path d="M27.5979 21H43.5318V36.6814H27.5979V21Z" fill="#7EB801"/>
<path d="M10.0005 38.3188H25.9344V54.0002H10.0005V38.3188Z" fill="#00A3EE"/>
<path d="M27.5979 38.3188H43.5318V54.0002H27.5979V38.3188Z" fill="#FFB700"/>
</g>
<defs>
<clipPath id="clip0_31_821">
<rect width="157" height="33" fill="white" transform="translate(10 21)"/>
</clipPath>
</defs>
</svg>
