<svg width="149" height="46" viewBox="0 0 149 46" fill="none" xmlns="http://www.w3.org/2000/svg">
<path d="M42.7133 32.6006C42.4796 32.04 42.2605 31.4506 42.0268 30.9475L40.9458 28.5468L40.9019 28.5037C37.6882 21.6037 34.2554 14.5887 30.618 7.68871L30.4719 7.40122C30.1068 6.72559 29.7416 5.97809 29.3617 5.28809C28.8943 4.46871 28.4415 3.59184 27.6965 2.75809C26.9703 1.88572 26.0563 1.18286 25.0206 0.700243C23.9849 0.217626 22.8532 -0.0327148 21.7072 -0.0327148C20.5613 -0.0327148 19.4296 0.217626 18.3939 0.700243C17.3581 1.18286 16.4442 1.88572 15.718 2.75809C15.0315 3.59184 14.5202 4.46871 14.0527 5.28809C13.6875 6.03559 13.3223 6.76871 12.9425 7.44434L12.7965 7.73184C9.21753 14.6318 5.72626 21.6468 2.51253 28.5468L2.42488 28.6331C2.10351 29.3806 1.72371 30.1568 1.35851 30.9906C1.12478 31.4937 0.891059 32.04 0.657334 32.6437C0.0263225 34.2247 -0.175179 35.9401 0.0726873 37.621C0.320554 39.302 1.00923 40.8903 2.07085 42.2296C3.13247 43.5688 4.53039 44.6127 6.12684 45.2584C7.72329 45.9041 9.46316 46.1293 11.175 45.9118C12.8161 45.6992 14.3964 45.1613 15.8203 44.3306C17.7193 43.2812 19.5453 41.7575 21.5904 39.5581C23.6355 41.7575 25.5053 43.2812 27.3605 44.345C29.1445 45.3754 31.1649 45.9442 33.2328 45.9981C35.6276 46.0079 37.945 45.1647 39.7574 43.6244C41.5697 42.084 42.7546 39.9504 43.0931 37.6175C43.4844 35.941 43.352 34.1874 42.7133 32.5862V32.6006ZM21.7365 34.9868C19.2239 31.8243 17.5878 28.9206 17.0327 26.4337C16.8027 25.5122 16.7532 24.556 16.8867 23.6162C16.9889 22.8831 17.2665 22.2362 17.6463 21.69C18.5227 20.4393 20.0566 19.6631 21.7365 19.6631C22.5342 19.6391 23.3256 19.8104 24.0395 20.1617C24.7534 20.5129 25.3675 21.0331 25.8267 21.6756C26.2065 22.2506 26.484 22.8831 26.5717 23.6162C26.7177 24.45 26.6593 25.4131 26.4256 26.4337C25.8705 28.8775 24.2344 31.81 21.7365 34.9868ZM40.3469 37.1143C40.1809 38.2988 39.7024 39.4197 38.9592 40.3655C38.2159 41.3113 37.2337 42.049 36.1106 42.505C35.0004 42.965 33.7733 43.0943 32.5755 42.965C31.4068 42.8212 30.2382 42.4475 29.0404 41.7575C27.0515 40.5478 25.2632 39.0449 23.7377 37.3012C26.8054 33.5637 28.6606 30.1568 29.3617 27.1237C29.6977 25.6862 29.7416 24.3925 29.5955 23.1993C29.4131 22.0684 28.9845 20.9897 28.3392 20.0368C27.6024 19.0037 26.6189 18.1644 25.4752 17.5929C24.3316 17.0214 23.0627 16.7352 21.7803 16.7593C19.0778 16.7593 16.6675 17.9956 15.2067 20.0225C14.5492 20.9729 14.1242 22.0602 13.9651 23.1993C13.7752 24.4068 13.819 25.7437 14.1988 27.1237C14.9 30.1568 16.799 33.6068 19.8228 37.33C18.3233 39.1069 16.5307 40.6231 14.5202 41.815C13.3077 42.505 12.1537 42.8643 10.9851 43.0081C9.1677 43.2372 7.33188 42.7511 5.87666 41.6556C4.42144 40.56 3.46445 38.9435 3.21371 37.1575C3.06763 36.0075 3.16988 34.8575 3.63733 33.5637C3.78341 33.1037 4.00253 32.6437 4.23626 32.0975C4.55763 31.35 4.93743 30.5737 5.30263 29.7975L5.36106 29.6968C8.51635 22.84 11.9638 15.8393 15.5427 8.98246L15.6888 8.69497C16.054 8.00497 16.4192 7.27184 16.799 6.58184C17.1788 5.84871 17.5878 5.14434 18.1137 4.56934C18.5689 4.03462 19.1377 3.60459 19.78 3.30954C20.4223 3.01448 21.1226 2.86157 21.8314 2.86157C22.5403 2.86157 23.2405 3.01448 23.8828 3.30954C24.5251 3.60459 25.0939 4.03462 25.5491 4.56934C26.0604 5.14434 26.484 5.84871 26.8638 6.58184C27.229 7.27184 27.5942 8.01934 27.974 8.69497L28.1201 8.98246C31.6844 15.8393 35.1318 22.84 38.3456 29.6968L38.3894 29.74C38.7692 30.4875 39.0906 31.3212 39.4558 32.04C39.6895 32.6006 39.9232 33.0462 40.0693 33.5206C40.3468 34.8143 40.4929 35.9643 40.3469 37.1143ZM60.681 34.6706C59.5802 34.6864 58.49 34.4582 57.4911 34.0028C56.4922 33.5474 55.6103 32.8765 54.9109 32.04C53.3391 30.2574 52.505 27.959 52.5736 25.6C52.5496 23.1896 53.4106 20.8517 54.9985 19.0162C55.733 18.169 56.6473 17.4905 57.677 17.0285C58.7067 16.5666 59.8269 16.3324 60.9585 16.3425C62.0233 16.3138 63.0781 16.5521 64.0236 17.0349C64.969 17.5177 65.7742 18.2292 66.3634 19.1025L66.5095 16.8456H70.775V34.2106H66.4949L66.3488 31.6806C65.7414 32.613 64.9018 33.3772 63.9098 33.9005C62.9178 34.4238 61.8064 34.6889 60.681 34.6706ZM61.7912 30.5306C62.6384 30.5306 63.3834 30.3006 64.0846 29.8837C64.7273 29.4237 65.2532 28.82 65.6622 28.0868C66.0274 27.3537 66.2173 26.4768 66.2173 25.4993C66.2743 24.6503 66.1063 23.8013 65.7299 23.0354C65.3536 22.2694 64.7816 21.6126 64.07 21.1293C63.3862 20.7101 62.5968 20.4879 61.7912 20.4879C60.9856 20.4879 60.1961 20.7101 59.5123 21.1293C58.8696 21.5893 58.3437 22.1931 57.9347 22.9262C57.5484 23.7347 57.3584 24.6205 57.3796 25.5137C57.3226 26.3627 57.4906 27.2117 57.867 27.9777C58.2434 28.7437 58.8153 29.4004 59.5269 29.8837C60.2135 30.3006 60.9585 30.5306 61.7912 30.5306ZM78.0789 12.1593C78.0789 12.6625 77.9913 13.1225 77.7575 13.4962C77.5238 13.8556 77.2024 14.1862 76.7788 14.4162C76.3552 14.6462 75.9023 14.7325 75.4349 14.7325C74.9674 14.7325 74.5 14.6462 74.0764 14.4162C73.6757 14.1967 73.3388 13.88 73.0976 13.4962C72.8714 13.0867 72.7605 12.6252 72.7763 12.1593C72.7763 11.6418 72.8785 11.1818 73.0976 10.8225C73.3314 10.3912 73.6673 10.1325 74.0764 9.90246C74.5 9.67247 74.9528 9.57184 75.4349 9.57184C75.8999 9.5613 76.3597 9.66967 76.7693 9.88636C77.179 10.103 77.5246 10.4206 77.7721 10.8081C77.9847 11.2272 78.09 11.6911 78.0789 12.1593ZM73.1122 34.1531V16.8168H77.7575V34.1818H73.0976L73.1122 34.1531ZM90.1742 21.3593V21.4168C89.9551 21.3162 89.6629 21.2731 89.4438 21.23C89.1516 21.1725 88.9179 21.1725 88.6404 21.1725C87.3403 21.1725 86.3616 21.5462 85.7188 22.3225C85.0176 23.1131 84.6963 24.22 84.6963 25.6431V34.1675H80.0364V16.8025H84.3165L84.4625 19.4331C84.93 18.5131 85.4851 17.8231 86.2739 17.3056C87.0585 16.8028 87.9823 16.5517 88.9179 16.5868C89.2539 16.5868 89.5753 16.6156 89.8528 16.6731C89.9989 16.7162 90.0866 16.7162 90.1742 16.7593V21.3593ZM92.044 34.1531V9.68684H96.6893V19.0306C97.3467 18.1968 98.0917 17.55 99.0266 17.0468C100.507 16.3327 102.188 16.1302 103.799 16.4718C105.411 16.8135 106.858 17.6794 107.908 18.93C109.483 20.7162 110.318 23.0204 110.245 25.3843C110.269 27.7947 109.408 30.1326 107.82 31.9681C107.086 32.8153 106.172 33.4938 105.142 33.9558C104.112 34.4177 102.992 34.6519 101.86 34.6418C100.796 34.6705 99.7409 34.4323 98.7954 33.9494C97.8499 33.4666 97.0448 32.7551 96.4556 31.8818L96.3095 34.1387L92.044 34.1818V34.1531ZM101.028 30.5306C101.86 30.5306 102.605 30.3006 103.307 29.8837C103.949 29.4237 104.475 28.82 104.884 28.0868C105.264 27.3537 105.439 26.4768 105.439 25.4993C105.439 24.5362 105.264 23.6593 104.884 22.9262C104.501 22.2193 103.962 21.6055 103.307 21.1293C102.623 20.7101 101.833 20.4879 101.028 20.4879C100.222 20.4879 99.4328 20.7101 98.749 21.1293C98.0917 21.5893 97.5804 22.1931 97.1568 22.9262C96.7705 23.7347 96.5804 24.6205 96.6017 25.5137C96.5447 26.3627 96.7126 27.2117 97.089 27.9777C97.4654 28.7437 98.0374 29.4004 98.749 29.8837C99.4356 30.3006 100.181 30.5306 101.028 30.5306ZM111.998 34.1675V16.8025H116.278L116.424 19.0593C116.962 18.1942 117.725 17.4862 118.634 17.0086C119.544 16.5309 120.566 16.301 121.596 16.3425C122.773 16.3225 123.931 16.6445 124.923 17.2684C125.916 17.8922 126.699 18.7902 127.176 19.85C127.687 20.9425 127.965 22.2937 127.965 23.8031V34.2106H123.305V24.4068C123.305 23.1993 123.027 22.2506 122.472 21.5462C121.917 20.8562 121.157 20.4825 120.193 20.4825C119.492 20.4825 118.879 20.6262 118.338 20.9425C117.827 21.2731 117.403 21.69 117.082 22.2793C116.757 22.8751 116.596 23.5441 116.614 24.22V34.1675H111.998ZM130.287 34.1675V9.67247H134.947V19.0162C135.578 18.1778 136.4 17.4957 137.345 17.0241C138.291 16.5525 139.336 16.3044 140.396 16.2993C141.497 16.2835 142.587 16.5117 143.586 16.9671C144.585 17.4225 145.467 18.0934 146.166 18.93C147.73 20.7161 148.559 23.0133 148.489 25.37C148.514 27.7806 147.653 30.1189 146.064 31.9537C145.329 32.801 144.415 33.4794 143.385 33.9414C142.356 34.4033 141.235 34.6375 140.104 34.6275C139.039 34.6561 137.984 34.4179 137.039 33.9351C136.093 33.4523 135.288 32.7408 134.699 31.8675L134.567 34.1243L130.287 34.1675ZM139.315 30.5306C140.162 30.5306 140.907 30.3006 141.594 29.8837C142.251 29.4237 142.762 28.82 143.186 28.0868C143.551 27.3537 143.741 26.4768 143.741 25.4993C143.798 24.6503 143.63 23.8013 143.254 23.0354C142.877 22.2694 142.305 21.6126 141.594 21.1293C140.91 20.7101 140.121 20.4879 139.315 20.4879C138.509 20.4879 137.72 20.7101 137.036 21.1293C136.393 21.5893 135.868 22.1931 135.459 22.9262C135.051 23.7275 134.86 24.6186 134.903 25.5137C134.846 26.3627 135.014 27.2117 135.391 27.9777C135.767 28.7437 136.339 29.4004 137.051 29.8837C137.737 30.3006 138.439 30.5306 139.315 30.5306Z" fill="#F7575C"/>
</svg>
