<svg width="149" height="43" viewBox="0 0 149 43" fill="none" xmlns="http://www.w3.org/2000/svg">
<g style="mix-blend-mode:luminosity" clip-path="url(#clip0_31_831)">
<path d="M16.1381 7.11963V19.2488H5.19673V7.11963H0.00219727V36.0731H5.19673V24.3378H16.1381V36.0731H21.3326V7.11963H16.1381Z" fill="#465660"/>
<path d="M37.9567 26.7113C37.9567 27.8716 37.5039 28.9845 36.698 29.805C35.8921 30.6255 34.799 31.0864 33.6593 31.0864C32.5195 31.0864 31.4265 30.6255 30.6205 29.805C29.8146 28.9845 29.3619 27.8716 29.3619 26.7113V14.3101H24.4346V26.7113C24.4346 29.1997 25.4055 31.5861 27.1338 33.3457C28.8621 35.1053 31.2062 36.0938 33.6504 36.0938C36.0945 36.0938 38.4386 35.1053 40.1669 33.3457C41.8952 31.5861 42.8661 29.1997 42.8661 26.7113V14.3101H37.9567V26.7113Z" fill="#465660"/>
<path d="M74.4636 15.5876C74.4636 13.0457 76.1154 12.2399 77.9249 12.2399C79.3833 12.2399 81.3099 13.3696 82.5697 14.7403L85.7969 10.8692C84.1859 8.65114 80.918 7.11719 78.2431 7.11719C72.8984 7.11719 69.0324 10.3043 69.0324 15.5876C69.0324 25.3899 80.8009 22.2805 80.8009 27.766C80.8009 29.458 79.1873 30.9531 77.3396 30.9531C74.4254 30.9531 73.4812 29.5021 72.1425 27.9681L68.5615 31.7589C70.8521 34.6222 73.6772 36.0758 77.0621 36.0758C82.1396 36.0758 86.2245 32.8498 86.2245 27.8075C86.2245 16.9247 74.456 20.3061 74.456 15.5876" fill="#465660"/>
<path d="M147.268 31.4444C144.356 31.4444 143.529 30.1618 143.529 28.1977V19.5045H148.054V15.0995H143.529V9.2876L138.533 11.5704V29.2783C138.533 33.8076 141.602 36.0904 145.812 36.0904C146.472 36.1026 147.132 36.0488 147.782 35.9297L149.001 31.3615C148.451 31.4004 147.82 31.4393 147.268 31.4393" fill="#465660"/>
<path d="M56.7111 14.4545C54.2704 14.4545 52.5677 15.1749 50.921 16.8203V7.29004H45.9861V24.9538C45.9861 31.5664 50.6818 36.0958 55.9578 36.0958C61.8115 36.0958 66.9602 31.4861 66.9602 25.2777C66.9602 19.1471 62.2212 14.4571 56.7111 14.4571V14.4545ZM56.6806 31.0404C55.5732 31.0404 54.4906 30.7061 53.5698 30.0797C52.649 29.4534 51.9314 28.5631 51.5076 27.5214C51.0838 26.4798 50.9729 25.3336 51.189 24.2278C51.405 23.122 51.9383 22.1063 52.7213 21.3091C53.5044 20.5118 54.5021 19.9689 55.5882 19.749C56.6744 19.529 57.8002 19.6419 58.8233 20.0733C59.8464 20.5048 60.7209 21.2355 61.3361 22.1729C61.9514 23.1103 62.2798 24.2125 62.2798 25.3399C62.2798 26.8518 61.6899 28.3017 60.6398 29.3708C59.5898 30.4399 58.1656 31.0404 56.6806 31.0404Z" fill="#465660"/>
<path d="M110.297 25.0133C110.297 18.7946 105.159 14.1953 99.2949 14.1953C94.0189 14.1953 89.3232 18.7246 89.3232 25.3372V43.0114H94.2582V33.4682C95.9023 35.111 97.6075 35.8339 100.046 35.8339C105.556 35.8339 110.295 31.1466 110.295 25.0133H110.297ZM105.625 24.9511C105.625 26.0786 105.296 27.1807 104.681 28.1182C104.066 29.0556 103.191 29.7863 102.168 30.2177C101.145 30.6492 100.019 30.7621 98.933 30.5421C97.8469 30.3222 96.8492 29.7792 96.0661 28.982C95.2831 28.1848 94.7498 27.169 94.5337 26.0632C94.3177 24.9575 94.4286 23.8113 94.8524 22.7696C95.2762 21.728 95.9938 20.8377 96.9146 20.2113C97.8354 19.585 98.9179 19.2506 100.025 19.2506C101.51 19.2506 102.935 19.8512 103.985 20.9203C105.035 21.9893 105.625 23.4393 105.625 24.9511Z" fill="#465660"/>
<path d="M126.238 13.9534V8.9059C126.893 8.59422 127.448 8.09949 127.838 7.47929C128.228 6.85909 128.436 6.13894 128.44 5.40268V5.28608C128.44 4.25526 128.037 3.26666 127.321 2.53776C126.605 1.80886 125.634 1.39937 124.622 1.39937H124.507C123.495 1.39937 122.524 1.80886 121.808 2.53776C121.092 3.26666 120.69 4.25526 120.69 5.28608V5.40268C120.693 6.13894 120.902 6.85909 121.292 7.47929C121.681 8.09949 122.236 8.59422 122.891 8.9059V13.9534C121.008 14.2467 119.235 15.0414 117.75 16.257L104.154 5.47523C104.251 5.11969 104.302 4.75311 104.307 4.38436C104.309 3.51816 104.058 2.67096 103.586 1.94993C103.115 1.22889 102.444 0.666408 101.658 0.333626C100.873 0.000844268 100.008 -0.0872868 99.1732 0.0803805C98.3385 0.248048 97.5714 0.663981 96.9689 1.27557C96.3664 1.88716 95.9556 2.66693 95.7884 3.51625C95.6213 4.36556 95.7053 5.24627 96.0298 6.04698C96.3544 6.84769 96.9049 7.53241 97.6117 8.01455C98.3185 8.4967 99.1499 8.75459 100.001 8.75562C100.745 8.75223 101.475 8.55032 102.118 8.17002L115.508 18.7756C114.305 20.6256 113.677 22.8017 113.707 25.0203C113.736 27.2388 114.421 29.3969 115.673 31.213L111.601 35.3589C111.272 35.2518 110.929 35.195 110.583 35.1904C109.885 35.191 109.202 35.4023 108.622 35.7976C108.041 36.193 107.589 36.7547 107.322 37.4118C107.055 38.0689 106.985 38.7918 107.121 39.4892C107.258 40.1866 107.594 40.8272 108.088 41.3301C108.582 41.8329 109.211 42.1754 109.896 42.3142C110.581 42.4531 111.291 42.3821 111.936 42.1102C112.582 41.8383 113.134 41.3777 113.522 40.7867C113.91 40.1956 114.118 39.5006 114.118 38.7895C114.114 38.4376 114.058 38.0883 113.953 37.7531L117.982 33.6513C119.296 34.6805 120.823 35.39 122.448 35.7254C124.072 36.0608 125.751 36.0131 127.355 35.5861C128.958 35.1591 130.445 34.3641 131.7 33.262C132.956 32.1598 133.947 30.7797 134.597 29.2275C135.248 27.6752 135.541 25.992 135.454 24.3066C135.367 22.6213 134.902 20.9785 134.095 19.5043C133.288 18.03 132.161 16.7633 130.799 15.8011C129.437 14.839 127.877 14.207 126.238 13.9534ZM124.568 30.5523C123.466 30.5513 122.389 30.2177 121.474 29.5936C120.558 28.9696 119.844 28.0831 119.423 27.0463C119.002 26.0094 118.892 24.8688 119.107 23.7684C119.323 22.6681 119.854 21.6574 120.633 20.8642C121.413 20.071 122.406 19.5309 123.487 19.3121C124.567 19.0932 125.688 19.2056 126.706 19.6348C127.724 20.0641 128.595 20.791 129.207 21.7237C129.82 22.6564 130.147 23.7531 130.147 24.8751C130.147 26.3801 129.56 27.8235 128.515 28.8877C127.47 29.9518 126.052 30.5497 124.574 30.5497" fill="#EE721C"/>
</g>
<defs>
<clipPath id="clip0_31_831">
<rect width="149" height="43" fill="white"/>
</clipPath>
</defs>
</svg>
