<svg width="156" height="36" viewBox="0 0 156 36" fill="none" xmlns="http://www.w3.org/2000/svg">
<g style="mix-blend-mode:luminosity" clip-path="url(#clip0_31_844)">
<path d="M55.516 12.8048V14.845H55.5793C56.3244 13.7527 57.5615 12.4663 60.3034 12.4663C62.4366 12.4663 64.073 13.536 64.7743 15.1519H64.8377C65.4367 14.3349 66.1234 13.7166 66.8929 13.2787C67.8036 12.7597 68.8167 12.4618 70.0927 12.4618C72.9807 12.4618 75.5376 14.3124 75.5376 18.9796V27.831H71.1349V19.5979C71.1349 17.2328 70.268 15.8651 68.466 15.8651C67.1462 15.8651 66.1867 16.6866 65.8214 17.6977C65.6948 18.0452 65.6364 18.5192 65.6364 18.9164V27.8355H61.2337V19.2639C61.2337 17.2553 60.4008 15.8606 58.6232 15.8606C57.2011 15.8606 56.3098 16.8987 55.9445 17.7879C55.7887 18.1671 55.74 18.6049 55.74 19.0157V27.831H51.3324V12.8048H55.516ZM98.2623 12.8048V15.6394H98.3841C99.1925 13.4728 101.111 12.4663 102.797 12.4663C103.22 12.4663 103.454 12.4979 103.795 12.5611V16.497C103.391 16.4429 103.016 16.3887 102.49 16.3887C100.581 16.3887 99.251 17.4178 98.9149 19.0292C98.8419 19.3632 98.8175 19.7243 98.8175 20.1396V27.8355H94.2979V12.8048H98.2623ZM109.931 7.82617V12.5565H113.75V16.3842H109.931V22.0308C109.931 23.8589 110.433 24.7436 111.923 24.7436C112.625 24.7436 113.141 24.6623 113.589 24.5585L113.647 27.7317C113.048 27.9393 111.772 28.165 110.477 28.165C108.953 28.165 107.681 27.673 106.907 26.9102C106.021 26.039 105.612 24.6127 105.612 22.5815V7.82617H109.931ZM48.2641 27.831H43.8809V7.82617H48.2641V27.831ZM36.5755 22.4642C36.5755 22.7395 36.5511 23.0284 36.4683 23.2766C36.1274 24.3193 34.9634 25.1995 33.5121 25.1995C32.2994 25.1995 31.3351 24.563 31.3351 23.2134C31.3351 21.1507 33.7897 20.5774 36.5803 20.591V22.4642H36.5755ZM40.9539 18.8667C40.9539 15.4589 39.3856 12.4663 34.0819 12.4663C31.3594 12.4663 29.197 13.1749 28.0184 13.8068L28.8805 16.5422C29.9568 15.9102 31.676 15.3912 33.3027 15.3912C35.9959 15.3866 36.4342 16.804 36.4342 17.7112V17.9279C30.5656 17.9188 26.8593 19.8011 26.8593 23.6377C26.8593 25.9803 28.7441 28.174 32.0266 28.174C34.0478 28.174 35.7329 27.4292 36.7459 26.2331H36.8433C36.8433 26.2331 37.5154 28.8285 41.2071 27.8355C41.0123 26.7522 40.949 25.6012 40.949 24.2155V18.8667H40.9539ZM4.8408 7.82617C5.29374 9.9431 6.57949 16.0908 6.57949 16.0908C7.12009 18.6185 7.61686 21.268 7.99187 23.3624H8.06005C8.42532 21.1371 9.00001 19.0292 9.61367 16.4203L11.7809 7.82617H16.5782L18.6042 16.6415C19.135 19.0924 19.5588 20.9837 19.8948 23.2631H19.9581C20.3234 20.9611 20.8007 18.9931 21.3218 16.4745L23.2699 7.82617H27.8723L22.1692 27.831C18.536 28.5667 17.1431 27.2126 16.6463 25.0641C16.1496 22.911 15.1755 18.8171 15.1755 18.8171C14.6739 16.5738 14.2843 14.994 14.0115 12.692H13.9433C13.5537 14.9714 13.1446 16.5692 12.5407 18.8126L10.1494 27.8355C6.43825 28.5216 5.1525 27.506 4.44144 24.7481C3.82779 22.3874 -0.000244141 7.83069 -0.000244141 7.83069H4.8408V7.82617ZM86.9925 22.4642C86.9925 22.7395 86.9682 23.0284 86.8854 23.2766C86.5444 24.3193 85.3805 25.1995 83.9291 25.1995C82.7164 25.1995 81.7521 24.563 81.7521 23.2134C81.7521 21.1507 84.2067 20.5774 86.9974 20.591V22.4642H86.9925ZM91.3709 18.8667C91.3709 15.4589 89.8027 12.4663 84.4989 12.4663C81.7765 12.4663 79.6141 13.1749 78.4354 13.8068L79.2975 16.5422C80.3738 15.9102 82.093 15.3912 83.7197 15.3912C86.4081 15.3866 86.8513 16.804 86.8513 17.7112V17.9279C80.9875 17.9188 77.2812 19.8011 77.2812 23.6377C77.2812 25.9803 79.1709 28.174 82.4486 28.174C84.4648 28.174 86.1548 27.4292 87.163 26.2331H87.2652C87.2652 26.2331 87.9373 28.8285 91.629 27.8355C91.4342 26.7522 91.3709 25.6012 91.3709 24.2155V18.8667Z" fill="#0676C3"/>
<path d="M131.518 20.9411C131.95 21.6716 131.921 22.487 131.46 22.8594L123.489 28.2844C122.658 28.751 121.416 28.1854 120.712 27.0024C120.003 25.8146 120.129 24.4902 120.959 24.0236L129.785 20.0361C130.338 19.8287 131.086 20.2105 131.518 20.9411ZM142.009 20.9411C142.446 20.2105 143.189 19.8335 143.742 20.0314L152.573 24.0189C153.403 24.4855 153.524 25.8099 152.82 26.9976C152.111 28.1807 150.864 28.7416 150.039 28.2797L142.067 22.8547C141.611 22.487 141.577 21.6669 142.009 20.9411ZM136.761 23.8822C137.63 23.8822 138.344 24.3158 138.441 24.8861L139.3 34.3032C139.3 35.2364 138.179 36 136.766 36C135.358 36 134.232 35.2364 134.232 34.3032L135.086 24.8861C135.183 24.3158 135.897 23.8822 136.761 23.8822ZM142.067 13.1453L150.039 7.71563C150.864 7.24902 152.111 7.8099 152.82 8.99764C153.524 10.1854 153.403 11.5098 152.573 11.9764L143.742 15.9686C143.189 16.1665 142.441 15.7895 142.009 15.0589C141.577 14.3284 141.611 13.513 142.067 13.1453ZM129.785 15.9686L120.959 11.9764C120.134 11.5098 120.008 10.1854 120.712 8.99764C121.416 7.8099 122.663 7.24902 123.489 7.71563L131.46 13.1453C131.921 13.5082 131.95 14.3284 131.518 15.0589C131.086 15.7895 130.338 16.1665 129.785 15.9686ZM135.086 11.1139L134.232 1.69678C134.232 0.763551 135.353 0 136.766 0C138.179 0 139.3 0.763551 139.3 1.69678L138.441 11.1139C138.344 11.6795 137.63 12.1178 136.761 12.1178C135.897 12.1178 135.183 11.6795 135.086 11.1139ZM154.976 28.2467V28.011H155.194C155.267 28.011 155.316 28.0581 155.316 28.1288C155.316 28.1948 155.267 28.2467 155.194 28.2467H154.976ZM154.796 28.6756C154.796 28.6991 154.815 28.7227 154.845 28.7227H154.937C154.961 28.7227 154.985 28.6991 154.985 28.6756V28.4069H155.136L155.257 28.6897C155.267 28.7086 155.282 28.7227 155.301 28.7227H155.413C155.447 28.7227 155.471 28.6897 155.456 28.6567C155.413 28.5719 155.369 28.4823 155.325 28.3928C155.398 28.3692 155.51 28.2985 155.51 28.1288C155.51 27.9497 155.359 27.846 155.209 27.846H154.845C154.82 27.846 154.796 27.8696 154.796 27.8932V28.6756ZM154.403 28.2844C154.403 27.9026 154.723 27.5915 155.116 27.5915C155.51 27.5915 155.83 27.8979 155.83 28.2844C155.83 28.6661 155.515 28.9772 155.116 28.9772C154.718 28.9772 154.403 28.6661 154.403 28.2844ZM154.233 28.2844C154.233 28.7557 154.626 29.1422 155.116 29.1422C155.602 29.1422 156 28.7557 156 28.2844C156 27.813 155.602 27.4265 155.116 27.4265C154.626 27.4265 154.233 27.813 154.233 28.2844Z" fill="#F7AE2E"/>
</g>
<defs>
<clipPath id="clip0_31_844">
<rect width="156" height="36" fill="white"/>
</clipPath>
</defs>
</svg>
