<svg width="282" height="107" viewBox="0 0 282 107" fill="none" xmlns="http://www.w3.org/2000/svg">
<g opacity="0.6">
<mask id="mask0_38_1724" style="mask-type:alpha" maskUnits="userSpaceOnUse" x="0" y="0" width="282" height="107">
<rect width="282" height="107" rx="16" fill="#C4C4C4"/>
</mask>
<g mask="url(#mask0_38_1724)">
<g opacity="0.21">
<path d="M182.19 52.7452C182.19 52.7452 184.093 67.1243 184.85 72.1888C185.016 73.3261 184.624 74.1865 183.888 74.5635L178.304 77.4206C178.169 77.4901 177.993 77.482 177.866 77.4248C177.729 77.3483 177.611 77.2131 177.6 77.0478C175.747 60.7115 173.586 53.334 175.544 52.2346L179.615 50.1513C181.418 49.2287 182.045 50.7412 182.19 52.7452Z" fill="url(#paint0_linear_38_1724)"/>
<path opacity="0.13" d="M182.19 52.7452C182.19 52.7452 184.093 67.1243 184.85 72.1888C185.016 73.3261 184.624 74.1865 183.888 74.5635L178.304 77.4206C178.169 77.4901 177.993 77.482 177.866 77.4248C177.729 77.3483 177.611 77.2131 177.6 77.0478C175.747 60.7115 173.586 53.334 175.544 52.2346L179.615 50.1513C181.418 49.2287 182.045 50.7412 182.19 52.7452Z" fill="url(#paint1_linear_38_1724)"/>
<path opacity="0.56" d="M175.738 52.1354C175.718 52.1453 175.679 52.1652 175.66 52.1751C173.831 53.429 175.972 60.8164 177.774 76.9098C177.795 77.0946 177.923 77.2491 178.079 77.3157C178.197 77.3535 178.343 77.3521 178.459 77.2926L178.285 77.3819C178.149 77.4513 177.973 77.4433 177.846 77.3861C177.709 77.3095 177.591 77.1744 177.58 77.009C175.747 60.7115 173.586 53.334 175.544 52.2346L175.738 52.1354Z" fill="url(#paint2_linear_38_1724)"/>
<path d="M198.392 67.4348C198.014 67.6526 197.325 67.9805 196.841 68.2285C196.531 68.3872 196.16 68.3324 195.895 68.1013C179.741 54.3165 176.746 51.6195 175.544 52.2346L180.158 49.8735C182.833 48.5045 183.699 48.3793 186.424 50.4072C189.003 52.339 195.481 57.9229 199.114 61.1491C201.715 63.4604 201.318 65.8395 198.392 67.4348Z" fill="url(#paint3_linear_38_1724)"/>
<path opacity="0.56" d="M197.374 67.98C197.18 68.0792 197.006 68.1685 196.851 68.2479C196.54 68.4066 196.17 68.3517 195.905 68.1207C179.741 54.3165 176.746 51.6195 175.544 52.2346L175.718 52.1453C176.94 51.5203 179.934 54.2173 196.06 68.0413C196.325 68.2724 196.696 68.3272 197.006 68.1685C197.141 68.099 197.258 68.0395 197.374 67.98Z" fill="url(#paint4_linear_38_1724)"/>
<path opacity="0.11" d="M198.39 67.4352C198.013 67.653 197.324 67.9808 196.84 68.2288C196.529 68.3876 196.159 68.3327 195.894 68.1016C180.259 54.7596 176.871 51.5797 175.669 52.1948C181.466 49.2285 194.044 64.9167 199.879 61.9306C201.592 63.9876 200.997 66.0279 198.39 67.4352Z" fill="url(#paint5_linear_38_1724)"/>
</g>
<g opacity="0.21">
<path d="M152.107 68.4258C152.107 68.4258 154.01 82.805 154.767 87.8694C154.933 89.0068 154.542 89.8672 153.805 90.2442L148.222 93.1013C148.086 93.1707 147.911 93.1627 147.784 93.1055C147.647 93.0289 147.529 92.8938 147.517 92.7284C145.665 76.3921 143.504 69.0146 145.461 67.9153L149.532 65.832C151.335 64.9093 151.962 66.4219 152.107 68.4258Z" fill="url(#paint6_linear_38_1724)"/>
<path opacity="0.13" d="M152.107 68.4258C152.107 68.4258 154.01 82.805 154.767 87.8694C154.933 89.0068 154.542 89.8672 153.805 90.2442L148.222 93.1013C148.086 93.1707 147.911 93.1627 147.784 93.1055C147.647 93.0289 147.529 92.8938 147.517 92.7284C145.665 76.3921 143.504 69.0146 145.461 67.9153L149.532 65.832C151.335 64.9093 151.962 66.4219 152.107 68.4258Z" fill="url(#paint7_linear_38_1724)"/>
<path opacity="0.56" d="M145.655 67.8161C145.636 67.826 145.597 67.8459 145.577 67.8558C143.748 69.1096 145.89 76.4971 147.691 92.5905C147.712 92.7752 147.84 92.9297 147.997 92.9964C148.114 93.0342 148.26 93.0328 148.376 92.9733L148.202 93.0626C148.066 93.132 147.891 93.124 147.764 93.0668C147.627 92.9902 147.509 92.8551 147.497 92.6897C145.665 76.3921 143.504 69.0146 145.461 67.9153L145.655 67.8161Z" fill="url(#paint8_linear_38_1724)"/>
<path d="M168.309 83.1155C167.931 83.3333 167.243 83.6611 166.758 83.9091C166.448 84.0679 166.078 84.013 165.812 83.7819C149.658 69.9971 146.663 67.3002 145.461 67.9153L150.075 65.5542C152.751 64.1851 153.616 64.06 156.342 66.0878C158.921 68.0197 165.399 73.6036 169.031 76.8298C171.633 79.1411 171.236 81.5201 168.309 83.1155Z" fill="url(#paint9_linear_38_1724)"/>
<path opacity="0.56" d="M167.292 83.6607C167.098 83.7599 166.923 83.8492 166.768 83.9285C166.458 84.0873 166.087 84.0324 165.822 83.8013C149.658 69.9971 146.663 67.3002 145.461 67.9153L145.636 67.826C146.857 67.201 149.852 69.8979 165.977 83.722C166.243 83.953 166.613 84.0079 166.923 83.8492C167.059 83.7797 167.175 83.7202 167.292 83.6607Z" fill="url(#paint10_linear_38_1724)"/>
<path opacity="0.11" d="M168.308 83.1159C167.93 83.3336 167.242 83.6615 166.757 83.9095C166.447 84.0682 166.076 84.0134 165.811 83.7823C150.177 70.4403 146.788 67.2604 145.586 67.8755C151.383 64.9092 163.961 80.5974 169.797 77.6113C171.51 79.6683 170.915 81.7085 168.308 83.1159Z" fill="url(#paint11_linear_38_1724)"/>
</g>
<g opacity="0.21">
<path d="M122.107 85.4258C122.107 85.4258 124.01 99.805 124.767 104.869C124.933 106.007 124.542 106.867 123.805 107.244L118.222 110.101C118.086 110.171 117.911 110.163 117.784 110.106C117.647 110.029 117.529 109.894 117.517 109.728C115.665 93.3921 113.504 86.0146 115.461 84.9153L119.532 82.832C121.335 81.9093 121.962 83.4219 122.107 85.4258Z" fill="url(#paint12_linear_38_1724)"/>
<path opacity="0.13" d="M122.107 85.4258C122.107 85.4258 124.01 99.805 124.767 104.869C124.933 106.007 124.542 106.867 123.805 107.244L118.222 110.101C118.086 110.171 117.911 110.163 117.784 110.106C117.647 110.029 117.529 109.894 117.517 109.728C115.665 93.3921 113.504 86.0146 115.461 84.9153L119.532 82.832C121.335 81.9093 121.962 83.4219 122.107 85.4258Z" fill="url(#paint13_linear_38_1724)"/>
<path opacity="0.56" d="M115.655 84.8161C115.636 84.826 115.597 84.8459 115.577 84.8558C113.748 86.1096 115.89 93.4971 117.691 109.59C117.712 109.775 117.84 109.93 117.997 109.996C118.114 110.034 118.26 110.033 118.376 109.973L118.202 110.063C118.066 110.132 117.891 110.124 117.764 110.067C117.627 109.99 117.509 109.855 117.497 109.69C115.665 93.3921 113.504 86.0146 115.461 84.9153L115.655 84.8161Z" fill="url(#paint14_linear_38_1724)"/>
<path d="M138.309 100.115C137.931 100.333 137.243 100.661 136.758 100.909C136.448 101.068 136.078 101.013 135.812 100.782C119.658 86.9971 116.663 84.3002 115.461 84.9153L120.075 82.5542C122.751 81.1851 123.616 81.06 126.342 83.0878C128.921 85.0197 135.399 90.6036 139.031 93.8298C141.633 96.1411 141.236 98.5201 138.309 100.115Z" fill="url(#paint15_linear_38_1724)"/>
<path opacity="0.56" d="M137.292 100.661C137.098 100.76 136.923 100.849 136.768 100.929C136.458 101.087 136.087 101.032 135.822 100.801C119.658 86.9971 116.663 84.3002 115.461 84.9153L115.636 84.826C116.857 84.201 119.852 86.8979 135.977 100.722C136.243 100.953 136.613 101.008 136.923 100.849C137.059 100.78 137.175 100.72 137.292 100.661Z" fill="url(#paint16_linear_38_1724)"/>
<path opacity="0.11" d="M138.308 100.116C137.93 100.334 137.242 100.661 136.757 100.91C136.447 101.068 136.076 101.013 135.811 100.782C120.177 87.4403 116.788 84.2604 115.586 84.8755C121.383 81.9092 133.961 97.5974 139.797 94.6113C141.51 96.6683 140.915 98.7085 138.308 100.116Z" fill="url(#paint17_linear_38_1724)"/>
</g>
<g opacity="0.21">
<path d="M189.366 101.495C189.366 101.495 191.269 115.874 192.026 120.939C192.192 122.076 191.801 122.936 191.064 123.313L185.481 126.17C185.345 126.24 185.17 126.232 185.042 126.175C184.905 126.098 184.787 125.963 184.776 125.798C182.923 109.461 180.763 102.084 182.72 100.984L186.791 98.9011C188.594 97.9784 189.221 99.491 189.366 101.495Z" fill="url(#paint18_linear_38_1724)"/>
<path opacity="0.13" d="M189.366 101.495C189.366 101.495 191.269 115.874 192.026 120.939C192.192 122.076 191.801 122.936 191.064 123.313L185.481 126.17C185.345 126.24 185.17 126.232 185.042 126.175C184.905 126.098 184.787 125.963 184.776 125.798C182.923 109.461 180.763 102.084 182.72 100.984L186.791 98.9011C188.594 97.9784 189.221 99.491 189.366 101.495Z" fill="url(#paint19_linear_38_1724)"/>
<path opacity="0.56" d="M182.914 100.885C182.894 100.895 182.856 100.915 182.836 100.925C181.007 102.179 183.148 109.566 184.95 125.66C184.971 125.844 185.099 125.999 185.256 126.065C185.373 126.103 185.519 126.102 185.635 126.042L185.461 126.132C185.325 126.201 185.15 126.193 185.023 126.136C184.886 126.059 184.767 125.924 184.756 125.759C182.923 109.461 180.763 102.084 182.72 100.984L182.914 100.885Z" fill="url(#paint20_linear_38_1724)"/>
<path d="M205.568 116.184C205.19 116.402 204.502 116.73 204.017 116.978C203.707 117.137 203.336 117.082 203.071 116.851C186.917 103.066 183.922 100.369 182.72 100.984L187.334 98.623C190.01 97.254 190.875 97.1288 193.601 99.1567C196.179 101.089 202.657 106.672 206.29 109.899C208.892 112.21 208.494 114.589 205.568 116.184Z" fill="url(#paint21_linear_38_1724)"/>
<path opacity="0.56" d="M204.55 116.73C204.357 116.829 204.182 116.918 204.027 116.997C203.717 117.156 203.346 117.101 203.081 116.87C186.917 103.066 183.922 100.369 182.72 100.984L182.895 100.895C184.116 100.27 187.111 102.967 203.236 116.791C203.501 117.022 203.872 117.077 204.182 116.918C204.318 116.849 204.434 116.789 204.55 116.73Z" fill="url(#paint22_linear_38_1724)"/>
<path opacity="0.11" d="M205.567 116.185C205.189 116.403 204.5 116.731 204.016 116.979C203.706 117.137 203.335 117.082 203.07 116.851C187.436 103.509 184.047 100.329 182.845 100.945C188.642 97.9783 201.22 113.666 207.055 110.68C208.769 112.737 208.174 114.778 205.567 116.185Z" fill="url(#paint23_linear_38_1724)"/>
</g>
<g opacity="0.21">
<path d="M239.928 23.199C239.928 23.199 241.831 37.5782 242.587 42.6426C242.754 43.78 242.362 44.6404 241.625 45.0173L236.042 47.8745C235.906 47.9439 235.731 47.9359 235.604 47.8787C235.467 47.8021 235.349 47.667 235.338 47.5016C233.485 31.1653 231.324 23.7878 233.281 22.6885L237.353 20.6052C239.156 19.6825 239.783 21.1951 239.928 23.199Z" fill="url(#paint24_linear_38_1724)"/>
<path opacity="0.13" d="M239.928 23.199C239.928 23.199 241.831 37.5782 242.587 42.6426C242.754 43.78 242.362 44.6404 241.625 45.0173L236.042 47.8745C235.906 47.9439 235.731 47.9359 235.604 47.8787C235.467 47.8021 235.349 47.667 235.338 47.5016C233.485 31.1653 231.324 23.7878 233.281 22.6885L237.353 20.6052C239.156 19.6825 239.783 21.1951 239.928 23.199Z" fill="url(#paint25_linear_38_1724)"/>
<path opacity="0.56" d="M233.475 22.5893C233.456 22.5992 233.417 22.619 233.398 22.629C231.569 23.8828 233.71 31.2703 235.512 47.3637C235.533 47.5484 235.661 47.7029 235.817 47.7696C235.934 47.8074 236.08 47.806 236.197 47.7465L236.022 47.8357C235.887 47.9052 235.711 47.8971 235.584 47.84C235.447 47.7634 235.329 47.6282 235.318 47.4629C233.485 31.1653 231.324 23.7878 233.281 22.6885L233.475 22.5893Z" fill="url(#paint26_linear_38_1724)"/>
<path d="M256.129 37.8887C255.752 38.1065 255.063 38.4343 254.579 38.6823C254.268 38.8411 253.898 38.7862 253.633 38.5551C237.478 24.7703 234.484 22.0734 233.282 22.6885L237.896 20.3274C240.571 18.9583 241.437 18.8332 244.162 20.861C246.741 22.7929 253.219 28.3768 256.851 31.603C259.453 33.9143 259.056 36.2933 256.129 37.8887Z" fill="url(#paint27_linear_38_1724)"/>
<path opacity="0.56" d="M255.112 38.4339C254.918 38.5331 254.744 38.6224 254.588 38.7017C254.278 38.8604 253.908 38.8056 253.643 38.5745C237.478 24.7703 234.484 22.0734 233.282 22.6885L233.456 22.5992C234.678 21.9742 237.672 24.6711 253.798 38.4951C254.063 38.7262 254.433 38.7811 254.744 38.6224C254.879 38.5529 254.996 38.4934 255.112 38.4339Z" fill="url(#paint28_linear_38_1724)"/>
<path opacity="0.11" d="M256.128 37.889C255.75 38.1068 255.062 38.4347 254.577 38.6827C254.267 38.8414 253.897 38.7866 253.632 38.5555C237.997 25.2135 234.609 22.0336 233.407 22.6487C239.203 19.6824 251.782 35.3706 257.617 32.3845C259.33 34.4415 258.735 36.4817 256.128 37.889Z" fill="url(#paint29_linear_38_1724)"/>
</g>
<g opacity="0.21">
<path d="M247.104 71.9485C247.104 71.9485 249.007 86.3277 249.764 91.3921C249.93 92.5295 249.538 93.3899 248.802 93.7669L243.218 96.624C243.083 96.6935 242.907 96.6854 242.78 96.6282C242.643 96.5517 242.525 96.4165 242.514 96.2511C240.661 79.9149 238.501 72.5373 240.458 71.438L244.529 69.3547C246.332 68.432 246.959 69.9446 247.104 71.9485Z" fill="url(#paint30_linear_38_1724)"/>
<path opacity="0.13" d="M247.104 71.9485C247.104 71.9485 249.007 86.3277 249.764 91.3921C249.93 92.5295 249.538 93.3899 248.802 93.7669L243.218 96.624C243.083 96.6935 242.907 96.6854 242.78 96.6282C242.643 96.5517 242.525 96.4165 242.514 96.2511C240.661 79.9149 238.501 72.5373 240.458 71.438L244.529 69.3547C246.332 68.432 246.959 69.9446 247.104 71.9485Z" fill="url(#paint31_linear_38_1724)"/>
<path opacity="0.56" d="M240.652 71.3388C240.632 71.3487 240.593 71.3686 240.574 71.3785C238.745 72.6323 240.886 80.0198 242.688 96.1132C242.709 96.2979 242.837 96.4524 242.993 96.5191C243.111 96.5569 243.257 96.5555 243.373 96.496L243.199 96.5853C243.063 96.6547 242.887 96.6467 242.76 96.5895C242.623 96.5129 242.505 96.3778 242.494 96.2124C240.661 79.9149 238.501 72.5373 240.458 71.438L240.652 71.3388Z" fill="url(#paint32_linear_38_1724)"/>
<path d="M263.306 86.638C262.928 86.8557 262.239 87.1836 261.755 87.4316C261.445 87.5903 261.074 87.5355 260.809 87.3044C244.655 73.5196 241.66 70.8227 240.458 71.4377L245.072 69.0766C247.747 67.7076 248.613 67.5825 251.339 69.6103C253.917 71.5422 260.395 77.126 264.028 80.3522C266.629 82.6636 266.232 85.0426 263.306 86.638Z" fill="url(#paint33_linear_38_1724)"/>
<path opacity="0.56" d="M262.288 87.1831C262.094 87.2823 261.92 87.3716 261.765 87.451C261.455 87.6097 261.084 87.5549 260.819 87.3238C244.655 73.5196 241.66 70.8227 240.458 71.4377L240.632 71.3485C241.854 70.7235 244.849 73.4204 260.974 87.2444C261.239 87.4755 261.61 87.5303 261.92 87.3716C262.056 87.3022 262.172 87.2426 262.288 87.1831Z" fill="url(#paint34_linear_38_1724)"/>
<path opacity="0.11" d="M263.305 86.6386C262.927 86.8563 262.238 87.1842 261.754 87.4322C261.443 87.5909 261.073 87.5361 260.808 87.305C245.174 73.963 241.785 70.7831 240.583 71.3982C246.38 68.4319 258.958 84.1201 264.793 81.134C266.506 83.191 265.911 85.2312 263.305 86.6386Z" fill="url(#paint35_linear_38_1724)"/>
</g>
<g opacity="0.21">
<path d="M211.058 37.972C211.058 37.972 212.961 52.3511 213.718 57.4156C213.884 58.5529 213.493 59.4133 212.756 59.7903L207.173 62.6474C207.037 62.7169 206.862 62.7088 206.735 62.6517C206.598 62.5751 206.48 62.4399 206.468 62.2746C204.616 45.9383 202.455 38.5608 204.412 37.4614L208.483 35.3781C210.286 34.4555 210.914 35.9681 211.058 37.972Z" fill="url(#paint36_linear_38_1724)"/>
<path opacity="0.13" d="M211.058 37.972C211.058 37.972 212.961 52.3511 213.718 57.4156C213.884 58.5529 213.493 59.4133 212.756 59.7903L207.173 62.6474C207.037 62.7169 206.862 62.7088 206.735 62.6517C206.598 62.5751 206.48 62.4399 206.468 62.2746C204.616 45.9383 202.455 38.5608 204.412 37.4614L208.483 35.3781C210.286 34.4555 210.914 35.9681 211.058 37.972Z" fill="url(#paint37_linear_38_1724)"/>
<path opacity="0.56" d="M204.606 37.3622C204.587 37.3722 204.548 37.392 204.529 37.4019C202.699 38.6558 204.841 46.0432 206.642 62.1366C206.664 62.3214 206.792 62.4759 206.948 62.5425C207.065 62.5803 207.211 62.5789 207.328 62.5194L207.153 62.6087C207.017 62.6781 206.842 62.6701 206.715 62.6129C206.578 62.5363 206.46 62.4012 206.449 62.2358C204.616 45.9383 202.455 38.5608 204.412 37.4614L204.606 37.3622Z" fill="url(#paint38_linear_38_1724)"/>
<path d="M227.26 52.6616C226.883 52.8794 226.194 53.2073 225.709 53.4553C225.399 53.614 225.029 53.5592 224.764 53.3281C208.609 39.5433 205.615 36.8463 204.413 37.4614L209.027 35.1003C211.702 33.7313 212.567 33.6061 215.293 35.634C217.872 37.5659 224.35 43.1497 227.982 46.3759C230.584 48.6872 230.187 51.0663 227.26 52.6616Z" fill="url(#paint39_linear_38_1724)"/>
<path opacity="0.56" d="M226.243 53.2068C226.049 53.306 225.874 53.3953 225.719 53.4747C225.409 53.6334 225.039 53.5785 224.774 53.3475C208.609 39.5433 205.615 36.8463 204.413 37.4614L204.587 37.3721C205.808 36.7471 208.803 39.4441 224.929 53.2681C225.194 53.4992 225.564 53.554 225.874 53.3953C226.01 53.3259 226.126 53.2663 226.243 53.2068Z" fill="url(#paint40_linear_38_1724)"/>
<path opacity="0.11" d="M227.259 52.6622C226.881 52.88 226.193 53.2079 225.708 53.4559C225.398 53.6146 225.027 53.5598 224.762 53.3287C209.128 39.9867 205.74 36.8068 204.538 37.4219C210.334 34.4556 222.912 50.1438 228.748 47.1577C230.461 49.2147 229.866 51.2549 227.259 52.6622Z" fill="url(#paint41_linear_38_1724)"/>
</g>
<g opacity="0.21">
<path d="M218.235 86.7217C218.235 86.7217 220.138 101.101 220.895 106.165C221.061 107.303 220.67 108.163 219.933 108.54L214.35 111.397C214.214 111.467 214.039 111.459 213.912 111.401C213.775 111.325 213.656 111.19 213.645 111.024C211.793 94.688 209.632 87.3105 211.589 86.2112L215.66 84.1279C217.463 83.2052 218.09 84.7178 218.235 86.7217Z" fill="url(#paint42_linear_38_1724)"/>
<path opacity="0.13" d="M218.235 86.7217C218.235 86.7217 220.138 101.101 220.895 106.165C221.061 107.303 220.67 108.163 219.933 108.54L214.35 111.397C214.214 111.467 214.039 111.459 213.912 111.401C213.775 111.325 213.656 111.19 213.645 111.024C211.793 94.688 209.632 87.3105 211.589 86.2112L215.66 84.1279C217.463 83.2052 218.09 84.7178 218.235 86.7217Z" fill="url(#paint43_linear_38_1724)"/>
<path opacity="0.56" d="M211.783 86.112C211.764 86.1219 211.725 86.1418 211.705 86.1517C209.876 87.4055 212.018 94.793 213.819 110.886C213.84 111.071 213.968 111.226 214.125 111.292C214.242 111.33 214.388 111.329 214.504 111.269L214.33 111.358C214.194 111.428 214.019 111.42 213.892 111.363C213.755 111.286 213.637 111.151 213.625 110.986C211.793 94.688 209.632 87.3105 211.589 86.2112L211.783 86.112Z" fill="url(#paint44_linear_38_1724)"/>
<path d="M234.437 101.411C234.059 101.629 233.371 101.957 232.886 102.205C232.576 102.364 232.205 102.309 231.94 102.078C215.786 88.2928 212.791 85.5959 211.589 86.2109L216.203 83.8498C218.879 82.4808 219.744 82.3556 222.47 84.3835C225.049 86.3154 231.527 91.8992 235.159 95.1254C237.761 97.4368 237.364 99.8158 234.437 101.411Z" fill="url(#paint45_linear_38_1724)"/>
<path opacity="0.56" d="M233.42 101.956C233.226 102.056 233.051 102.145 232.896 102.224C232.586 102.383 232.215 102.328 231.95 102.097C215.786 88.2928 212.791 85.5959 211.589 86.2109L211.764 86.1217C212.985 85.4967 215.98 88.1936 232.105 102.018C232.37 102.249 232.741 102.304 233.051 102.145C233.187 102.075 233.303 102.016 233.42 101.956Z" fill="url(#paint46_linear_38_1724)"/>
<path opacity="0.11" d="M234.436 101.412C234.058 101.63 233.37 101.957 232.885 102.205C232.575 102.364 232.204 102.309 231.939 102.078C216.305 88.7362 212.916 85.5563 211.714 86.1714C217.511 83.2051 230.089 98.8933 235.925 95.9072C237.638 97.9642 237.043 100.004 234.436 101.412Z" fill="url(#paint47_linear_38_1724)"/>
</g>
<g opacity="0.21">
<path d="M268.797 8.42584C268.797 8.42584 270.7 22.805 271.457 27.8694C271.623 29.0068 271.231 29.8672 270.495 30.2442L264.911 33.1013C264.776 33.1707 264.6 33.1627 264.473 33.1055C264.336 33.0289 264.218 32.8938 264.207 32.7284C262.354 16.3921 260.193 9.01462 262.151 7.9153L266.222 5.83196C268.025 4.90934 268.652 6.42191 268.797 8.42584Z" fill="url(#paint48_linear_38_1724)"/>
<path opacity="0.13" d="M268.797 8.42584C268.797 8.42584 270.7 22.805 271.457 27.8694C271.623 29.0068 271.231 29.8672 270.495 30.2442L264.911 33.1013C264.776 33.1707 264.6 33.1627 264.473 33.1055C264.336 33.0289 264.218 32.8938 264.207 32.7284C262.354 16.3921 260.193 9.01462 262.151 7.9153L266.222 5.83196C268.025 4.90934 268.652 6.42191 268.797 8.42584Z" fill="url(#paint49_linear_38_1724)"/>
<path opacity="0.56" d="M262.344 7.81609C262.325 7.82601 262.286 7.84585 262.267 7.85578C260.438 9.10962 262.579 16.4971 264.381 32.5905C264.402 32.7752 264.53 32.9297 264.686 32.9964C264.804 33.0342 264.95 33.0328 265.066 32.9733L264.891 33.0626C264.756 33.132 264.58 33.124 264.453 33.0668C264.316 32.9902 264.198 32.8551 264.187 32.6897C262.354 16.3921 260.193 9.01462 262.151 7.9153L262.344 7.81609Z" fill="url(#paint50_linear_38_1724)"/>
<path d="M284.999 23.1155C284.621 23.3333 283.932 23.6611 283.448 23.9091C283.138 24.0679 282.767 24.013 282.502 23.7819C266.348 9.99713 263.353 7.3002 262.151 7.91528L266.765 5.55417C269.44 4.18512 270.306 4.05999 273.031 6.08782C275.61 8.01971 282.088 13.6036 285.721 16.8298C288.322 19.1411 287.925 21.5201 284.999 23.1155Z" fill="url(#paint51_linear_38_1724)"/>
<path opacity="0.56" d="M283.981 23.6607C283.787 23.7599 283.613 23.8492 283.458 23.9285C283.147 24.0873 282.777 24.0324 282.512 23.8013C266.348 9.99713 263.353 7.3002 262.151 7.91528L262.325 7.826C263.547 7.201 266.541 9.89792 282.667 23.722C282.932 23.953 283.303 24.0079 283.613 23.8492C283.748 23.7797 283.865 23.7202 283.981 23.6607Z" fill="url(#paint52_linear_38_1724)"/>
<path opacity="0.11" d="M284.997 23.1161C284.62 23.3339 283.931 23.6617 283.446 23.9097C283.136 24.0685 282.766 24.0136 282.501 23.7825C266.866 10.4405 263.478 7.26065 262.276 7.87573C268.072 4.90945 280.651 20.5976 286.486 17.6115C288.199 19.6685 287.604 21.7088 284.997 23.1161Z" fill="url(#paint53_linear_38_1724)"/>
</g>
<g opacity="0.21">
<path d="M275.973 57.1753C275.973 57.1753 277.876 71.5545 278.633 76.6189C278.799 77.7563 278.408 78.6167 277.671 78.9937L272.088 81.8508C271.952 81.9203 271.776 81.9122 271.649 81.855C271.512 81.7785 271.394 81.6433 271.383 81.4779C269.53 65.1417 267.37 57.7641 269.327 56.6648L273.398 54.5815C275.201 53.6589 275.828 55.1714 275.973 57.1753Z" fill="url(#paint54_linear_38_1724)"/>
<path opacity="0.13" d="M275.973 57.1753C275.973 57.1753 277.876 71.5545 278.633 76.6189C278.799 77.7563 278.408 78.6167 277.671 78.9937L272.088 81.8508C271.952 81.9203 271.776 81.9122 271.649 81.855C271.512 81.7785 271.394 81.6433 271.383 81.4779C269.53 65.1417 267.37 57.7641 269.327 56.6648L273.398 54.5815C275.201 53.6589 275.828 55.1714 275.973 57.1753Z" fill="url(#paint55_linear_38_1724)"/>
<path opacity="0.56" d="M269.521 56.5656C269.501 56.5755 269.463 56.5954 269.443 56.6053C267.614 57.8591 269.755 65.2466 271.557 81.34C271.578 81.5247 271.706 81.6793 271.863 81.7459C271.98 81.7837 272.126 81.7823 272.242 81.7228L272.068 81.8121C271.932 81.8815 271.757 81.8735 271.63 81.8163C271.492 81.7397 271.374 81.6046 271.363 81.4392C269.53 65.1417 267.37 57.7641 269.327 56.6648L269.521 56.5656Z" fill="url(#paint56_linear_38_1724)"/>
<path d="M292.175 71.8648C291.797 72.0826 291.109 72.4104 290.624 72.6584C290.314 72.8171 289.943 72.7623 289.678 72.5312C273.524 58.7464 270.529 56.0495 269.327 56.6646L273.941 54.3034C276.616 52.9344 277.482 52.8093 280.208 54.8371C282.786 56.769 289.264 62.3528 292.897 65.579C295.499 67.8904 295.101 70.2694 292.175 71.8648Z" fill="url(#paint57_linear_38_1724)"/>
<path opacity="0.56" d="M291.157 72.4099C290.963 72.5091 290.789 72.5984 290.634 72.6778C290.324 72.8365 289.953 72.7817 289.688 72.5506C273.524 58.7464 270.529 56.0495 269.327 56.6646L269.502 56.5753C270.723 55.9503 273.718 58.6472 289.843 72.4712C290.108 72.7023 290.479 72.7572 290.789 72.5984C290.925 72.529 291.041 72.4695 291.157 72.4099Z" fill="url(#paint58_linear_38_1724)"/>
<path opacity="0.11" d="M292.174 71.8654C291.796 72.0832 291.107 72.411 290.623 72.659C290.313 72.8177 289.942 72.7629 289.677 72.5318C274.043 59.1898 270.654 56.0099 269.452 56.625C275.249 53.6587 287.827 69.3469 293.662 66.3608C295.375 68.4178 294.78 70.458 292.174 71.8654Z" fill="url(#paint59_linear_38_1724)"/>
</g>
<g opacity="0.21">
<path d="M199.07 93.4096C199.07 93.4096 197.168 79.0305 196.411 73.966C196.244 72.8287 196.636 71.9683 197.373 71.5913L202.956 68.7341C203.092 68.6647 203.267 68.6728 203.394 68.7299C203.531 68.8065 203.649 68.9417 203.66 69.107C205.513 85.4433 207.674 92.8208 205.717 93.9202L201.645 96.0035C199.843 96.9261 199.215 95.4135 199.07 93.4096Z" fill="url(#paint60_linear_38_1724)"/>
<path opacity="0.13" d="M199.07 93.4096C199.07 93.4096 197.168 79.0305 196.411 73.966C196.244 72.8287 196.636 71.9683 197.373 71.5913L202.956 68.7341C203.092 68.6647 203.267 68.6728 203.394 68.7299C203.531 68.8065 203.649 68.9417 203.66 69.107C205.513 85.4433 207.674 92.8208 205.717 93.9202L201.645 96.0035C199.843 96.9261 199.215 95.4135 199.07 93.4096Z" fill="url(#paint61_linear_38_1724)"/>
<path opacity="0.56" d="M205.523 94.0194C205.542 94.0094 205.581 93.9896 205.6 93.9797C207.429 92.7258 205.288 85.3384 203.486 69.245C203.465 69.0602 203.337 68.9057 203.181 68.8391C203.064 68.8013 202.918 68.8027 202.801 68.8622L202.976 68.7729C203.111 68.7035 203.287 68.7115 203.414 68.7687C203.551 68.8452 203.669 68.9804 203.68 69.1458C205.513 85.4433 207.674 92.8208 205.717 93.9202L205.523 94.0194Z" fill="url(#paint62_linear_38_1724)"/>
<path d="M182.869 78.72C183.246 78.5022 183.935 78.1743 184.419 77.9263C184.73 77.7676 185.1 77.8224 185.365 78.0535C201.52 91.8383 204.514 94.5352 205.716 93.9202L201.102 96.2813C198.427 97.6503 197.561 97.7755 194.836 95.7476C192.257 93.8157 185.779 88.2319 182.147 85.0057C179.545 82.6944 179.942 80.3153 182.869 78.72Z" fill="url(#paint63_linear_38_1724)"/>
<path opacity="0.56" d="M183.886 78.1748C184.08 78.0756 184.254 77.9863 184.41 77.9069C184.72 77.7482 185.09 77.803 185.355 78.0341C201.52 91.8383 204.514 94.5352 205.716 93.9202L205.542 94.0095C204.32 94.6345 201.326 91.9375 185.2 78.1135C184.935 77.8824 184.565 77.8276 184.254 77.9863C184.119 78.0557 184.002 78.1153 183.886 78.1748Z" fill="url(#paint64_linear_38_1724)"/>
<path opacity="0.11" d="M182.87 78.7196C183.248 78.5018 183.936 78.174 184.421 77.9259C184.731 77.7672 185.101 77.8221 185.366 78.0532C201.001 91.3952 204.389 94.575 205.591 93.96C199.795 96.9262 187.216 81.2381 181.381 84.2242C179.668 82.1672 180.263 80.1269 182.87 78.7196Z" fill="url(#paint65_linear_38_1724)"/>
</g>
<g opacity="0.21">
<path d="M168.988 109.09C168.988 109.09 167.085 94.7111 166.328 89.6467C166.162 88.5093 166.553 87.6489 167.29 87.272L172.873 84.4148C173.009 84.3454 173.184 84.3534 173.312 84.4106C173.449 84.4872 173.567 84.6223 173.578 84.7877C175.431 101.124 177.591 108.501 175.634 109.601L171.563 111.684C169.76 112.607 169.133 111.094 168.988 109.09Z" fill="url(#paint66_linear_38_1724)"/>
<path opacity="0.13" d="M168.988 109.09C168.988 109.09 167.085 94.7111 166.328 89.6467C166.162 88.5093 166.553 87.6489 167.29 87.272L172.873 84.4148C173.009 84.3454 173.184 84.3534 173.312 84.4106C173.449 84.4872 173.567 84.6223 173.578 84.7877C175.431 101.124 177.591 108.501 175.634 109.601L171.563 111.684C169.76 112.607 169.133 111.094 168.988 109.09Z" fill="url(#paint67_linear_38_1724)"/>
<path opacity="0.56" d="M175.44 109.7C175.46 109.69 175.498 109.67 175.518 109.66C177.347 108.406 175.206 101.019 173.404 84.9256C173.383 84.7409 173.255 84.5864 173.098 84.5197C172.981 84.4819 172.835 84.4833 172.719 84.5428L172.893 84.4536C173.029 84.3841 173.204 84.3922 173.331 84.4494C173.468 84.5259 173.587 84.6611 173.598 84.8264C175.431 101.124 177.591 108.501 175.634 109.601L175.44 109.7Z" fill="url(#paint68_linear_38_1724)"/>
<path d="M152.786 94.4006C153.164 94.1828 153.852 93.855 154.337 93.607C154.647 93.4482 155.018 93.5031 155.283 93.7342C171.437 107.519 174.432 110.216 175.634 109.601L171.02 111.962C168.344 113.331 167.479 113.456 164.753 111.428C162.175 109.496 155.697 103.913 152.064 100.686C149.462 98.375 149.86 95.996 152.786 94.4006Z" fill="url(#paint69_linear_38_1724)"/>
<path opacity="0.56" d="M153.804 93.8555C153.997 93.7562 154.172 93.667 154.327 93.5876C154.637 93.4289 155.008 93.4837 155.273 93.7148C171.437 107.519 174.432 110.216 175.634 109.601L175.459 109.69C174.238 110.315 171.243 107.618 155.118 93.7942C154.853 93.5631 154.482 93.5082 154.172 93.667C154.036 93.7364 153.92 93.7959 153.804 93.8555Z" fill="url(#paint70_linear_38_1724)"/>
<path opacity="0.11" d="M152.787 94.4003C153.165 94.1825 153.854 93.8546 154.338 93.6066C154.648 93.4479 155.019 93.5027 155.284 93.7338C170.918 107.076 174.307 110.256 175.509 109.641C169.712 112.607 157.134 96.9187 151.299 99.9048C149.585 97.8478 150.18 95.8076 152.787 94.4003Z" fill="url(#paint71_linear_38_1724)"/>
</g>
<g opacity="0.21">
<path d="M138.988 126.09C138.988 126.09 137.085 111.711 136.328 106.647C136.162 105.509 136.553 104.649 137.29 104.272L142.873 101.415C143.009 101.345 143.184 101.353 143.312 101.411C143.449 101.487 143.567 101.622 143.578 101.788C145.431 118.124 147.591 125.501 145.634 126.601L141.563 128.684C139.76 129.607 139.133 128.094 138.988 126.09Z" fill="url(#paint72_linear_38_1724)"/>
<path opacity="0.13" d="M138.988 126.09C138.988 126.09 137.085 111.711 136.328 106.647C136.162 105.509 136.553 104.649 137.29 104.272L142.873 101.415C143.009 101.345 143.184 101.353 143.312 101.411C143.449 101.487 143.567 101.622 143.578 101.788C145.431 118.124 147.591 125.501 145.634 126.601L141.563 128.684C139.76 129.607 139.133 128.094 138.988 126.09Z" fill="url(#paint73_linear_38_1724)"/>
<path opacity="0.56" d="M145.44 126.7C145.46 126.69 145.498 126.67 145.518 126.66C147.347 125.406 145.206 118.019 143.404 101.926C143.383 101.741 143.255 101.586 143.098 101.52C142.981 101.482 142.835 101.483 142.719 101.543L142.893 101.454C143.029 101.384 143.204 101.392 143.331 101.449C143.468 101.526 143.587 101.661 143.598 101.826C145.431 118.124 147.591 125.501 145.634 126.601L145.44 126.7Z" fill="url(#paint74_linear_38_1724)"/>
<path d="M122.786 111.401C123.164 111.183 123.852 110.855 124.337 110.607C124.647 110.448 125.018 110.503 125.283 110.734C141.437 124.519 144.432 127.216 145.634 126.601L141.02 128.962C138.344 130.331 137.479 130.456 134.753 128.428C132.175 126.496 125.697 120.913 122.064 117.686C119.462 115.375 119.86 112.996 122.786 111.401Z" fill="url(#paint75_linear_38_1724)"/>
<path opacity="0.56" d="M123.804 110.855C123.997 110.756 124.172 110.667 124.327 110.588C124.637 110.429 125.008 110.484 125.273 110.715C141.437 124.519 144.432 127.216 145.634 126.601L145.459 126.69C144.238 127.315 141.243 124.618 125.118 110.794C124.853 110.563 124.482 110.508 124.172 110.667C124.036 110.736 123.92 110.796 123.804 110.855Z" fill="url(#paint76_linear_38_1724)"/>
<path opacity="0.11" d="M122.787 111.4C123.165 111.182 123.854 110.855 124.338 110.607C124.648 110.448 125.019 110.503 125.284 110.734C140.918 124.076 144.307 127.256 145.509 126.641C139.712 129.607 127.134 113.919 121.299 116.905C119.585 114.848 120.18 112.808 122.787 111.4Z" fill="url(#paint77_linear_38_1724)"/>
</g>
<g opacity="0.21">
<path d="M256.808 63.8632C256.808 63.8632 254.905 49.4841 254.148 44.4196C253.982 43.2823 254.374 42.4219 255.11 42.0449L260.694 39.1878C260.829 39.1183 261.005 39.1264 261.132 39.1836C261.269 39.2601 261.387 39.3953 261.398 39.5606C263.251 55.8969 265.412 63.2744 263.454 64.3738L259.383 66.4571C257.58 67.3797 256.953 65.8672 256.808 63.8632Z" fill="url(#paint78_linear_38_1724)"/>
<path opacity="0.13" d="M256.808 63.8632C256.808 63.8632 254.905 49.4841 254.148 44.4196C253.982 43.2823 254.374 42.4219 255.11 42.0449L260.694 39.1878C260.829 39.1183 261.005 39.1264 261.132 39.1836C261.269 39.2601 261.387 39.3953 261.398 39.5606C263.251 55.8969 265.412 63.2744 263.454 64.3738L259.383 66.4571C257.58 67.3797 256.953 65.8672 256.808 63.8632Z" fill="url(#paint79_linear_38_1724)"/>
<path opacity="0.56" d="M263.261 64.473C263.28 64.463 263.319 64.4432 263.338 64.4333C265.167 63.1794 263.026 55.792 261.224 39.6986C261.203 39.5138 261.075 39.3593 260.919 39.2927C260.801 39.2549 260.655 39.2563 260.539 39.3158L260.714 39.2265C260.849 39.1571 261.025 39.1651 261.152 39.2223C261.289 39.2989 261.407 39.434 261.418 39.5994C263.251 55.8969 265.412 63.2744 263.454 64.3738L263.261 64.473Z" fill="url(#paint80_linear_38_1724)"/>
<path d="M240.606 49.1736C240.984 48.9558 241.673 48.6279 242.157 48.3799C242.467 48.2212 242.838 48.276 243.103 48.5071C259.257 62.2919 262.252 64.9889 263.454 64.3738L258.84 66.7349C256.165 68.1039 255.299 68.2291 252.574 66.2012C249.995 64.2694 243.517 58.6855 239.884 55.4593C237.283 53.148 237.68 50.7689 240.606 49.1736Z" fill="url(#paint81_linear_38_1724)"/>
<path opacity="0.56" d="M241.624 48.6284C241.818 48.5292 241.992 48.4399 242.147 48.3605C242.458 48.2018 242.828 48.2567 243.093 48.4877C259.257 62.2919 262.252 64.9889 263.454 64.3738L263.28 64.4631C262.058 65.0881 259.064 62.3911 242.938 48.5671C242.673 48.336 242.302 48.2812 241.992 48.4399C241.857 48.5094 241.74 48.5689 241.624 48.6284Z" fill="url(#paint82_linear_38_1724)"/>
<path opacity="0.11" d="M240.608 49.1732C240.985 48.9554 241.674 48.6276 242.159 48.3796C242.469 48.2208 242.839 48.2757 243.104 48.5068C258.739 61.8488 262.127 65.0287 263.329 64.4136C257.533 67.3799 244.954 51.6917 239.119 54.6778C237.406 52.6208 238.001 50.5805 240.608 49.1732Z" fill="url(#paint83_linear_38_1724)"/>
</g>
<g opacity="0.21">
<path d="M263.985 112.613C263.985 112.613 262.082 98.2336 261.325 93.1692C261.159 92.0318 261.55 91.1714 262.287 90.7944L267.87 87.9373C268.006 87.8678 268.181 87.8759 268.308 87.9331C268.445 88.0096 268.563 88.1448 268.575 88.3102C270.427 104.646 272.588 112.024 270.631 113.123L266.56 115.207C264.757 116.129 264.129 114.617 263.985 112.613Z" fill="url(#paint84_linear_38_1724)"/>
<path opacity="0.13" d="M263.985 112.613C263.985 112.613 262.082 98.2336 261.325 93.1692C261.159 92.0318 261.55 91.1714 262.287 90.7944L267.87 87.9373C268.006 87.8678 268.181 87.8759 268.308 87.9331C268.445 88.0096 268.563 88.1448 268.575 88.3102C270.427 104.646 272.588 112.024 270.631 113.123L266.56 115.207C264.757 116.129 264.129 114.617 263.985 112.613Z" fill="url(#paint85_linear_38_1724)"/>
<path opacity="0.56" d="M270.437 113.222C270.456 113.213 270.495 113.193 270.514 113.183C272.344 111.929 270.202 104.542 268.4 88.4481C268.379 88.2634 268.251 88.1088 268.095 88.0422C267.978 88.0044 267.832 88.0058 267.715 88.0653L267.89 87.976C268.026 87.9066 268.201 87.9146 268.328 87.9718C268.465 88.0484 268.583 88.1835 268.594 88.3489C270.427 104.646 272.588 112.024 270.631 113.123L270.437 113.222Z" fill="url(#paint86_linear_38_1724)"/>
<path d="M247.783 97.9231C248.16 97.7053 248.849 97.3774 249.334 97.1294C249.644 96.9707 250.014 97.0255 250.279 97.2566C266.434 111.041 269.428 113.738 270.63 113.123L266.016 115.484C263.341 116.853 262.475 116.979 259.75 114.951C257.171 113.019 250.693 107.435 247.061 104.209C244.459 101.897 244.856 99.5184 247.783 97.9231Z" fill="url(#paint87_linear_38_1724)"/>
<path opacity="0.56" d="M248.8 97.3779C248.994 97.2787 249.169 97.1894 249.324 97.1101C249.634 96.9513 250.004 97.0062 250.269 97.2373C266.434 111.041 269.428 113.738 270.63 113.123L270.456 113.213C269.235 113.838 266.24 111.141 250.114 97.3166C249.849 97.0855 249.479 97.0307 249.169 97.1894C249.033 97.2589 248.917 97.3184 248.8 97.3779Z" fill="url(#paint88_linear_38_1724)"/>
<path opacity="0.11" d="M247.784 97.9227C248.162 97.7049 248.85 97.3771 249.335 97.1291C249.645 96.9703 250.016 97.0252 250.281 97.2563C265.915 110.598 269.303 113.778 270.505 113.163C264.709 116.129 252.131 100.441 246.295 103.427C244.582 101.37 245.177 99.3301 247.784 97.9227Z" fill="url(#paint89_linear_38_1724)"/>
</g>
<g opacity="0.21">
<path d="M227.939 78.6364C227.939 78.6364 226.036 64.2573 225.279 59.1928C225.113 58.0555 225.505 57.1951 226.241 56.8181L231.825 53.961C231.96 53.8915 232.136 53.8996 232.263 53.9567C232.4 54.0333 232.518 54.1685 232.529 54.3338C234.382 70.6701 236.542 78.0476 234.585 79.147L230.514 81.2303C228.711 82.1529 228.084 80.6403 227.939 78.6364Z" fill="url(#paint90_linear_38_1724)"/>
<path opacity="0.13" d="M227.939 78.6364C227.939 78.6364 226.036 64.2573 225.279 59.1928C225.113 58.0555 225.505 57.1951 226.241 56.8181L231.825 53.961C231.96 53.8915 232.136 53.8996 232.263 53.9567C232.4 54.0333 232.518 54.1685 232.529 54.3338C234.382 70.6701 236.542 78.0476 234.585 79.147L230.514 81.2303C228.711 82.1529 228.084 80.6403 227.939 78.6364Z" fill="url(#paint91_linear_38_1724)"/>
<path opacity="0.56" d="M234.391 79.2462C234.411 79.2362 234.45 79.2164 234.469 79.2065C236.298 77.9526 234.157 70.5652 232.355 54.4718C232.334 54.287 232.206 54.1325 232.05 54.0659C231.932 54.0281 231.786 54.0295 231.67 54.089L231.844 53.9997C231.98 53.9303 232.155 53.9383 232.283 53.9955C232.42 54.0721 232.538 54.2072 232.549 54.3726C234.382 70.6701 236.542 78.0476 234.585 79.147L234.391 79.2462Z" fill="url(#paint92_linear_38_1724)"/>
<path d="M211.737 63.9468C212.115 63.729 212.803 63.4011 213.288 63.1531C213.598 62.9944 213.969 63.0492 214.234 63.2803C230.388 77.0651 233.383 79.7621 234.585 79.147L229.971 81.5081C227.296 82.8771 226.43 83.0023 223.704 80.9744C221.126 79.0425 214.648 73.4587 211.015 70.2325C208.414 67.9212 208.811 65.5421 211.737 63.9468Z" fill="url(#paint93_linear_38_1724)"/>
<path opacity="0.56" d="M212.755 63.4016C212.949 63.3024 213.123 63.2131 213.278 63.1337C213.588 62.975 213.959 63.0299 214.224 63.2609C230.388 77.0651 233.383 79.7621 234.585 79.147L234.41 79.2363C233.189 79.8613 230.194 77.1643 214.069 63.3403C213.804 63.1092 213.433 63.0544 213.123 63.2131C212.987 63.2825 212.871 63.3421 212.755 63.4016Z" fill="url(#paint94_linear_38_1724)"/>
<path opacity="0.11" d="M211.738 63.9462C212.116 63.7284 212.805 63.4005 213.289 63.1525C213.6 62.9938 213.97 63.0486 214.235 63.2797C229.869 76.6217 233.258 79.8016 234.46 79.1865C228.663 82.1528 216.085 66.4646 210.25 69.4507C208.537 67.3937 209.132 65.3535 211.738 63.9462Z" fill="url(#paint95_linear_38_1724)"/>
</g>
<g opacity="0.21">
<path d="M235.116 127.386C235.116 127.386 233.213 113.007 232.456 107.942C232.29 106.805 232.681 105.944 233.418 105.567L239.001 102.71C239.137 102.641 239.312 102.649 239.44 102.706C239.577 102.783 239.695 102.918 239.706 103.083C241.558 119.419 243.719 126.797 241.762 127.896L237.691 129.98C235.888 130.902 235.261 129.39 235.116 127.386Z" fill="url(#paint96_linear_38_1724)"/>
<path opacity="0.13" d="M235.116 127.386C235.116 127.386 233.213 113.007 232.456 107.942C232.29 106.805 232.681 105.944 233.418 105.567L239.001 102.71C239.137 102.641 239.312 102.649 239.44 102.706C239.577 102.783 239.695 102.918 239.706 103.083C241.558 119.419 243.719 126.797 241.762 127.896L237.691 129.98C235.888 130.902 235.261 129.39 235.116 127.386Z" fill="url(#paint97_linear_38_1724)"/>
<path opacity="0.56" d="M241.568 127.995C241.588 127.986 241.626 127.966 241.646 127.956C243.475 126.702 241.334 119.314 239.532 103.221C239.511 103.036 239.383 102.882 239.226 102.815C239.109 102.777 238.963 102.779 238.847 102.838L239.021 102.749C239.157 102.68 239.332 102.688 239.459 102.745C239.596 102.821 239.714 102.956 239.726 103.122C241.558 119.419 243.719 126.797 241.762 127.896L241.568 127.995Z" fill="url(#paint98_linear_38_1724)"/>
<path d="M218.914 112.696C219.292 112.478 219.98 112.15 220.465 111.902C220.775 111.744 221.146 111.798 221.411 112.03C237.565 125.814 240.56 128.511 241.762 127.896L237.148 130.257C234.472 131.626 233.607 131.752 230.881 129.724C228.302 127.792 221.824 122.208 218.192 118.982C215.59 116.67 215.988 114.291 218.914 112.696Z" fill="url(#paint99_linear_38_1724)"/>
<path opacity="0.56" d="M219.932 112.151C220.125 112.052 220.3 111.962 220.455 111.883C220.765 111.724 221.136 111.779 221.401 112.01C237.565 125.814 240.56 128.511 241.762 127.896L241.587 127.986C240.366 128.611 237.371 125.914 221.246 112.09C220.981 111.858 220.61 111.804 220.3 111.962C220.164 112.032 220.048 112.091 219.932 112.151Z" fill="url(#paint100_linear_38_1724)"/>
<path opacity="0.11" d="M218.915 112.696C219.293 112.478 219.981 112.15 220.466 111.902C220.776 111.743 221.147 111.798 221.412 112.029C237.046 125.371 240.435 128.551 241.637 127.936C235.84 130.902 223.262 115.214 217.427 118.2C215.713 116.143 216.308 114.103 218.915 112.696Z" fill="url(#paint101_linear_38_1724)"/>
</g>
<g opacity="0.21">
<path d="M285.677 49.09C285.677 49.09 283.774 34.7109 283.018 29.6465C282.851 28.5091 283.243 27.6487 283.98 27.2717L289.563 24.4146C289.699 24.3451 289.874 24.3532 290.001 24.4104C290.138 24.4869 290.256 24.6221 290.267 24.7875C292.12 41.1237 294.281 48.5012 292.324 49.6006L288.252 51.6839C286.449 52.6065 285.822 51.094 285.677 49.09Z" fill="url(#paint102_linear_38_1724)"/>
<path opacity="0.13" d="M285.677 49.09C285.677 49.09 283.774 34.7109 283.018 29.6465C282.851 28.5091 283.243 27.6487 283.98 27.2717L289.563 24.4146C289.699 24.3451 289.874 24.3532 290.001 24.4104C290.138 24.4869 290.256 24.6221 290.267 24.7875C292.12 41.1237 294.281 48.5012 292.324 49.6006L288.252 51.6839C286.449 52.6065 285.822 51.094 285.677 49.09Z" fill="url(#paint103_linear_38_1724)"/>
<path opacity="0.56" d="M292.13 49.6998C292.149 49.6899 292.188 49.67 292.207 49.6601C294.036 48.4062 291.895 41.0188 290.093 24.9254C290.072 24.7407 289.944 24.5861 289.788 24.5195C289.671 24.4817 289.525 24.4831 289.408 24.5426L289.583 24.4533C289.718 24.3839 289.894 24.3919 290.021 24.4491C290.158 24.5257 290.276 24.6608 290.287 24.8262C292.12 41.1237 294.281 48.5012 292.324 49.6006L292.13 49.6998Z" fill="url(#paint104_linear_38_1724)"/>
<path d="M269.476 34.4004C269.853 34.1826 270.542 33.8547 271.026 33.6067C271.337 33.448 271.707 33.5028 271.972 33.7339C288.127 47.5187 291.121 50.2157 292.323 49.6006L287.709 51.9617C285.034 53.3308 284.168 53.4559 281.443 51.4281C278.864 49.4962 272.386 43.9123 268.754 40.6861C266.152 38.3748 266.549 35.9957 269.476 34.4004Z" fill="url(#paint105_linear_38_1724)"/>
<path opacity="0.56" d="M270.493 33.8552C270.687 33.756 270.861 33.6667 271.017 33.5873C271.327 33.4286 271.697 33.4835 271.962 33.7146C288.127 47.5187 291.121 50.2157 292.323 49.6006L292.149 49.6899C290.927 50.3149 287.933 47.6179 271.807 33.7939C271.542 33.5628 271.172 33.508 270.861 33.6667C270.726 33.7362 270.609 33.7957 270.493 33.8552Z" fill="url(#paint106_linear_38_1724)"/>
<path opacity="0.11" d="M269.477 34.3998C269.855 34.182 270.543 33.8541 271.028 33.6061C271.338 33.4474 271.708 33.5022 271.973 33.7333C287.608 47.0753 290.996 50.2552 292.198 49.6401C286.402 52.6064 273.823 36.9182 267.988 39.9044C266.275 37.8473 266.87 35.8071 269.477 34.3998Z" fill="url(#paint107_linear_38_1724)"/>
</g>
<g opacity="0.21">
<path d="M276.652 83.1499C277.03 82.9321 277.718 82.6043 278.203 82.3562C278.513 82.1975 278.883 82.2524 279.148 82.4834C295.303 96.2682 298.298 98.9652 299.5 98.3501L294.886 100.711C292.21 102.08 291.345 102.205 288.619 100.178C286.04 98.2457 279.562 92.6618 275.93 89.4356C273.328 87.1243 273.725 84.7452 276.652 83.1499Z" fill="url(#paint108_linear_38_1724)"/>
<path opacity="0.56" d="M277.669 82.6047C277.863 82.5055 278.038 82.4162 278.193 82.3369C278.503 82.1781 278.874 82.233 279.139 82.4641C295.303 96.2683 298.298 98.9652 299.5 98.3501L299.325 98.4394C298.104 99.0644 295.109 96.3675 278.983 82.5434C278.718 82.3123 278.348 82.2575 278.038 82.4162C277.902 82.4857 277.786 82.5452 277.669 82.6047Z" fill="url(#paint109_linear_38_1724)"/>
<path opacity="0.11" d="M276.653 83.1495C277.031 82.9317 277.719 82.6039 278.204 82.3559C278.514 82.1971 278.885 82.252 279.15 82.4831C294.784 95.8251 298.173 99.005 299.375 98.3899C293.578 101.356 281 85.668 275.164 88.6541C273.451 86.5971 274.046 84.5569 276.653 83.1495Z" fill="url(#paint110_linear_38_1724)"/>
</g>
</g>
</g>
<defs>
<linearGradient id="paint0_linear_38_1724" x1="179.396" y1="54.757" x2="180.439" y2="76.455" gradientUnits="userSpaceOnUse">
<stop stop-color="#184BCC"/>
<stop offset="1" stop-color="#477BFF"/>
</linearGradient>
<linearGradient id="paint1_linear_38_1724" x1="181.56" y1="78.9267" x2="178.867" y2="56.0573" gradientUnits="userSpaceOnUse">
<stop stop-color="#F6EF7E"/>
<stop offset="1" stop-color="white" stop-opacity="0"/>
</linearGradient>
<linearGradient id="paint2_linear_38_1724" x1="174.757" y1="51.8152" x2="178.341" y2="75.7949" gradientUnits="userSpaceOnUse">
<stop stop-color="#A7AED0"/>
<stop offset="0.5084" stop-color="#7193EA"/>
<stop offset="0.9916" stop-color="#2B52B8"/>
</linearGradient>
<linearGradient id="paint3_linear_38_1724" x1="201.17" y1="66.1285" x2="179.263" y2="51.0832" gradientUnits="userSpaceOnUse">
<stop stop-color="#608CFB"/>
<stop offset="1" stop-color="#3E73FB"/>
</linearGradient>
<linearGradient id="paint4_linear_38_1724" x1="176.273" y1="51.6202" x2="196.418" y2="68.4229" gradientUnits="userSpaceOnUse">
<stop stop-color="#C2D5FA"/>
<stop offset="0.5084" stop-color="#443BAF"/>
<stop offset="0.9916" stop-color="#C9C0FF"/>
</linearGradient>
<linearGradient id="paint5_linear_38_1724" x1="202.85" y1="65.4949" x2="179.729" y2="57.4135" gradientUnits="userSpaceOnUse">
<stop stop-color="#F6EF7E"/>
<stop offset="1" stop-color="white" stop-opacity="0"/>
</linearGradient>
<linearGradient id="paint6_linear_38_1724" x1="149.314" y1="70.4377" x2="150.357" y2="92.1357" gradientUnits="userSpaceOnUse">
<stop stop-color="#184BCC"/>
<stop offset="1" stop-color="#477BFF"/>
</linearGradient>
<linearGradient id="paint7_linear_38_1724" x1="151.477" y1="94.6073" x2="148.784" y2="71.7379" gradientUnits="userSpaceOnUse">
<stop stop-color="#F6EF7E"/>
<stop offset="1" stop-color="white" stop-opacity="0"/>
</linearGradient>
<linearGradient id="paint8_linear_38_1724" x1="144.675" y1="67.4959" x2="148.258" y2="91.4756" gradientUnits="userSpaceOnUse">
<stop stop-color="#A7AED0"/>
<stop offset="0.5084" stop-color="#7193EA"/>
<stop offset="0.9916" stop-color="#2B52B8"/>
</linearGradient>
<linearGradient id="paint9_linear_38_1724" x1="171.088" y1="81.8092" x2="149.181" y2="66.7638" gradientUnits="userSpaceOnUse">
<stop stop-color="#608CFB"/>
<stop offset="1" stop-color="#3E73FB"/>
</linearGradient>
<linearGradient id="paint10_linear_38_1724" x1="146.191" y1="67.3008" x2="166.336" y2="84.1036" gradientUnits="userSpaceOnUse">
<stop stop-color="#C2D5FA"/>
<stop offset="0.5084" stop-color="#443BAF"/>
<stop offset="0.9916" stop-color="#C9C0FF"/>
</linearGradient>
<linearGradient id="paint11_linear_38_1724" x1="172.767" y1="81.1756" x2="149.646" y2="73.0941" gradientUnits="userSpaceOnUse">
<stop stop-color="#F6EF7E"/>
<stop offset="1" stop-color="white" stop-opacity="0"/>
</linearGradient>
<linearGradient id="paint12_linear_38_1724" x1="119.314" y1="87.4377" x2="120.357" y2="109.136" gradientUnits="userSpaceOnUse">
<stop stop-color="#184BCC"/>
<stop offset="1" stop-color="#477BFF"/>
</linearGradient>
<linearGradient id="paint13_linear_38_1724" x1="121.477" y1="111.607" x2="118.784" y2="88.7379" gradientUnits="userSpaceOnUse">
<stop stop-color="#F6EF7E"/>
<stop offset="1" stop-color="white" stop-opacity="0"/>
</linearGradient>
<linearGradient id="paint14_linear_38_1724" x1="114.675" y1="84.4959" x2="118.258" y2="108.476" gradientUnits="userSpaceOnUse">
<stop stop-color="#A7AED0"/>
<stop offset="0.5084" stop-color="#7193EA"/>
<stop offset="0.9916" stop-color="#2B52B8"/>
</linearGradient>
<linearGradient id="paint15_linear_38_1724" x1="141.088" y1="98.8092" x2="119.181" y2="83.7638" gradientUnits="userSpaceOnUse">
<stop stop-color="#608CFB"/>
<stop offset="1" stop-color="#3E73FB"/>
</linearGradient>
<linearGradient id="paint16_linear_38_1724" x1="116.191" y1="84.3008" x2="136.336" y2="101.104" gradientUnits="userSpaceOnUse">
<stop stop-color="#C2D5FA"/>
<stop offset="0.5084" stop-color="#443BAF"/>
<stop offset="0.9916" stop-color="#C9C0FF"/>
</linearGradient>
<linearGradient id="paint17_linear_38_1724" x1="142.767" y1="98.1756" x2="119.646" y2="90.0941" gradientUnits="userSpaceOnUse">
<stop stop-color="#F6EF7E"/>
<stop offset="1" stop-color="white" stop-opacity="0"/>
</linearGradient>
<linearGradient id="paint18_linear_38_1724" x1="186.573" y1="103.507" x2="187.616" y2="125.205" gradientUnits="userSpaceOnUse">
<stop stop-color="#184BCC"/>
<stop offset="1" stop-color="#477BFF"/>
</linearGradient>
<linearGradient id="paint19_linear_38_1724" x1="188.736" y1="127.676" x2="186.043" y2="104.807" gradientUnits="userSpaceOnUse">
<stop stop-color="#F6EF7E"/>
<stop offset="1" stop-color="white" stop-opacity="0"/>
</linearGradient>
<linearGradient id="paint20_linear_38_1724" x1="181.934" y1="100.565" x2="185.517" y2="124.545" gradientUnits="userSpaceOnUse">
<stop stop-color="#A7AED0"/>
<stop offset="0.5084" stop-color="#7193EA"/>
<stop offset="0.9916" stop-color="#2B52B8"/>
</linearGradient>
<linearGradient id="paint21_linear_38_1724" x1="208.346" y1="114.878" x2="186.439" y2="99.8327" gradientUnits="userSpaceOnUse">
<stop stop-color="#608CFB"/>
<stop offset="1" stop-color="#3E73FB"/>
</linearGradient>
<linearGradient id="paint22_linear_38_1724" x1="183.45" y1="100.37" x2="203.594" y2="117.172" gradientUnits="userSpaceOnUse">
<stop stop-color="#C2D5FA"/>
<stop offset="0.5084" stop-color="#443BAF"/>
<stop offset="0.9916" stop-color="#C9C0FF"/>
</linearGradient>
<linearGradient id="paint23_linear_38_1724" x1="210.026" y1="114.245" x2="186.905" y2="106.163" gradientUnits="userSpaceOnUse">
<stop stop-color="#F6EF7E"/>
<stop offset="1" stop-color="white" stop-opacity="0"/>
</linearGradient>
<linearGradient id="paint24_linear_38_1724" x1="237.134" y1="25.2109" x2="238.177" y2="46.9089" gradientUnits="userSpaceOnUse">
<stop stop-color="#184BCC"/>
<stop offset="1" stop-color="#477BFF"/>
</linearGradient>
<linearGradient id="paint25_linear_38_1724" x1="239.298" y1="49.3805" x2="236.605" y2="26.5111" gradientUnits="userSpaceOnUse">
<stop stop-color="#F6EF7E"/>
<stop offset="1" stop-color="white" stop-opacity="0"/>
</linearGradient>
<linearGradient id="paint26_linear_38_1724" x1="232.495" y1="22.2691" x2="236.079" y2="46.2487" gradientUnits="userSpaceOnUse">
<stop stop-color="#A7AED0"/>
<stop offset="0.5084" stop-color="#7193EA"/>
<stop offset="0.9916" stop-color="#2B52B8"/>
</linearGradient>
<linearGradient id="paint27_linear_38_1724" x1="258.908" y1="36.5824" x2="237.001" y2="21.537" gradientUnits="userSpaceOnUse">
<stop stop-color="#608CFB"/>
<stop offset="1" stop-color="#3E73FB"/>
</linearGradient>
<linearGradient id="paint28_linear_38_1724" x1="234.011" y1="22.074" x2="254.156" y2="38.8768" gradientUnits="userSpaceOnUse">
<stop stop-color="#C2D5FA"/>
<stop offset="0.5084" stop-color="#443BAF"/>
<stop offset="0.9916" stop-color="#C9C0FF"/>
</linearGradient>
<linearGradient id="paint29_linear_38_1724" x1="260.587" y1="35.9488" x2="237.467" y2="27.8673" gradientUnits="userSpaceOnUse">
<stop stop-color="#F6EF7E"/>
<stop offset="1" stop-color="white" stop-opacity="0"/>
</linearGradient>
<linearGradient id="paint30_linear_38_1724" x1="244.311" y1="73.9604" x2="245.353" y2="95.6584" gradientUnits="userSpaceOnUse">
<stop stop-color="#184BCC"/>
<stop offset="1" stop-color="#477BFF"/>
</linearGradient>
<linearGradient id="paint31_linear_38_1724" x1="246.474" y1="98.13" x2="243.781" y2="75.2607" gradientUnits="userSpaceOnUse">
<stop stop-color="#F6EF7E"/>
<stop offset="1" stop-color="white" stop-opacity="0"/>
</linearGradient>
<linearGradient id="paint32_linear_38_1724" x1="239.671" y1="71.0186" x2="243.255" y2="94.9983" gradientUnits="userSpaceOnUse">
<stop stop-color="#A7AED0"/>
<stop offset="0.5084" stop-color="#7193EA"/>
<stop offset="0.9916" stop-color="#2B52B8"/>
</linearGradient>
<linearGradient id="paint33_linear_38_1724" x1="266.084" y1="85.3316" x2="244.177" y2="70.2863" gradientUnits="userSpaceOnUse">
<stop stop-color="#608CFB"/>
<stop offset="1" stop-color="#3E73FB"/>
</linearGradient>
<linearGradient id="paint34_linear_38_1724" x1="241.187" y1="70.8233" x2="261.332" y2="87.6261" gradientUnits="userSpaceOnUse">
<stop stop-color="#C2D5FA"/>
<stop offset="0.5084" stop-color="#443BAF"/>
<stop offset="0.9916" stop-color="#C9C0FF"/>
</linearGradient>
<linearGradient id="paint35_linear_38_1724" x1="267.764" y1="84.6983" x2="244.643" y2="76.6168" gradientUnits="userSpaceOnUse">
<stop stop-color="#F6EF7E"/>
<stop offset="1" stop-color="white" stop-opacity="0"/>
</linearGradient>
<linearGradient id="paint36_linear_38_1724" x1="208.265" y1="39.9838" x2="209.308" y2="61.6818" gradientUnits="userSpaceOnUse">
<stop stop-color="#184BCC"/>
<stop offset="1" stop-color="#477BFF"/>
</linearGradient>
<linearGradient id="paint37_linear_38_1724" x1="210.428" y1="64.1535" x2="207.735" y2="41.2841" gradientUnits="userSpaceOnUse">
<stop stop-color="#F6EF7E"/>
<stop offset="1" stop-color="white" stop-opacity="0"/>
</linearGradient>
<linearGradient id="paint38_linear_38_1724" x1="203.626" y1="37.042" x2="207.209" y2="61.0217" gradientUnits="userSpaceOnUse">
<stop stop-color="#A7AED0"/>
<stop offset="0.5084" stop-color="#7193EA"/>
<stop offset="0.9916" stop-color="#2B52B8"/>
</linearGradient>
<linearGradient id="paint39_linear_38_1724" x1="230.039" y1="51.3553" x2="208.132" y2="36.31" gradientUnits="userSpaceOnUse">
<stop stop-color="#608CFB"/>
<stop offset="1" stop-color="#3E73FB"/>
</linearGradient>
<linearGradient id="paint40_linear_38_1724" x1="205.142" y1="36.847" x2="225.287" y2="53.6497" gradientUnits="userSpaceOnUse">
<stop stop-color="#C2D5FA"/>
<stop offset="0.5084" stop-color="#443BAF"/>
<stop offset="0.9916" stop-color="#C9C0FF"/>
</linearGradient>
<linearGradient id="paint41_linear_38_1724" x1="231.718" y1="50.722" x2="208.598" y2="42.6405" gradientUnits="userSpaceOnUse">
<stop stop-color="#F6EF7E"/>
<stop offset="1" stop-color="white" stop-opacity="0"/>
</linearGradient>
<linearGradient id="paint42_linear_38_1724" x1="215.442" y1="88.7336" x2="216.485" y2="110.432" gradientUnits="userSpaceOnUse">
<stop stop-color="#184BCC"/>
<stop offset="1" stop-color="#477BFF"/>
</linearGradient>
<linearGradient id="paint43_linear_38_1724" x1="217.605" y1="112.903" x2="214.912" y2="90.0338" gradientUnits="userSpaceOnUse">
<stop stop-color="#F6EF7E"/>
<stop offset="1" stop-color="white" stop-opacity="0"/>
</linearGradient>
<linearGradient id="paint44_linear_38_1724" x1="210.803" y1="85.7918" x2="214.386" y2="109.771" gradientUnits="userSpaceOnUse">
<stop stop-color="#A7AED0"/>
<stop offset="0.5084" stop-color="#7193EA"/>
<stop offset="0.9916" stop-color="#2B52B8"/>
</linearGradient>
<linearGradient id="paint45_linear_38_1724" x1="237.216" y1="100.105" x2="215.308" y2="85.0595" gradientUnits="userSpaceOnUse">
<stop stop-color="#608CFB"/>
<stop offset="1" stop-color="#3E73FB"/>
</linearGradient>
<linearGradient id="paint46_linear_38_1724" x1="212.319" y1="85.5965" x2="232.464" y2="102.399" gradientUnits="userSpaceOnUse">
<stop stop-color="#C2D5FA"/>
<stop offset="0.5084" stop-color="#443BAF"/>
<stop offset="0.9916" stop-color="#C9C0FF"/>
</linearGradient>
<linearGradient id="paint47_linear_38_1724" x1="238.895" y1="99.4715" x2="215.774" y2="91.39" gradientUnits="userSpaceOnUse">
<stop stop-color="#F6EF7E"/>
<stop offset="1" stop-color="white" stop-opacity="0"/>
</linearGradient>
<linearGradient id="paint48_linear_38_1724" x1="266.003" y1="10.4377" x2="267.046" y2="32.1357" gradientUnits="userSpaceOnUse">
<stop stop-color="#184BCC"/>
<stop offset="1" stop-color="#477BFF"/>
</linearGradient>
<linearGradient id="paint49_linear_38_1724" x1="268.167" y1="34.6073" x2="265.474" y2="11.7379" gradientUnits="userSpaceOnUse">
<stop stop-color="#F6EF7E"/>
<stop offset="1" stop-color="white" stop-opacity="0"/>
</linearGradient>
<linearGradient id="paint50_linear_38_1724" x1="261.364" y1="7.49588" x2="264.948" y2="31.4756" gradientUnits="userSpaceOnUse">
<stop stop-color="#A7AED0"/>
<stop offset="0.5084" stop-color="#7193EA"/>
<stop offset="0.9916" stop-color="#2B52B8"/>
</linearGradient>
<linearGradient id="paint51_linear_38_1724" x1="287.777" y1="21.8092" x2="265.87" y2="6.76385" gradientUnits="userSpaceOnUse">
<stop stop-color="#608CFB"/>
<stop offset="1" stop-color="#3E73FB"/>
</linearGradient>
<linearGradient id="paint52_linear_38_1724" x1="262.88" y1="7.30082" x2="283.025" y2="24.1036" gradientUnits="userSpaceOnUse">
<stop stop-color="#C2D5FA"/>
<stop offset="0.5084" stop-color="#443BAF"/>
<stop offset="0.9916" stop-color="#C9C0FF"/>
</linearGradient>
<linearGradient id="paint53_linear_38_1724" x1="289.457" y1="21.1758" x2="266.336" y2="13.0944" gradientUnits="userSpaceOnUse">
<stop stop-color="#F6EF7E"/>
<stop offset="1" stop-color="white" stop-opacity="0"/>
</linearGradient>
<linearGradient id="paint54_linear_38_1724" x1="273.18" y1="59.1872" x2="274.223" y2="80.8852" gradientUnits="userSpaceOnUse">
<stop stop-color="#184BCC"/>
<stop offset="1" stop-color="#477BFF"/>
</linearGradient>
<linearGradient id="paint55_linear_38_1724" x1="275.343" y1="83.3568" x2="272.65" y2="60.4875" gradientUnits="userSpaceOnUse">
<stop stop-color="#F6EF7E"/>
<stop offset="1" stop-color="white" stop-opacity="0"/>
</linearGradient>
<linearGradient id="paint56_linear_38_1724" x1="268.541" y1="56.2454" x2="272.124" y2="80.2251" gradientUnits="userSpaceOnUse">
<stop stop-color="#A7AED0"/>
<stop offset="0.5084" stop-color="#7193EA"/>
<stop offset="0.9916" stop-color="#2B52B8"/>
</linearGradient>
<linearGradient id="paint57_linear_38_1724" x1="294.953" y1="70.5585" x2="273.046" y2="55.5131" gradientUnits="userSpaceOnUse">
<stop stop-color="#608CFB"/>
<stop offset="1" stop-color="#3E73FB"/>
</linearGradient>
<linearGradient id="paint58_linear_38_1724" x1="270.056" y1="56.0501" x2="290.201" y2="72.8529" gradientUnits="userSpaceOnUse">
<stop stop-color="#C2D5FA"/>
<stop offset="0.5084" stop-color="#443BAF"/>
<stop offset="0.9916" stop-color="#C9C0FF"/>
</linearGradient>
<linearGradient id="paint59_linear_38_1724" x1="296.633" y1="69.9251" x2="273.512" y2="61.8437" gradientUnits="userSpaceOnUse">
<stop stop-color="#F6EF7E"/>
<stop offset="1" stop-color="white" stop-opacity="0"/>
</linearGradient>
<linearGradient id="paint60_linear_38_1724" x1="201.864" y1="91.3977" x2="200.821" y2="69.6998" gradientUnits="userSpaceOnUse">
<stop stop-color="#184BCC"/>
<stop offset="1" stop-color="#477BFF"/>
</linearGradient>
<linearGradient id="paint61_linear_38_1724" x1="199.701" y1="67.2281" x2="202.394" y2="90.0975" gradientUnits="userSpaceOnUse">
<stop stop-color="#F6EF7E"/>
<stop offset="1" stop-color="white" stop-opacity="0"/>
</linearGradient>
<linearGradient id="paint62_linear_38_1724" x1="206.503" y1="94.3396" x2="202.92" y2="70.3599" gradientUnits="userSpaceOnUse">
<stop stop-color="#A7AED0"/>
<stop offset="0.5084" stop-color="#7193EA"/>
<stop offset="0.9916" stop-color="#2B52B8"/>
</linearGradient>
<linearGradient id="paint63_linear_38_1724" x1="180.09" y1="80.0263" x2="201.997" y2="95.0716" gradientUnits="userSpaceOnUse">
<stop stop-color="#608CFB"/>
<stop offset="1" stop-color="#3E73FB"/>
</linearGradient>
<linearGradient id="paint64_linear_38_1724" x1="204.987" y1="94.5346" x2="184.842" y2="77.7319" gradientUnits="userSpaceOnUse">
<stop stop-color="#C2D5FA"/>
<stop offset="0.5084" stop-color="#443BAF"/>
<stop offset="0.9916" stop-color="#C9C0FF"/>
</linearGradient>
<linearGradient id="paint65_linear_38_1724" x1="178.411" y1="80.6599" x2="201.531" y2="88.7413" gradientUnits="userSpaceOnUse">
<stop stop-color="#F6EF7E"/>
<stop offset="1" stop-color="white" stop-opacity="0"/>
</linearGradient>
<linearGradient id="paint66_linear_38_1724" x1="171.781" y1="107.078" x2="170.738" y2="85.3804" gradientUnits="userSpaceOnUse">
<stop stop-color="#184BCC"/>
<stop offset="1" stop-color="#477BFF"/>
</linearGradient>
<linearGradient id="paint67_linear_38_1724" x1="169.618" y1="82.9088" x2="172.311" y2="105.778" gradientUnits="userSpaceOnUse">
<stop stop-color="#F6EF7E"/>
<stop offset="1" stop-color="white" stop-opacity="0"/>
</linearGradient>
<linearGradient id="paint68_linear_38_1724" x1="176.42" y1="110.02" x2="172.837" y2="86.0406" gradientUnits="userSpaceOnUse">
<stop stop-color="#A7AED0"/>
<stop offset="0.5084" stop-color="#7193EA"/>
<stop offset="0.9916" stop-color="#2B52B8"/>
</linearGradient>
<linearGradient id="paint69_linear_38_1724" x1="150.008" y1="95.7069" x2="171.915" y2="110.752" gradientUnits="userSpaceOnUse">
<stop stop-color="#608CFB"/>
<stop offset="1" stop-color="#3E73FB"/>
</linearGradient>
<linearGradient id="paint70_linear_38_1724" x1="174.904" y1="110.215" x2="154.76" y2="93.4125" gradientUnits="userSpaceOnUse">
<stop stop-color="#C2D5FA"/>
<stop offset="0.5084" stop-color="#443BAF"/>
<stop offset="0.9916" stop-color="#C9C0FF"/>
</linearGradient>
<linearGradient id="paint71_linear_38_1724" x1="148.328" y1="96.3406" x2="171.449" y2="104.422" gradientUnits="userSpaceOnUse">
<stop stop-color="#F6EF7E"/>
<stop offset="1" stop-color="white" stop-opacity="0"/>
</linearGradient>
<linearGradient id="paint72_linear_38_1724" x1="141.781" y1="124.078" x2="140.738" y2="102.38" gradientUnits="userSpaceOnUse">
<stop stop-color="#184BCC"/>
<stop offset="1" stop-color="#477BFF"/>
</linearGradient>
<linearGradient id="paint73_linear_38_1724" x1="139.618" y1="99.9088" x2="142.311" y2="122.778" gradientUnits="userSpaceOnUse">
<stop stop-color="#F6EF7E"/>
<stop offset="1" stop-color="white" stop-opacity="0"/>
</linearGradient>
<linearGradient id="paint74_linear_38_1724" x1="146.42" y1="127.02" x2="142.837" y2="103.041" gradientUnits="userSpaceOnUse">
<stop stop-color="#A7AED0"/>
<stop offset="0.5084" stop-color="#7193EA"/>
<stop offset="0.9916" stop-color="#2B52B8"/>
</linearGradient>
<linearGradient id="paint75_linear_38_1724" x1="120.008" y1="112.707" x2="141.915" y2="127.752" gradientUnits="userSpaceOnUse">
<stop stop-color="#608CFB"/>
<stop offset="1" stop-color="#3E73FB"/>
</linearGradient>
<linearGradient id="paint76_linear_38_1724" x1="144.904" y1="127.215" x2="124.76" y2="110.413" gradientUnits="userSpaceOnUse">
<stop stop-color="#C2D5FA"/>
<stop offset="0.5084" stop-color="#443BAF"/>
<stop offset="0.9916" stop-color="#C9C0FF"/>
</linearGradient>
<linearGradient id="paint77_linear_38_1724" x1="118.328" y1="113.341" x2="141.449" y2="121.422" gradientUnits="userSpaceOnUse">
<stop stop-color="#F6EF7E"/>
<stop offset="1" stop-color="white" stop-opacity="0"/>
</linearGradient>
<linearGradient id="paint78_linear_38_1724" x1="259.602" y1="61.8514" x2="258.559" y2="40.1534" gradientUnits="userSpaceOnUse">
<stop stop-color="#184BCC"/>
<stop offset="1" stop-color="#477BFF"/>
</linearGradient>
<linearGradient id="paint79_linear_38_1724" x1="257.438" y1="37.6817" x2="260.131" y2="60.5511" gradientUnits="userSpaceOnUse">
<stop stop-color="#F6EF7E"/>
<stop offset="1" stop-color="white" stop-opacity="0"/>
</linearGradient>
<linearGradient id="paint80_linear_38_1724" x1="264.241" y1="64.7932" x2="260.657" y2="40.8135" gradientUnits="userSpaceOnUse">
<stop stop-color="#A7AED0"/>
<stop offset="0.5084" stop-color="#7193EA"/>
<stop offset="0.9916" stop-color="#2B52B8"/>
</linearGradient>
<linearGradient id="paint81_linear_38_1724" x1="237.828" y1="50.4799" x2="259.735" y2="65.5252" gradientUnits="userSpaceOnUse">
<stop stop-color="#608CFB"/>
<stop offset="1" stop-color="#3E73FB"/>
</linearGradient>
<linearGradient id="paint82_linear_38_1724" x1="262.725" y1="64.9882" x2="242.58" y2="48.1855" gradientUnits="userSpaceOnUse">
<stop stop-color="#C2D5FA"/>
<stop offset="0.5084" stop-color="#443BAF"/>
<stop offset="0.9916" stop-color="#C9C0FF"/>
</linearGradient>
<linearGradient id="paint83_linear_38_1724" x1="236.148" y1="51.1135" x2="259.269" y2="59.1949" gradientUnits="userSpaceOnUse">
<stop stop-color="#F6EF7E"/>
<stop offset="1" stop-color="white" stop-opacity="0"/>
</linearGradient>
<linearGradient id="paint84_linear_38_1724" x1="266.778" y1="110.601" x2="265.735" y2="88.9029" gradientUnits="userSpaceOnUse">
<stop stop-color="#184BCC"/>
<stop offset="1" stop-color="#477BFF"/>
</linearGradient>
<linearGradient id="paint85_linear_38_1724" x1="264.615" y1="86.4312" x2="267.308" y2="109.301" gradientUnits="userSpaceOnUse">
<stop stop-color="#F6EF7E"/>
<stop offset="1" stop-color="white" stop-opacity="0"/>
</linearGradient>
<linearGradient id="paint86_linear_38_1724" x1="271.417" y1="113.543" x2="267.834" y2="89.563" gradientUnits="userSpaceOnUse">
<stop stop-color="#A7AED0"/>
<stop offset="0.5084" stop-color="#7193EA"/>
<stop offset="0.9916" stop-color="#2B52B8"/>
</linearGradient>
<linearGradient id="paint87_linear_38_1724" x1="245.004" y1="99.2294" x2="266.911" y2="114.275" gradientUnits="userSpaceOnUse">
<stop stop-color="#608CFB"/>
<stop offset="1" stop-color="#3E73FB"/>
</linearGradient>
<linearGradient id="paint88_linear_38_1724" x1="269.901" y1="113.738" x2="249.756" y2="96.935" gradientUnits="userSpaceOnUse">
<stop stop-color="#C2D5FA"/>
<stop offset="0.5084" stop-color="#443BAF"/>
<stop offset="0.9916" stop-color="#C9C0FF"/>
</linearGradient>
<linearGradient id="paint89_linear_38_1724" x1="243.325" y1="99.863" x2="266.445" y2="107.944" gradientUnits="userSpaceOnUse">
<stop stop-color="#F6EF7E"/>
<stop offset="1" stop-color="white" stop-opacity="0"/>
</linearGradient>
<linearGradient id="paint90_linear_38_1724" x1="230.732" y1="76.6246" x2="229.69" y2="54.9266" gradientUnits="userSpaceOnUse">
<stop stop-color="#184BCC"/>
<stop offset="1" stop-color="#477BFF"/>
</linearGradient>
<linearGradient id="paint91_linear_38_1724" x1="228.569" y1="52.4549" x2="231.262" y2="75.3243" gradientUnits="userSpaceOnUse">
<stop stop-color="#F6EF7E"/>
<stop offset="1" stop-color="white" stop-opacity="0"/>
</linearGradient>
<linearGradient id="paint92_linear_38_1724" x1="235.372" y1="79.5664" x2="231.788" y2="55.5867" gradientUnits="userSpaceOnUse">
<stop stop-color="#A7AED0"/>
<stop offset="0.5084" stop-color="#7193EA"/>
<stop offset="0.9916" stop-color="#2B52B8"/>
</linearGradient>
<linearGradient id="paint93_linear_38_1724" x1="208.959" y1="65.2531" x2="230.866" y2="80.2984" gradientUnits="userSpaceOnUse">
<stop stop-color="#608CFB"/>
<stop offset="1" stop-color="#3E73FB"/>
</linearGradient>
<linearGradient id="paint94_linear_38_1724" x1="233.856" y1="79.7614" x2="213.711" y2="62.9587" gradientUnits="userSpaceOnUse">
<stop stop-color="#C2D5FA"/>
<stop offset="0.5084" stop-color="#443BAF"/>
<stop offset="0.9916" stop-color="#C9C0FF"/>
</linearGradient>
<linearGradient id="paint95_linear_38_1724" x1="207.279" y1="65.8864" x2="230.4" y2="73.9679" gradientUnits="userSpaceOnUse">
<stop stop-color="#F6EF7E"/>
<stop offset="1" stop-color="white" stop-opacity="0"/>
</linearGradient>
<linearGradient id="paint96_linear_38_1724" x1="237.909" y1="125.374" x2="236.866" y2="103.676" gradientUnits="userSpaceOnUse">
<stop stop-color="#184BCC"/>
<stop offset="1" stop-color="#477BFF"/>
</linearGradient>
<linearGradient id="paint97_linear_38_1724" x1="235.746" y1="101.204" x2="238.439" y2="124.074" gradientUnits="userSpaceOnUse">
<stop stop-color="#F6EF7E"/>
<stop offset="1" stop-color="white" stop-opacity="0"/>
</linearGradient>
<linearGradient id="paint98_linear_38_1724" x1="242.548" y1="128.316" x2="238.965" y2="104.336" gradientUnits="userSpaceOnUse">
<stop stop-color="#A7AED0"/>
<stop offset="0.5084" stop-color="#7193EA"/>
<stop offset="0.9916" stop-color="#2B52B8"/>
</linearGradient>
<linearGradient id="paint99_linear_38_1724" x1="216.136" y1="114.002" x2="238.043" y2="129.048" gradientUnits="userSpaceOnUse">
<stop stop-color="#608CFB"/>
<stop offset="1" stop-color="#3E73FB"/>
</linearGradient>
<linearGradient id="paint100_linear_38_1724" x1="241.032" y1="128.511" x2="220.888" y2="111.708" gradientUnits="userSpaceOnUse">
<stop stop-color="#C2D5FA"/>
<stop offset="0.5084" stop-color="#443BAF"/>
<stop offset="0.9916" stop-color="#C9C0FF"/>
</linearGradient>
<linearGradient id="paint101_linear_38_1724" x1="214.456" y1="114.636" x2="237.577" y2="122.717" gradientUnits="userSpaceOnUse">
<stop stop-color="#F6EF7E"/>
<stop offset="1" stop-color="white" stop-opacity="0"/>
</linearGradient>
<linearGradient id="paint102_linear_38_1724" x1="288.471" y1="47.0782" x2="287.428" y2="25.3802" gradientUnits="userSpaceOnUse">
<stop stop-color="#184BCC"/>
<stop offset="1" stop-color="#477BFF"/>
</linearGradient>
<linearGradient id="paint103_linear_38_1724" x1="286.307" y1="22.9085" x2="289" y2="45.7779" gradientUnits="userSpaceOnUse">
<stop stop-color="#F6EF7E"/>
<stop offset="1" stop-color="white" stop-opacity="0"/>
</linearGradient>
<linearGradient id="paint104_linear_38_1724" x1="293.11" y1="50.02" x2="289.526" y2="26.0403" gradientUnits="userSpaceOnUse">
<stop stop-color="#A7AED0"/>
<stop offset="0.5084" stop-color="#7193EA"/>
<stop offset="0.9916" stop-color="#2B52B8"/>
</linearGradient>
<linearGradient id="paint105_linear_38_1724" x1="266.697" y1="35.7067" x2="288.604" y2="50.752" gradientUnits="userSpaceOnUse">
<stop stop-color="#608CFB"/>
<stop offset="1" stop-color="#3E73FB"/>
</linearGradient>
<linearGradient id="paint106_linear_38_1724" x1="291.594" y1="50.2151" x2="271.449" y2="33.4123" gradientUnits="userSpaceOnUse">
<stop stop-color="#C2D5FA"/>
<stop offset="0.5084" stop-color="#443BAF"/>
<stop offset="0.9916" stop-color="#C9C0FF"/>
</linearGradient>
<linearGradient id="paint107_linear_38_1724" x1="265.018" y1="36.3401" x2="288.138" y2="44.4215" gradientUnits="userSpaceOnUse">
<stop stop-color="#F6EF7E"/>
<stop offset="1" stop-color="white" stop-opacity="0"/>
</linearGradient>
<linearGradient id="paint108_linear_38_1724" x1="273.873" y1="84.4562" x2="295.78" y2="99.5015" gradientUnits="userSpaceOnUse">
<stop stop-color="#608CFB"/>
<stop offset="1" stop-color="#3E73FB"/>
</linearGradient>
<linearGradient id="paint109_linear_38_1724" x1="298.77" y1="98.9646" x2="278.625" y2="82.1618" gradientUnits="userSpaceOnUse">
<stop stop-color="#C2D5FA"/>
<stop offset="0.5084" stop-color="#443BAF"/>
<stop offset="0.9916" stop-color="#C9C0FF"/>
</linearGradient>
<linearGradient id="paint110_linear_38_1724" x1="272.194" y1="85.0898" x2="295.314" y2="93.1712" gradientUnits="userSpaceOnUse">
<stop stop-color="#F6EF7E"/>
<stop offset="1" stop-color="white" stop-opacity="0"/>
</linearGradient>
</defs>
</svg>
