

<svg width="120" height="35" viewBox="0 0 56 90" fill="none" xmlns="http://www.w3.org/2000/svg" >
<circle opacity="1" cx="30" cy="48" r="40.05" stroke="url(#paint0_linear_658_892)" stroke-width="2.5"/>
<defs>
<linearGradient id="paint0_linear_658_892" x1="44.5747" y1="-34.0392" x2="-17.0024" y2="-24.8234" gradientUnits="userSpaceOnUse">
<stop offset="1" stop-color="#1D33F8"/>
</linearGradient>
</defs>

<svg width="65" height="100" viewBox="0 0 35 35" fill="none" xmlns="http://www.w3.org/2000/svg">
<stop stop-color="#40AAF8"/>
<path d="M20.3201 1.3335H11.6801C8.00008 1.3335 6.66675 2.66683 6.66675 6.4135V25.5868C6.66675 29.3335 8.00008 30.6668 11.6801 30.6668H20.3067C24.0001 30.6668 25.3334 29.3335 25.3334 25.5868V6.4135C25.3334 2.66683 24.0001 1.3335 20.3201 1.3335ZM16.0001 28.4002C14.7201 28.4002 13.6667 27.3468 13.6667 26.0668C13.6667 24.7868 14.7201 23.7335 16.0001 23.7335C17.2801 23.7335 18.3334 24.7868 18.3334 26.0668C18.3334 27.3468 17.2801 28.4002 16.0001 28.4002ZM18.6667 5.66683H13.3334C12.7867 5.66683 12.3334 5.2135 12.3334 4.66683C12.3334 4.12016 12.7867 3.66683 13.3334 3.66683H18.6667C19.2134 3.66683 19.6667 4.12016 19.6667 4.66683C19.6667 5.2135 19.2134 5.66683 18.6667 5.66683Z" fill="#1D33F8"/>
</svg>


</svg>