<svg width="32" height="32" viewBox="0 0 32 32" fill="none" xmlns="http://www.w3.org/2000/svg">
<path d="M28.1999 8.22659C27.6532 7.93325 26.5066 7.62659 24.9466 8.71992L22.9866 10.1066C22.8399 5.95992 21.0399 4.33325 16.6666 4.33325H8.66658C4.10659 4.33325 2.33325 6.10659 2.33325 10.6666V21.3333C2.33325 24.3999 3.99992 27.6666 8.66658 27.6666H16.6666C21.0399 27.6666 22.8399 26.0399 22.9866 21.8933L24.9466 23.2799C25.7732 23.8666 26.4932 24.0533 27.0666 24.0533C27.5599 24.0533 27.9466 23.9066 28.1999 23.7733C28.7466 23.4933 29.6666 22.7333 29.6666 20.8266V11.1733C29.6666 9.26659 28.7466 8.50659 28.1999 8.22659ZM14.6666 15.1733C13.2933 15.1733 12.1599 14.0533 12.1599 12.6666C12.1599 11.2799 13.2933 10.1599 14.6666 10.1599C16.0399 10.1599 17.1733 11.2799 17.1733 12.6666C17.1733 14.0533 16.0399 15.1733 14.6666 15.1733Z" fill="#40AAF8"/>
</svg>
