<svg width="32" height="32" viewBox="0 0 32 32" fill="none" xmlns="http://www.w3.org/2000/svg">
<g opacity="0.5">
<path d="M22.3333 4.74675V2.66675C22.3333 2.12008 21.88 1.66675 21.3333 1.66675C20.7866 1.66675 20.3333 2.12008 20.3333 2.66675V4.66675H11.6666V2.66675C11.6666 2.12008 11.2133 1.66675 10.6666 1.66675C10.12 1.66675 9.66665 2.12008 9.66665 2.66675V4.74675C6.06665 5.08008 4.31998 7.22675 4.05331 10.4134C4.02665 10.8001 4.34665 11.1201 4.71998 11.1201H27.28C27.6666 11.1201 27.9866 10.7867 27.9466 10.4134C27.68 7.22675 25.9333 5.08008 22.3333 4.74675Z" fill="#40AAF8"/>
<path d="M26.6667 13.1201H5.33333C4.6 13.1201 4 13.7201 4 14.4535V22.6668C4 26.6668 6 29.3335 10.6667 29.3335H21.3333C26 29.3335 28 26.6668 28 22.6668V14.4535C28 13.7201 27.4 13.1201 26.6667 13.1201ZM19.7867 19.9868L19.12 20.6668H19.1067L15.0667 24.7068C14.8933 24.8801 14.5333 25.0668 14.28 25.0935L12.48 25.3601C11.8267 25.4535 11.3733 24.9868 11.4667 24.3468L11.72 22.5335C11.76 22.2801 11.9333 21.9334 12.1067 21.7468L16.16 17.7068L16.8267 17.0268C17.2667 16.5868 17.76 16.2668 18.2933 16.2668C18.7467 16.2668 19.24 16.4801 19.7867 17.0268C20.9867 18.2268 20.6 19.1735 19.7867 19.9868Z" fill="#40AAF8"/>
</g>
</svg>
