


<svg width="120" height="35" viewBox="0 0 56 90" fill="none" xmlns="http://www.w3.org/2000/svg" >
<circle opacity="1" cx="30" cy="48" r="40.05" stroke="url(#paint0_linear_658_892)" stroke-width="2.5"/>
<defs>
<linearGradient id="paint0_linear_658_892" x1="44.5747" y1="-34.0392" x2="-17.0024" y2="-24.8234" gradientUnits="userSpaceOnUse">
<stop offset="1" stop-color="#1D33F8"/>
</linearGradient>
</defs>

<svg width="65" height="100" viewBox="0 0 35 35" fill="none" xmlns="http://www.w3.org/2000/svg">
<g opacity="1">
<path d="M5.45325 10.7735C5.38659 11.1735 5.33325 11.5735 5.33325 12.0002C5.33325 11.5868 5.38659 11.1735 5.45325 10.7735ZM5.33325 20.0002C5.33325 20.4268 5.38659 20.8268 5.45325 21.2268C5.38659 20.8268 5.33325 20.4135 5.33325 20.0002ZM10.7866 26.5468C11.1733 26.6135 11.5866 26.6668 11.9999 26.6668C11.5866 26.6668 11.1866 26.6135 10.7866 26.5468ZM10.7866 5.4535C11.1866 5.38683 11.5866 5.3335 11.9999 5.3335C11.5866 5.3335 11.1733 5.38683 10.7866 5.4535ZM21.2266 5.4535C20.8266 5.38683 20.4266 5.3335 19.9999 5.3335C20.4133 5.3335 20.8266 5.38683 21.2266 5.4535ZM26.5466 10.7735C26.6133 11.1735 26.6666 11.5868 26.6666 12.0002C26.6666 11.5735 26.6133 11.1735 26.5466 10.7735Z" fill="#1D33F8"/>
<path d="M29.3334 11.0665C29.3334 11.6265 28.8934 12.0665 28.3334 12.0665H26.6667V14.6484C26.6667 15.0345 26.2477 15.2749 25.9144 15.08L25.8001 15.0132C25.2267 14.6798 24.5601 14.5732 23.9201 14.7465C23.9065 14.7498 23.8929 14.7532 23.8794 14.7566C23.4877 14.8577 23.0134 14.604 23.0134 14.1995V12.9865C23.0134 10.7865 21.2134 8.9865 19.0134 8.9865H12.9867C10.7867 8.9865 8.98675 10.7865 8.98675 12.9865V19.0132C8.98675 21.2132 10.7867 23.0132 12.9867 23.0132H13.5867C13.7414 23.0132 13.8667 23.1385 13.8667 23.2932V23.2932C13.8667 24.5779 14.7977 25.658 16.0234 25.9062C16.2539 25.9529 16.4099 26.2286 16.3334 26.451V26.451C16.2897 26.5781 16.1737 26.6665 16.0392 26.6665H12.0801V28.3332C12.0801 28.8798 11.6267 29.3332 11.0801 29.3332C10.5201 29.3332 10.0801 28.8798 10.0801 28.3332V26.3732C7.94675 25.7198 6.28008 24.0532 5.64008 21.9332H3.66675C3.12008 21.9332 2.66675 21.4798 2.66675 20.9332C2.66675 20.3732 3.12008 19.9332 3.66675 19.9332H5.33341V16.9998H3.66675C3.12008 16.9998 2.66675 16.5465 2.66675 15.9998C2.66675 15.4398 3.12008 14.9998 3.66675 14.9998H5.33341V12.0665H3.66675C3.12008 12.0665 2.66675 11.6265 2.66675 11.0665C2.66675 10.5198 3.12008 10.0665 3.66675 10.0665H5.64008C6.28008 7.9465 7.94675 6.27984 10.0801 5.6265V3.6665C10.0801 3.11984 10.5201 2.6665 11.0801 2.6665C11.6267 2.6665 12.0801 3.11984 12.0801 3.6665V5.33317H15.0001V3.6665C15.0001 3.11984 15.4534 2.6665 16.0001 2.6665C16.5467 2.6665 17.0001 3.11984 17.0001 3.6665V5.33317H19.9334V3.6665C19.9334 3.11984 20.3867 2.6665 20.9334 2.6665C21.4801 2.6665 21.9334 3.11984 21.9334 3.6665V5.63984C24.0534 6.27984 25.7201 7.9465 26.3601 10.0665H28.3334C28.8934 10.0665 29.3334 10.5198 29.3334 11.0665Z" fill="#1D33F8"/>
<path d="M27.9866 20.7067C27.08 20.7067 26.56 20.2534 26.56 19.5867C26.56 19.32 26.64 19.0134 26.8266 18.6934C27.2 18.0534 26.9733 17.2267 26.3333 16.8667L25.12 16.16C24.56 15.8267 23.84 16.0267 23.5066 16.5867L23.4266 16.72C22.7866 17.8267 21.7466 17.8267 21.1066 16.72L21.0266 16.5867C20.7066 16.0267 19.9733 15.8267 19.4266 16.16L18.2 16.8667C17.7733 17.1067 17.52 17.56 17.52 18.0267C17.52 18.2534 17.5866 18.48 17.7066 18.6934C17.8933 19.0134 17.9866 19.32 17.9866 19.5867C17.9866 20.2534 17.4533 20.7067 16.5466 20.7067C15.8133 20.7067 15.2 21.3067 15.2 22.04V23.2934C15.2 24.0267 15.8133 24.6267 16.5466 24.6267C17.4533 24.6267 17.9866 25.08 17.9866 25.7467C17.9866 26.0134 17.8933 26.32 17.7066 26.64C17.3333 27.28 17.56 28.1067 18.2 28.4667L19.4266 29.1734C19.9733 29.5067 20.7066 29.3067 21.0266 28.7467L21.1066 28.6134C21.7466 27.5067 22.7866 27.5067 23.4266 28.6134L23.5066 28.7467C23.84 29.3067 24.56 29.5067 25.12 29.1734L26.3333 28.4667C26.76 28.2267 27.0133 27.7734 27.0133 27.3067C27.0133 27.08 26.9466 26.8534 26.8266 26.64C26.64 26.32 26.56 26.0134 26.56 25.7467C26.56 25.08 27.08 24.6267 27.9866 24.6267C28.7333 24.6267 29.3333 24.0267 29.3333 23.2934V22.04C29.3333 21.3067 28.7333 20.7067 27.9866 20.7067ZM22.2666 24.96C21 24.96 19.9733 23.9334 19.9733 22.6667C19.9733 21.4 21 20.3734 22.2666 20.3734C23.5333 20.3734 24.56 21.4 24.56 22.6667C24.56 23.9334 23.5333 24.96 22.2666 24.96Z" fill="#1D33F8"/>
<path d="M21.6666 13.3602V14.1383C21.6666 14.5782 21.0812 14.8562 20.6543 14.7503C20.6495 14.7492 20.6447 14.748 20.6399 14.7468C19.9733 14.5735 19.3066 14.6668 18.7599 15.0002L17.5466 15.7068C16.7066 16.1735 16.1866 17.0668 16.1866 18.0268C16.1866 18.2023 16.2026 18.3798 16.2369 18.5562C16.3108 18.9367 16.0506 19.3909 15.6838 19.5161C14.8802 19.7901 14.2466 20.4354 13.9898 21.2451C13.9147 21.482 13.7088 21.6668 13.4602 21.6668H13.3599C11.6799 21.6668 10.3333 20.3202 10.3333 18.6402V13.3602C10.3333 11.6802 11.6799 10.3335 13.3599 10.3335H18.6399C20.3199 10.3335 21.6666 11.6802 21.6666 13.3602Z" fill="#1D33F8"/>
<stop stop-color="#40AAF8"/>
</g>
</svg>

</svg>