


<svg width="120" height="35" viewBox="0 0 56 90" fill="none" xmlns="http://www.w3.org/2000/svg" >
<circle opacity="1" cx="30" cy="48" r="40.05" stroke="url(#paint0_linear_658_892)" stroke-width="2.5"/>
<defs>
<linearGradient id="paint0_linear_658_892" x1="44.5747" y1="-34.0392" x2="-17.0024" y2="-24.8234" gradientUnits="userSpaceOnUse">
<stop offset="1" stop-color="#1D33F8"/>
</linearGradient>
</defs>


<svg width="65" height="100" viewBox="0 0 35 35" fill="none" xmlns="http://www.w3.org/2000/svg">

<g opacity="1" filter="url(#filter0_d_701_1256)">
<stop stop-color="#40AAF8"/>
<path d="M25.6265 2.6665H20.2932C18.247 2.6665 16.5655 4.47845 16.3232 6.50095C16.2903 6.77513 16.5171 6.99984 16.7932 6.99984H22.9599C23.5065 6.99984 23.9599 7.45317 23.9599 7.99984C23.9599 8.5465 23.5065 8.99984 22.9599 8.99984H16.7932C16.5171 8.99984 16.2932 9.2237 16.2932 9.49984V11.8332C16.2932 12.1093 16.5171 12.3332 16.7932 12.3332H20.0399C20.5865 12.3332 21.0399 12.7865 21.0399 13.3332C21.0399 13.8798 20.5865 14.3332 20.0399 14.3332H16.7932C16.5171 14.3332 16.2932 14.557 16.2932 14.8332V17.1048C16.2932 17.379 16.514 17.602 16.7882 17.6048L22.9599 17.6665C23.5199 17.6665 23.9599 18.1198 23.9599 18.6798C23.9465 19.2265 23.5065 19.6665 22.9599 19.6665C22.9465 19.6665 22.9465 19.6665 22.9465 19.6665L16.7982 19.6049C16.5201 19.6021 16.2932 19.8268 16.2932 20.1049V22.4998C16.2932 22.776 16.5171 22.9998 16.7932 22.9998H21.4932C22.0532 22.9998 22.4932 23.4532 22.4932 23.9998C22.4932 24.5465 22.0532 24.9998 21.4932 24.9998H16.7932C16.5171 24.9998 16.2903 25.2245 16.3232 25.4987C16.5655 27.5212 18.247 29.3332 20.2932 29.3332H25.6265C27.8265 29.3332 29.6265 27.5465 29.6265 25.3332V6.6665C29.6265 4.45317 27.8265 2.6665 25.6265 2.6665Z" fill="#1D33F8"/>
<path d="M12.2533 6.59984V7.83317C12.2533 8.10931 12.0294 8.33317 11.7533 8.33317H4.87329C4.59715 8.33317 4.37329 8.10931 4.37329 7.83317V6.59984C4.37329 4.43984 6.14662 2.6665 8.31996 2.6665C10.48 2.6665 12.2533 4.43984 12.2533 6.59984Z" fill="#1D33F8"/>
<path d="M4.37329 23.8802C4.37329 24.4802 4.62662 25.4002 4.94662 25.9068L6.02662 27.7202C7.29329 29.8268 9.34662 29.8268 10.6 27.7202L11.6933 25.9068C12 25.4002 12.2533 24.4802 12.2533 23.8802V10.8335C12.2533 10.5574 12.0294 10.3335 11.7533 10.3335H4.87329C4.59715 10.3335 4.37329 10.5574 4.37329 10.8335V23.8802Z" fill="#1D33F8"/>
</g>
<defs>
<filter id="filter0_d_701_1256" x="-3" y="0" width="40" height="40" filterUnits="userSpaceOnUse" color-interpolation-filters="sRGB">
<feFlood flood-opacity="0" result="BackgroundImageFix"/>
<feColorMatrix in="SourceAlpha" type="matrix" values="0 0 0 0 0 0 0 0 0 0 0 0 0 0 0 0 0 0 127 0" result="hardAlpha"/>
<feOffset dy="4"/>
<feGaussianBlur stdDeviation="2"/>
<feComposite in2="hardAlpha" operator="out"/>
<feColorMatrix type="matrix" values="0 0 0 0 0 0 0 0 0 0 0 0 0 0 0 0 0 0 0.25 0"/>
<feBlend mode="normal" in2="BackgroundImageFix" result="effect1_dropShadow_701_1256"/>
<feBlend mode="normal" in="SourceGraphic" in2="effect1_dropShadow_701_1256" result="shape"/>
</filter>
</defs>
</svg>

</svg>