


<svg width="120" height="35" viewBox="0 0 56 90" fill="none" xmlns="http://www.w3.org/2000/svg" >
<circle opacity="1" cx="30" cy="48" r="40.05" stroke="url(#paint0_linear_658_892)" stroke-width="2.5"/>
<defs>
<linearGradient id="paint0_linear_658_892" x1="44.5747" y1="-34.0392" x2="-17.0024" y2="-24.8234" gradientUnits="userSpaceOnUse">
<stop offset="1" stop-color="#1D33F8"/>
</linearGradient>
</defs>

<svg width="65" height="100" viewBox="0 0 35 35" fill="none" xmlns="http://www.w3.org/2000/svg">
<path d="M21.5867 2.6665H10.4134C5.56008 2.6665 2.66675 5.55984 2.66675 10.4132V21.5732C2.66675 26.4398 5.56008 29.3332 10.4134 29.3332H21.5734C26.4267 29.3332 29.3201 26.4398 29.3201 21.5865V10.4132C29.3334 5.55984 26.4401 2.6665 21.5867 2.6665ZM21.8801 13.1065C21.0667 15.4265 18.8801 16.9865 16.4267 16.9865C16.4134 16.9865 16.4134 16.9865 16.4001 16.9865L13.6534 16.9732C13.6534 16.9732 13.6534 16.9732 13.6401 16.9732C12.6267 16.9732 11.7467 17.6532 11.4801 18.6265C12.6667 18.9998 13.5334 20.1065 13.5334 21.4132C13.5334 23.0265 12.2134 24.3465 10.6001 24.3465C8.98675 24.3465 7.66675 23.0265 7.66675 21.4132C7.66675 20.2265 8.38675 19.1998 9.40008 18.7465V12.9332C8.38675 12.5332 7.66675 11.5465 7.66675 10.3998C7.66675 8.89317 8.89342 7.6665 10.4001 7.6665C11.9067 7.6665 13.1334 8.89317 13.1334 10.3998C13.1334 11.5598 12.4134 12.5332 11.4001 12.9332V15.6265C12.0534 15.2132 12.8267 14.9732 13.6401 14.9732H13.6534L16.4001 14.9865C17.9734 15.0398 19.3734 14.0265 19.9334 12.5598C19.2801 12.0532 18.8534 11.2798 18.8534 10.3998C18.8534 8.89317 20.0801 7.6665 21.5867 7.6665C23.0934 7.6665 24.3201 8.89317 24.3201 10.3998C24.3334 11.8132 23.2534 12.9598 21.8801 13.1065Z" fill="#1D33F8"/>
</svg>


</svg>