<svg width="178" height="32" viewBox="0 0 178 32" fill="none" xmlns="http://www.w3.org/2000/svg">
<path d="M45.0973 25.9742C44.6017 25.9742 44.2163 25.754 43.9685 25.3413C43.6931 24.9286 43.6656 24.4608 43.8859 23.9931L51.2922 6.32841C51.5675 5.72308 51.9805 5.42041 52.5862 5.42041C53.2195 5.42041 53.66 5.72308 53.8803 6.32841L61.3142 24.0481C61.5069 24.5434 61.4794 24.9836 61.2316 25.3688C60.9838 25.754 60.5983 25.9742 60.0752 25.9742C59.7999 25.9742 59.5521 25.8916 59.3318 25.754C59.084 25.6165 58.9188 25.3963 58.8087 25.1487L52.2834 8.94234H53.0268L46.3913 25.1487C46.2812 25.4239 46.0885 25.644 45.8407 25.7815C45.5654 25.9191 45.3451 25.9742 45.0973 25.9742ZM46.4739 21.4617L47.5202 19.2055H57.845L58.9188 21.4617H46.4739Z" fill="white"/>
<path d="M66.0786 25.9742C65.6931 25.9742 65.3627 25.8366 65.115 25.5889C64.8672 25.3138 64.7295 25.0111 64.7295 24.6259V6.79616C64.7295 6.38344 64.8672 6.05326 65.115 5.80562C65.3627 5.55799 65.6931 5.42041 66.0786 5.42041C66.4916 5.42041 66.8495 5.5855 67.1249 5.91568L78.6336 21.1865V6.79616C78.6336 6.38344 78.7713 6.05326 79.019 5.80562C79.2944 5.55799 79.5972 5.42041 79.9827 5.42041C80.3957 5.42041 80.6986 5.55799 80.9464 5.80562C81.1941 6.05326 81.3043 6.38344 81.3043 6.79616V24.6259C81.3043 25.0111 81.1941 25.3413 80.9464 25.5889C80.6986 25.8641 80.3682 25.9742 79.9827 25.9742C79.8175 25.9742 79.6248 25.9466 79.4045 25.8641C79.2118 25.7815 79.0466 25.6715 78.9089 25.5064L67.4552 10.2355V24.5984C67.4552 24.9836 67.3176 25.3138 67.0698 25.5614C66.822 25.8641 66.4916 25.9742 66.0786 25.9742Z" fill="white"/>
<path d="M92.758 26.2492C91.6291 26.2492 90.5554 26.0841 89.5366 25.7264C88.5179 25.3687 87.6369 24.8735 86.866 24.2406C86.1226 23.6078 85.5444 22.8924 85.214 22.0669C85.0488 21.7092 85.0488 21.3515 85.214 21.0489C85.3792 20.7462 85.7096 20.5261 86.1501 20.4435C86.453 20.361 86.7834 20.416 87.0862 20.5811C87.3891 20.7462 87.6369 20.9938 87.7745 21.324C87.9948 21.7643 88.3252 22.177 88.8208 22.5347C89.3164 22.8924 89.8946 23.195 90.5829 23.4427C91.2712 23.6628 91.9871 23.7729 92.7304 23.7729C93.584 23.7729 94.3549 23.6353 95.0707 23.3876C95.7866 23.1125 96.3648 22.7548 96.8053 22.232C97.2458 21.7367 97.4661 21.1039 97.4661 20.3885C97.4661 19.453 97.1082 18.6275 96.3648 17.8846C95.6489 17.1417 94.4375 16.7015 92.758 16.5089C90.5829 16.2888 88.8759 15.6559 87.6093 14.5828C86.3704 13.5097 85.7371 12.189 85.7371 10.6207C85.7371 9.46503 86.0675 8.47449 86.7008 7.67655C87.3615 6.87861 88.2426 6.24577 89.3439 5.83304C90.4728 5.42032 91.7117 5.2002 93.0608 5.2002C94.1346 5.2002 95.0707 5.33777 95.8692 5.64044C96.6676 5.9431 97.356 6.35583 97.9617 6.87861C98.5674 7.4014 99.0905 8.03425 99.5035 8.74964C99.7513 9.13485 99.8615 9.49254 99.8064 9.85024C99.7513 10.1804 99.5861 10.4556 99.2833 10.6482C98.9529 10.8683 98.5949 10.8958 98.2095 10.7858C97.824 10.6757 97.5212 10.4281 97.3284 10.0979C97.0531 9.6026 96.6952 9.16236 96.3097 8.80467C95.8967 8.44697 95.4287 8.17182 94.878 7.97922C94.3274 7.78661 93.6941 7.67655 92.9507 7.67655C91.6567 7.64903 90.5554 7.89667 89.6743 8.39194C88.7933 8.88721 88.3527 9.65763 88.3527 10.7032C88.3527 11.226 88.4904 11.7213 88.7657 12.2165C89.041 12.7118 89.5366 13.1245 90.28 13.4547C90.9959 13.8124 92.0697 14.06 93.4188 14.1976C95.5113 14.4177 97.1357 15.0506 98.3196 16.0962C99.476 17.1692 100.082 18.545 100.082 20.306C100.082 21.2965 99.8615 22.177 99.476 22.9199C99.063 23.6628 98.5123 24.2681 97.824 24.7634C97.1357 25.2587 96.3373 25.6439 95.4562 25.8915C94.6302 26.1392 93.6941 26.2492 92.758 26.2492Z" fill="white"/>
<path d="M113.518 26.2494C111.976 26.2494 110.572 26.0017 109.278 25.479C107.984 24.9562 106.882 24.2408 105.974 23.3053C105.065 22.3698 104.349 21.2416 103.826 19.9484C103.303 18.6552 103.055 17.252 103.055 15.6836C103.055 14.1428 103.303 12.7395 103.826 11.4463C104.322 10.1531 105.065 9.05247 105.974 8.11696C106.882 7.18145 108.011 6.43854 109.278 5.94327C110.572 5.42049 111.976 5.17285 113.518 5.17285C115.06 5.17285 116.464 5.42049 117.758 5.94327C119.024 6.46606 120.126 7.18145 121.062 8.11696C121.998 9.05247 122.714 10.1531 123.209 11.4463C123.705 12.7395 123.98 14.1428 123.98 15.6836C123.98 17.2244 123.733 18.6552 123.209 19.9484C122.686 21.2416 121.97 22.3422 121.062 23.3053C120.126 24.2408 119.024 24.9837 117.758 25.479C116.464 26.0017 115.06 26.2494 113.518 26.2494ZM113.518 23.773C114.647 23.773 115.721 23.5804 116.657 23.1677C117.62 22.755 118.446 22.1772 119.135 21.4618C119.85 20.7464 120.374 19.8659 120.759 18.9029C121.144 17.9123 121.337 16.8667 121.337 15.7111C121.337 14.583 121.144 13.5099 120.759 12.5194C120.374 11.5288 119.85 10.6759 119.135 9.96047C118.419 9.24508 117.593 8.66726 116.657 8.25454C115.693 7.84181 114.647 7.64921 113.518 7.64921C112.389 7.64921 111.315 7.84181 110.379 8.25454C109.416 8.66726 108.59 9.21756 107.901 9.96047C107.213 10.6759 106.662 11.5563 106.277 12.5194C105.891 13.5099 105.699 14.5555 105.699 15.7111C105.699 16.8392 105.891 17.9123 106.277 18.9029C106.662 19.8934 107.213 20.7464 107.901 21.4618C108.59 22.1772 109.416 22.755 110.379 23.1677C111.315 23.5804 112.362 23.773 113.518 23.773Z" fill="white"/>
<path d="M129.319 25.9742C128.934 25.9742 128.603 25.8366 128.356 25.5889C128.108 25.3413 127.97 25.0111 127.97 24.6259V6.79616C127.97 6.38344 128.108 6.05326 128.356 5.80562C128.603 5.55799 128.934 5.42041 129.319 5.42041H134.055C135.377 5.42041 136.533 5.69556 137.552 6.24586C138.57 6.79616 139.369 7.56658 139.947 8.52961C140.525 9.49264 140.801 10.6208 140.801 11.8864C140.801 13.0696 140.525 14.1427 139.947 15.0782C139.369 16.0137 138.57 16.7291 137.552 17.2519C136.533 17.7747 135.377 18.0498 134.055 18.0498H130.696V24.5984C130.696 24.9836 130.558 25.3138 130.311 25.5614C130.035 25.8641 129.732 25.9742 129.319 25.9742ZM130.696 15.5459H134.055C134.853 15.5459 135.569 15.3809 136.203 15.0782C136.808 14.7755 137.304 14.3353 137.662 13.785C138.02 13.2347 138.185 12.6018 138.185 11.914C138.185 11.1435 138.02 10.4557 137.662 9.85033C137.304 9.245 136.836 8.77725 136.203 8.44707C135.597 8.11689 134.881 7.95179 134.055 7.95179H130.696V15.5459ZM140.25 25.9742C140.002 25.9742 139.782 25.9191 139.589 25.8091C139.396 25.699 139.204 25.5339 139.066 25.3138L134.33 17.6921L137.001 16.9217L141.324 23.883C141.627 24.4058 141.682 24.8736 141.461 25.3138C141.214 25.754 140.801 25.9742 140.25 25.9742Z" fill="white"/>
<path d="M146.474 26.4145C146.061 26.4145 145.703 26.2769 145.4 25.9743C145.097 25.6716 144.96 25.3139 144.96 24.9012C144.96 24.461 145.125 24.1033 145.428 23.8006C145.731 23.4979 146.089 23.3604 146.502 23.3604C146.915 23.3604 147.272 23.5254 147.575 23.8281C147.878 24.1308 148.016 24.4885 148.016 24.9287C148.016 25.3414 147.878 25.6991 147.575 26.0018C147.272 26.2494 146.915 26.4145 146.474 26.4145Z" fill="white"/>
<path d="M152.256 25.9743C151.954 25.9743 151.706 25.8918 151.513 25.6717C151.32 25.4791 151.21 25.2314 151.21 24.9288V6.43864C151.21 6.13597 151.32 5.88834 151.513 5.69573C151.706 5.50313 151.954 5.39307 152.256 5.39307C152.559 5.39307 152.807 5.50313 153 5.69573C153.193 5.88834 153.303 6.13597 153.303 6.43864V24.9563C153.303 25.2589 153.193 25.5066 153 25.6992C152.78 25.8918 152.559 25.9743 152.256 25.9743Z" fill="white"/>
<path d="M166.905 26.2496C165.39 26.2496 163.959 25.9744 162.692 25.4516C161.398 24.9288 160.297 24.1859 159.361 23.2504C158.424 22.3149 157.681 21.1868 157.185 19.8936C156.662 18.6279 156.387 17.2246 156.387 15.6838C156.387 14.1704 156.635 12.7672 157.158 11.5015C157.681 10.2083 158.397 9.10768 159.333 8.14465C160.269 7.20914 161.37 6.46623 162.664 5.94344C163.959 5.42066 165.363 5.14551 166.877 5.14551C168.391 5.14551 169.795 5.42066 171.062 5.94344C172.356 6.46623 173.457 7.20914 174.421 8.14465C175.357 9.08016 176.101 10.2083 176.624 11.5015C177.147 12.7947 177.395 14.1704 177.395 15.6838C177.395 17.1971 177.147 18.6279 176.624 19.8936C176.101 21.1868 175.385 22.2874 174.421 23.2504C173.485 24.1859 172.356 24.9288 171.062 25.4516C169.823 25.9744 168.419 26.2496 166.905 26.2496ZM166.905 24.296C168.116 24.296 169.245 24.0759 170.264 23.6631C171.31 23.2229 172.191 22.6176 172.962 21.8471C173.733 21.0767 174.311 20.1412 174.751 19.0956C175.164 18.0501 175.385 16.9219 175.385 15.6838C175.385 14.4731 175.164 13.345 174.751 12.2994C174.338 11.2538 173.733 10.3459 172.962 9.54792C172.191 8.77749 171.31 8.17216 170.264 7.73192C169.217 7.29168 168.116 7.09908 166.905 7.09908C165.666 7.09908 164.537 7.3192 163.518 7.73192C162.472 8.17216 161.591 8.77749 160.82 9.54792C160.049 10.3183 159.471 11.2538 159.03 12.2994C158.617 13.345 158.397 14.4731 158.397 15.6838C158.397 16.9219 158.617 18.0501 159.03 19.0956C159.443 20.1412 160.049 21.0492 160.82 21.8471C161.591 22.6176 162.472 23.2229 163.518 23.6631C164.537 24.0759 165.666 24.296 166.905 24.296Z" fill="white"/>
<path d="M19.7959 5.25543C19.7959 5.25543 13.6561 22.5349 11.5911 28.6707C11.1231 30.0465 10.1869 30.7894 9.14069 30.7894H1.21122C1.01849 30.7894 0.825761 30.6793 0.71563 30.5418C0.605499 30.3767 0.550433 30.1566 0.633031 29.9639C7.95677 10.5108 9.77394 0.963088 12.6098 0.853027H18.3917C20.9523 0.853027 20.7871 2.91666 19.7959 5.25543Z" fill="url(#paint0_linear_31_781)"/>
<path opacity="0.13" d="M19.7959 5.25543C19.7959 5.25543 13.6561 22.5349 11.5911 28.6707C11.1231 30.0465 10.1869 30.7894 9.14069 30.7894H1.21122C1.01849 30.7894 0.825761 30.6793 0.71563 30.5418C0.605499 30.3767 0.550433 30.1566 0.633031 29.9639C7.95677 10.5108 9.77394 0.963088 12.6098 0.853027H18.3917C20.9523 0.853027 20.7871 2.91666 19.7959 5.25543Z" fill="url(#paint1_linear_31_781)"/>
<path opacity="0.56" d="M12.8852 0.853027C12.8576 0.853027 12.8026 0.853027 12.775 0.853027C9.99421 1.21072 8.1495 10.7584 0.90836 29.9089C0.825762 30.129 0.880827 30.3767 1.01849 30.5418C1.12862 30.6518 1.29382 30.7344 1.45902 30.7344H1.21122C1.01849 30.7344 0.825761 30.6243 0.71563 30.4867C0.605499 30.3216 0.550433 30.1015 0.633031 29.9089C7.95677 10.5108 9.77394 0.963088 12.6098 0.853027H12.8852Z" fill="url(#paint2_linear_31_781)"/>
<path d="M29.5704 31.1196C29.0197 31.1471 28.056 31.1196 27.3677 31.1196C26.9272 31.1196 26.5417 30.8444 26.3765 30.4317C16.1343 5.61313 14.3171 0.853027 12.6101 0.853027H19.1629C22.9625 0.853027 24.0087 1.21072 25.9085 5.06283C27.6981 8.72233 31.773 18.7378 34.0031 24.4609C35.6 28.5607 33.7829 31.0095 29.5704 31.1196Z" fill="url(#paint3_linear_31_781)"/>
<path opacity="0.56" d="M28.1111 31.1471C27.8358 31.1471 27.588 31.1471 27.3677 31.1471C26.9272 31.1471 26.5417 30.8719 26.3765 30.4592C16.1343 5.61313 14.3171 0.853027 12.6101 0.853027H12.8579C14.5925 0.853027 16.4096 5.61313 26.5968 30.4592C26.762 30.8719 27.1475 31.1471 27.588 31.1471C27.7807 31.1471 27.9459 31.1471 28.1111 31.1471Z" fill="url(#paint4_linear_31_781)"/>
<path opacity="0.11" d="M29.569 31.1194C29.0183 31.1469 28.0547 31.1194 27.3663 31.1194C26.9258 31.1194 26.5404 30.8443 26.3752 30.4315C16.4633 6.4109 14.481 0.880371 12.7739 0.880371C21.0063 0.880371 26.1274 25.7815 34.4148 25.7815C35.1581 29.0833 33.3134 31.0369 29.569 31.1194Z" fill="url(#paint5_linear_31_781)"/>
<defs>
<linearGradient id="paint0_linear_31_781" x1="15.4933" y1="5.91095" x2="4.1703" y2="30.9323" gradientUnits="userSpaceOnUse">
<stop stop-color="#184BCC"/>
<stop offset="1" stop-color="#477BFF"/>
</linearGradient>
<linearGradient id="paint1_linear_31_781" x1="4.00774" y1="34.3593" x2="14.1483" y2="7.06926" gradientUnits="userSpaceOnUse">
<stop stop-color="#F6EF7E"/>
<stop offset="1" stop-color="white" stop-opacity="0"/>
</linearGradient>
<linearGradient id="paint2_linear_31_781" x1="11.9665" y1="-0.0718636" x2="2.18854" y2="28.9806" gradientUnits="userSpaceOnUse">
<stop stop-color="#A7AED0"/>
<stop offset="0.5084" stop-color="#7193EA"/>
<stop offset="0.9916" stop-color="#2B52B8"/>
</linearGradient>
<linearGradient id="paint3_linear_31_781" x1="33.4498" y1="31.2496" x2="17.459" y2="1.69909" gradientUnits="userSpaceOnUse">
<stop stop-color="#608CFB"/>
<stop offset="1" stop-color="#3E73FB"/>
</linearGradient>
<linearGradient id="paint4_linear_31_781" x1="13.7849" y1="0.581509" x2="26.7801" y2="31.095" gradientUnits="userSpaceOnUse">
<stop stop-color="#C2D5FA"/>
<stop offset="0.5084" stop-color="#443BAF"/>
<stop offset="0.9916" stop-color="#C9C0FF"/>
</linearGradient>
<linearGradient id="paint5_linear_31_781" x1="35.7052" y1="31.5039" x2="14.3377" y2="9.09221" gradientUnits="userSpaceOnUse">
<stop stop-color="#F6EF7E"/>
<stop offset="1" stop-color="white" stop-opacity="0"/>
</linearGradient>
</defs>
</svg>
