<svg width="178" height="32" viewBox="0 0 178 32" fill="none" xmlns="http://www.w3.org/2000/svg">
<path d="M45.0973 25.9742C44.6017 25.9742 44.2163 25.754 43.9685 25.3413C43.6931 24.9286 43.6656 24.4608 43.8859 23.9931L51.2922 6.32841C51.5675 5.72308 51.9805 5.42041 52.5862 5.42041C53.2195 5.42041 53.66 5.72308 53.8803 6.32841L61.3142 24.0481C61.5069 24.5434 61.4794 24.9836 61.2316 25.3688C60.9838 25.754 60.5983 25.9742 60.0752 25.9742C59.7999 25.9742 59.5521 25.8916 59.3318 25.754C59.084 25.6165 58.9188 25.3963 58.8087 25.1487L52.2834 8.94234H53.0268L46.3913 25.1487C46.2812 25.4239 46.0885 25.644 45.8407 25.7815C45.5654 25.9191 45.3451 25.9742 45.0973 25.9742ZM46.4739 21.4617L47.5202 19.2055H57.845L58.9188 21.4617H46.4739Z" fill="#19172C"/>
<path d="M66.0786 25.9742C65.6931 25.9742 65.3627 25.8366 65.115 25.5889C64.8672 25.3138 64.7295 25.0111 64.7295 24.6259V6.79616C64.7295 6.38344 64.8672 6.05326 65.115 5.80562C65.3627 5.55799 65.6931 5.42041 66.0786 5.42041C66.4916 5.42041 66.8495 5.5855 67.1249 5.91568L78.6336 21.1865V6.79616C78.6336 6.38344 78.7713 6.05326 79.019 5.80562C79.2944 5.55799 79.5972 5.42041 79.9827 5.42041C80.3957 5.42041 80.6986 5.55799 80.9464 5.80562C81.1941 6.05326 81.3043 6.38344 81.3043 6.79616V24.6259C81.3043 25.0111 81.1941 25.3413 80.9464 25.5889C80.6986 25.8641 80.3682 25.9742 79.9827 25.9742C79.8175 25.9742 79.6248 25.9466 79.4045 25.8641C79.2118 25.7815 79.0466 25.6715 78.9089 25.5064L67.4552 10.2355V24.5984C67.4552 24.9836 67.3176 25.3138 67.0698 25.5614C66.822 25.8641 66.4916 25.9742 66.0786 25.9742Z" fill="#19172C"/>
<path d="M92.758 26.2493C91.6291 26.2493 90.5554 26.0842 89.5366 25.7265C88.5179 25.3689 87.6369 24.8736 86.866 24.2407C86.1226 23.6079 85.5444 22.8925 85.214 22.067C85.0488 21.7093 85.0488 21.3517 85.214 21.049C85.3792 20.7463 85.7096 20.5262 86.1501 20.4437C86.453 20.3611 86.7834 20.4161 87.0862 20.5812C87.3891 20.7463 87.6369 20.994 87.7745 21.3241C87.9948 21.7644 88.3252 22.1771 88.8208 22.5348C89.3164 22.8925 89.8946 23.1952 90.5829 23.4428C91.2712 23.6629 91.9871 23.773 92.7304 23.773C93.584 23.773 94.3549 23.6354 95.0707 23.3878C95.7866 23.1126 96.3648 22.7549 96.8053 22.2321C97.2458 21.7369 97.4661 21.104 97.4661 20.3886C97.4661 19.4531 97.1082 18.6277 96.3648 17.8848C95.6489 17.1419 94.4375 16.7016 92.758 16.509C90.5829 16.2889 88.8759 15.656 87.6093 14.583C86.3704 13.5099 85.7371 12.1891 85.7371 10.6208C85.7371 9.46515 86.0675 8.47461 86.7008 7.67667C87.3615 6.87874 88.2426 6.24589 89.3439 5.83316C90.4728 5.42044 91.7117 5.20032 93.0608 5.20032C94.1346 5.20032 95.0707 5.33789 95.8692 5.64056C96.6676 5.94322 97.356 6.35595 97.9617 6.87874C98.5674 7.40152 99.0905 8.03437 99.5035 8.74976C99.7513 9.13497 99.8615 9.49267 99.8064 9.85036C99.7513 10.1805 99.5861 10.4557 99.2833 10.6483C98.9529 10.8684 98.5949 10.8959 98.2095 10.7859C97.824 10.6758 97.5212 10.4282 97.3284 10.098C97.0531 9.60273 96.6952 9.16249 96.3097 8.80479C95.8967 8.44709 95.4287 8.17194 94.878 7.97934C94.3274 7.78673 93.6941 7.67667 92.9507 7.67667C91.6567 7.64916 90.5554 7.89679 89.6743 8.39206C88.7933 8.88733 88.3527 9.65776 88.3527 10.7033C88.3527 11.2261 88.4904 11.7214 88.7657 12.2167C89.041 12.7119 89.5366 13.1247 90.28 13.4548C90.9959 13.8125 92.0697 14.0602 93.4188 14.1977C95.5113 14.4179 97.1357 15.0507 98.3196 16.0963C99.476 17.1694 100.082 18.5451 100.082 20.3061C100.082 21.2966 99.8615 22.1771 99.476 22.92C99.063 23.6629 98.5123 24.2682 97.824 24.7635C97.1357 25.2588 96.3373 25.644 95.4562 25.8916C94.6302 26.1393 93.6941 26.2493 92.758 26.2493Z" fill="#19172C"/>
<path d="M113.518 26.2493C111.976 26.2493 110.572 26.0016 109.278 25.4788C107.984 24.956 106.882 24.2407 105.974 23.3051C105.065 22.3696 104.349 21.2415 103.826 19.9483C103.303 18.6551 103.055 17.2518 103.055 15.6835C103.055 14.1426 103.303 12.7394 103.826 11.4462C104.322 10.153 105.065 9.05235 105.974 8.11684C106.882 7.18133 108.011 6.43842 109.278 5.94315C110.572 5.42037 111.976 5.17273 113.518 5.17273C115.06 5.17273 116.464 5.42037 117.758 5.94315C119.024 6.46594 120.126 7.18133 121.062 8.11684C121.998 9.05235 122.714 10.153 123.209 11.4462C123.705 12.7394 123.98 14.1426 123.98 15.6835C123.98 17.2243 123.733 18.6551 123.209 19.9483C122.686 21.2415 121.97 22.3421 121.062 23.3051C120.126 24.2407 119.024 24.9836 117.758 25.4788C116.464 26.0016 115.06 26.2493 113.518 26.2493ZM113.518 23.7729C114.647 23.7729 115.721 23.5803 116.657 23.1676C117.62 22.7548 118.446 22.177 119.135 21.4616C119.85 20.7462 120.374 19.8658 120.759 18.9027C121.144 17.9122 121.337 16.8666 121.337 15.711C121.337 14.5829 121.144 13.5098 120.759 12.5192C120.374 11.5287 119.85 10.6757 119.135 9.96035C118.419 9.24496 117.593 8.66714 116.657 8.25442C115.693 7.84169 114.647 7.64908 113.518 7.64908C112.389 7.64908 111.315 7.84169 110.379 8.25442C109.416 8.66714 108.59 9.21744 107.901 9.96035C107.213 10.6757 106.662 11.5562 106.277 12.5192C105.891 13.5098 105.699 14.5554 105.699 15.711C105.699 16.8391 105.891 17.9122 106.277 18.9027C106.662 19.8933 107.213 20.7462 107.901 21.4616C108.59 22.177 109.416 22.7548 110.379 23.1676C111.315 23.5803 112.362 23.7729 113.518 23.7729Z" fill="#19172C"/>
<path d="M129.319 25.9742C128.934 25.9742 128.603 25.8366 128.356 25.5889C128.108 25.3413 127.97 25.0111 127.97 24.6259V6.79616C127.97 6.38344 128.108 6.05326 128.356 5.80562C128.603 5.55799 128.934 5.42041 129.319 5.42041H134.055C135.377 5.42041 136.533 5.69556 137.552 6.24586C138.57 6.79616 139.369 7.56658 139.947 8.52961C140.525 9.49264 140.801 10.6208 140.801 11.8864C140.801 13.0696 140.525 14.1427 139.947 15.0782C139.369 16.0137 138.57 16.7291 137.552 17.2519C136.533 17.7747 135.377 18.0498 134.055 18.0498H130.696V24.5984C130.696 24.9836 130.558 25.3138 130.311 25.5614C130.035 25.8641 129.732 25.9742 129.319 25.9742ZM130.696 15.5459H134.055C134.853 15.5459 135.569 15.3809 136.203 15.0782C136.808 14.7755 137.304 14.3353 137.662 13.785C138.02 13.2347 138.185 12.6018 138.185 11.914C138.185 11.1435 138.02 10.4557 137.662 9.85033C137.304 9.245 136.836 8.77725 136.203 8.44707C135.597 8.11689 134.881 7.95179 134.055 7.95179H130.696V15.5459ZM140.25 25.9742C140.002 25.9742 139.782 25.9191 139.589 25.8091C139.396 25.699 139.204 25.5339 139.066 25.3138L134.33 17.6921L137.001 16.9217L141.324 23.883C141.627 24.4058 141.682 24.8736 141.461 25.3138C141.214 25.754 140.801 25.9742 140.25 25.9742Z" fill="#19172C"/>
<path d="M146.474 26.4144C146.061 26.4144 145.703 26.2768 145.4 25.9742C145.097 25.6715 144.96 25.3138 144.96 24.9011C144.96 24.4608 145.125 24.1031 145.428 23.8005C145.731 23.4978 146.089 23.3602 146.502 23.3602C146.915 23.3602 147.272 23.5253 147.575 23.828C147.878 24.1306 148.016 24.4883 148.016 24.9286C148.016 25.3413 147.878 25.699 147.575 26.0017C147.272 26.2493 146.915 26.4144 146.474 26.4144Z" fill="#19172C"/>
<path d="M152.256 25.9741C151.954 25.9741 151.706 25.8915 151.513 25.6714C151.32 25.4788 151.21 25.2312 151.21 24.9285V6.43839C151.21 6.13573 151.32 5.88809 151.513 5.69549C151.706 5.50288 151.954 5.39282 152.256 5.39282C152.559 5.39282 152.807 5.50288 153 5.69549C153.193 5.88809 153.303 6.13573 153.303 6.43839V24.956C153.303 25.2587 153.193 25.5063 153 25.6989C152.78 25.8915 152.559 25.9741 152.256 25.9741Z" fill="#19172C"/>
<path d="M166.905 26.2492C165.39 26.2492 163.959 25.974 162.692 25.4513C161.398 24.9285 160.297 24.1856 159.361 23.25C158.424 22.3145 157.681 21.1864 157.185 19.8932C156.662 18.6275 156.387 17.2242 156.387 15.6834C156.387 14.1701 156.635 12.7668 157.158 11.5011C157.681 10.2079 158.397 9.10731 159.333 8.14428C160.269 7.20877 161.37 6.46586 162.664 5.94308C163.959 5.42029 165.363 5.14514 166.877 5.14514C168.391 5.14514 169.795 5.42029 171.062 5.94308C172.356 6.46586 173.457 7.20877 174.421 8.14428C175.357 9.07979 176.101 10.2079 176.624 11.5011C177.147 12.7943 177.395 14.1701 177.395 15.6834C177.395 17.1967 177.147 18.6275 176.624 19.8932C176.101 21.1864 175.385 22.287 174.421 23.25C173.485 24.1856 172.356 24.9285 171.062 25.4513C169.823 25.974 168.419 26.2492 166.905 26.2492ZM166.905 24.2956C168.116 24.2956 169.245 24.0755 170.264 23.6628C171.31 23.2225 172.191 22.6172 172.962 21.8468C173.733 21.0764 174.311 20.1408 174.751 19.0953C175.164 18.0497 175.385 16.9216 175.385 15.6834C175.385 14.4727 175.164 13.3446 174.751 12.2991C174.338 11.2535 173.733 10.3455 172.962 9.54755C172.191 8.77713 171.31 8.1718 170.264 7.73156C169.217 7.29132 168.116 7.09871 166.905 7.09871C165.666 7.09871 164.537 7.31883 163.518 7.73156C162.472 8.1718 161.591 8.77713 160.82 9.54755C160.049 10.318 159.471 11.2535 159.03 12.2991C158.617 13.3446 158.397 14.4727 158.397 15.6834C158.397 16.9216 158.617 18.0497 159.03 19.0953C159.443 20.1408 160.049 21.0488 160.82 21.8468C161.591 22.6172 162.472 23.2225 163.518 23.6628C164.537 24.0755 165.666 24.2956 166.905 24.2956Z" fill="#19172C"/>
<path d="M19.7959 5.25531C19.7959 5.25531 13.6561 22.5348 11.5911 28.6706C11.1231 30.0464 10.1869 30.7893 9.14069 30.7893H1.21122C1.01849 30.7893 0.825761 30.6792 0.71563 30.5416C0.605499 30.3765 0.550433 30.1564 0.633031 29.9638C7.95677 10.5107 9.77394 0.962965 12.6098 0.852905H18.3917C20.9523 0.852905 20.7871 2.91653 19.7959 5.25531Z" fill="url(#paint0_linear_812_700)"/>
<path opacity="0.13" d="M19.7959 5.25531C19.7959 5.25531 13.6561 22.5348 11.5911 28.6706C11.1231 30.0464 10.1869 30.7893 9.14069 30.7893H1.21122C1.01849 30.7893 0.825761 30.6792 0.71563 30.5416C0.605499 30.3765 0.550433 30.1564 0.633031 29.9638C7.95677 10.5107 9.77394 0.962965 12.6098 0.852905H18.3917C20.9523 0.852905 20.7871 2.91653 19.7959 5.25531Z" fill="url(#paint1_linear_812_700)"/>
<path opacity="0.56" d="M12.8852 0.852905C12.8576 0.852905 12.8026 0.852905 12.775 0.852905C9.99421 1.2106 8.1495 10.7583 0.90836 29.9088C0.825762 30.1289 0.880827 30.3766 1.01849 30.5416C1.12862 30.6517 1.29382 30.7342 1.45902 30.7342H1.21122C1.01849 30.7342 0.825761 30.6242 0.71563 30.4866C0.605499 30.3215 0.550433 30.1014 0.633031 29.9088C7.95677 10.5107 9.77394 0.962965 12.6098 0.852905H12.8852Z" fill="url(#paint2_linear_812_700)"/>
<path d="M29.5704 31.1195C29.0197 31.147 28.056 31.1195 27.3677 31.1195C26.9272 31.1195 26.5417 30.8443 26.3765 30.4316C16.1343 5.61301 14.3171 0.852905 12.6101 0.852905H19.1629C22.9625 0.852905 24.0087 1.2106 25.9085 5.06271C27.6981 8.72221 31.773 18.7377 34.0031 24.4608C35.6 28.5606 33.7829 31.0094 29.5704 31.1195Z" fill="url(#paint3_linear_812_700)"/>
<path opacity="0.56" d="M28.1111 31.147C27.8358 31.147 27.588 31.147 27.3677 31.147C26.9272 31.147 26.5417 30.8718 26.3765 30.4591C16.1343 5.61301 14.3171 0.852905 12.6101 0.852905H12.8579C14.5925 0.852905 16.4096 5.61301 26.5968 30.4591C26.762 30.8718 27.1475 31.147 27.588 31.147C27.7807 31.147 27.9459 31.147 28.1111 31.147Z" fill="url(#paint4_linear_812_700)"/>
<path opacity="0.11" d="M29.569 31.1195C29.0183 31.147 28.0547 31.1195 27.3663 31.1195C26.9258 31.1195 26.5404 30.8444 26.3752 30.4317C16.4633 6.41102 14.481 0.880493 12.7739 0.880493C21.0063 0.880493 26.1274 25.7816 34.4148 25.7816C35.1581 29.0834 33.3134 31.037 29.569 31.1195Z" fill="url(#paint5_linear_812_700)"/>
<defs>
<linearGradient id="paint0_linear_812_700" x1="15.4933" y1="5.91083" x2="4.1703" y2="30.9321" gradientUnits="userSpaceOnUse">
<stop stop-color="#184BCC"/>
<stop offset="1" stop-color="#477BFF"/>
</linearGradient>
<linearGradient id="paint1_linear_812_700" x1="4.00774" y1="34.3592" x2="14.1483" y2="7.06913" gradientUnits="userSpaceOnUse">
<stop stop-color="#F6EF7E"/>
<stop offset="1" stop-color="white" stop-opacity="0"/>
</linearGradient>
<linearGradient id="paint2_linear_812_700" x1="11.9665" y1="-0.0719856" x2="2.18854" y2="28.9805" gradientUnits="userSpaceOnUse">
<stop stop-color="#A7AED0"/>
<stop offset="0.5084" stop-color="#7193EA"/>
<stop offset="0.9916" stop-color="#2B52B8"/>
</linearGradient>
<linearGradient id="paint3_linear_812_700" x1="33.4498" y1="31.2495" x2="17.459" y2="1.69896" gradientUnits="userSpaceOnUse">
<stop stop-color="#608CFB"/>
<stop offset="1" stop-color="#3E73FB"/>
</linearGradient>
<linearGradient id="paint4_linear_812_700" x1="13.7849" y1="0.581387" x2="26.7801" y2="31.0949" gradientUnits="userSpaceOnUse">
<stop stop-color="#C2D5FA"/>
<stop offset="0.5084" stop-color="#443BAF"/>
<stop offset="0.9916" stop-color="#C9C0FF"/>
</linearGradient>
<linearGradient id="paint5_linear_812_700" x1="35.7052" y1="31.504" x2="14.3377" y2="9.09233" gradientUnits="userSpaceOnUse">
<stop stop-color="#F6EF7E"/>
<stop offset="1" stop-color="white" stop-opacity="0"/>
</linearGradient>
</defs>
</svg>
