<svg width="36" height="36" viewBox="0 0 36 36" fill="none" xmlns="http://www.w3.org/2000/svg">
<path d="M17.9551 3C9.67508 3 2.95508 9.72 2.95508 18C2.95508 26.28 9.67508 33 17.9551 33C26.2351 33 32.9551 26.28 32.9551 18C32.9551 9.72 26.2501 3 17.9551 3ZM22.4551 21.345L18.1051 23.85C17.5651 24.165 16.9651 24.315 16.3801 24.315C15.7801 24.315 15.1951 24.165 14.6551 23.85C13.5751 23.22 12.9301 22.11 12.9301 20.85V15.825C12.9301 14.58 13.5751 13.455 14.6551 12.825C15.7351 12.195 17.0251 12.195 18.1201 12.825L22.4701 15.33C23.5501 15.96 24.1951 17.07 24.1951 18.33C24.1951 19.59 23.5501 20.715 22.4551 21.345Z" fill="white"/>
</svg>
