<svg width="167" height="70" viewBox="0 0 167 70" fill="none" xmlns="http://www.w3.org/2000/svg">
<path d="M69.8807 34.9124C69.8905 40.2723 68.5646 45.5504 66.0226 50.2722C65.5038 51.2439 64.9328 52.1868 64.3124 53.0973C59.6751 59.9568 52.5924 64.7963 44.5053 66.6314C36.4183 68.4664 27.934 67.159 20.7789 62.9753C13.6237 58.7914 8.335 52.0456 5.98867 44.11C3.64235 36.1744 4.4147 27.6452 8.14856 20.2575C8.76382 19.0378 9.45687 17.8586 10.2235 16.7274C14.1286 10.9501 19.7897 6.57611 26.3737 4.24917C32.9576 1.92226 40.1165 1.76536 46.7965 3.80157C53.4765 5.83782 59.3248 9.95959 63.4804 15.5602C67.636 21.1608 69.8797 27.9445 69.8807 34.9124Z" fill="white"/>
<path d="M66.0226 50.2723C69.975 42.9165 70.9428 34.3268 68.726 26.2791C66.509 18.2316 61.2767 11.3417 54.111 7.0339C46.9454 2.72611 38.3944 1.32999 30.226 3.13417C22.0576 4.93834 14.8966 9.80485 10.2235 16.7275H24.2776C28.3017 16.7275 31.3382 17.5354 33.3872 19.1511C35.4362 20.7669 36.4548 23.4088 36.443 27.0769C36.443 30.1906 35.6256 32.5766 33.9782 34.2576C32.7003 35.573 31.105 36.539 29.3455 37.0626L37.3459 53.0974H32.6603L25.0774 37.725H15.9402V34.1949H24.421C26.7884 34.1949 28.6455 33.6655 29.9918 32.6067C31.3382 31.5479 32.0089 29.7081 32.0039 27.087C32.0039 24.7336 31.3575 23.0099 30.0774 21.911C28.7972 20.8121 26.9109 20.2576 24.421 20.2576H8.14855C4.41469 27.6452 3.64236 36.1744 5.98866 44.11C8.33499 52.0456 13.6237 58.7915 20.7789 62.9754C27.934 67.1591 36.4183 68.4665 44.5053 66.6314C52.5924 64.7964 59.6751 59.9569 64.3124 53.0974H53.8346V20.4407H58.0323V50.2723H66.0226ZM50.5776 53.0974H41.5234V20.4407H45.7286V50.2723H50.5776V53.0974Z" fill="#E51C38"/>
<path d="M88.2988 45.8439V12.9038H101.224C104.951 12.9038 107.838 13.6623 109.886 15.1794C111.933 16.6965 112.956 19.1519 112.954 22.5457C112.979 23.8841 112.758 25.2158 112.303 26.4748C111.899 27.5614 111.28 28.5562 110.484 29.4002C109.676 30.2334 108.73 30.9209 107.687 31.4325C107.429 31.5439 107.177 31.6703 106.933 31.8113L113.993 45.8439H106.825L100.416 32.84H94.8833V45.8439H88.2988ZM100.952 27.7468C101.605 27.7478 102.254 27.6565 102.881 27.4758C103.488 27.3083 104.053 27.0132 104.536 26.6103C105.035 26.1724 105.426 25.6255 105.678 25.0121C105.988 24.2277 106.135 23.3886 106.11 22.5457C106.136 21.7973 105.978 21.054 105.65 20.3805C105.363 19.8265 104.943 19.3517 104.428 18.9981C103.918 18.6544 103.346 18.4148 102.743 18.2931C102.154 18.1703 101.554 18.1072 100.952 18.1049H94.8682V27.7468H100.952Z" fill="#102C33"/>
<path d="M138.371 40.6454V45.8465H118.223V12.9038H124.847V40.6454H138.371Z" fill="#102C33"/>
<path d="M162.319 40.6454V45.8465H142.171V12.9038H148.798V40.6454H162.319Z" fill="#102C33"/>
<path d="M88.3213 55.2898V50.5228H89.936C90.3524 50.4929 90.7667 50.6053 91.1105 50.8414C91.2513 50.9729 91.36 51.135 91.4281 51.3151C91.496 51.4953 91.5217 51.6887 91.5028 51.8801C91.525 52.2231 91.4113 52.5611 91.1859 52.821C91.022 52.9921 90.8167 53.1181 90.5899 53.1873L91.6185 55.2898H91.0149L90.0391 53.2826H88.862V55.2898H88.3213ZM89.9536 52.8135C90.2101 52.828 90.4641 52.7545 90.6729 52.6052C90.7664 52.5109 90.8376 52.3967 90.8811 52.2713C90.9246 52.1456 90.9395 52.0121 90.9244 51.8801C90.9349 51.7557 90.9181 51.6305 90.8746 51.5133C90.8311 51.3962 90.7621 51.2903 90.6729 51.2027C90.4644 51.0442 90.2048 50.9674 89.9435 50.9869H88.852V52.8135H89.9536Z" fill="#898E96"/>
<path d="M93.6129 55.3679C93.3702 55.374 93.1283 55.3366 92.8986 55.2575C92.7168 55.1931 92.5553 55.0812 92.4308 54.9339C92.3069 54.7728 92.2208 54.5859 92.1793 54.3869C92.1253 54.132 92.1001 53.8721 92.1039 53.6117C92.1039 53.0263 92.2271 52.5938 92.4736 52.3145C92.62 52.167 92.7968 52.0531 92.992 51.9806C93.1869 51.9083 93.3954 51.8792 93.6029 51.8955C93.8287 51.8875 94.0536 51.9286 94.2618 52.016C94.426 52.0897 94.5669 52.2069 94.6693 52.3547C94.7691 52.5067 94.8368 52.6773 94.8679 52.8565C94.9064 53.0692 94.9248 53.285 94.9233 53.5013V53.7522H92.6597C92.657 53.913 92.672 54.0738 92.705 54.2314C92.7367 54.3797 92.8021 54.5186 92.8961 54.6378C92.9814 54.7419 93.0948 54.8195 93.2231 54.8611C93.3765 54.907 93.536 54.9289 93.6959 54.9264C93.9024 54.9301 94.1081 54.8998 94.3046 54.836C94.4507 54.7886 94.5928 54.7299 94.7296 54.6604L94.8679 55.0342C94.7993 55.0782 94.7258 55.1143 94.6491 55.1421C94.55 55.1823 94.4484 55.2159 94.3448 55.2425C94.2316 55.2726 94.1109 55.2977 93.9877 55.3203C93.8642 55.3464 93.7389 55.3624 93.6129 55.3679ZM94.3674 53.3608C94.3969 53.074 94.3237 52.7862 94.1612 52.5479C94.092 52.4716 94.0068 52.4114 93.9115 52.372C93.8164 52.3323 93.7135 52.3145 93.6104 52.3195C93.4557 52.3143 93.3018 52.3409 93.1577 52.3973C93.0365 52.4495 92.9339 52.5368 92.8634 52.6482C92.7837 52.7734 92.7299 52.9134 92.705 53.0597C92.6899 53.1525 92.6773 53.2579 92.6673 53.3708L94.3674 53.3608Z" fill="#898E96"/>
<path d="M98.0618 55.1018C97.9207 55.1803 97.7703 55.241 97.6141 55.2824C97.4104 55.3397 97.1996 55.3683 96.9879 55.3677C96.4429 55.3677 96.053 55.2215 95.8184 54.9287C95.5608 54.5629 95.4366 54.1203 95.4663 53.6742C95.4301 53.1925 95.5792 52.715 95.8838 52.3394C96.1252 52.1259 96.4197 51.9809 96.7366 51.9202C97.0535 51.8592 97.381 51.8843 97.6845 51.9932C97.8475 52.0524 97.9936 52.1505 98.1096 52.2792L97.7851 52.6004C97.7001 52.5113 97.5983 52.4398 97.4859 52.3896C97.3631 52.3357 97.2301 52.3093 97.096 52.3118C96.9441 52.3016 96.792 52.3266 96.6514 52.3849C96.511 52.4433 96.3858 52.5334 96.2862 52.648C96.0757 52.9564 95.9771 53.3275 96.007 53.6993C96.005 53.8681 96.0236 54.0367 96.0623 54.2011C96.093 54.3423 96.1529 54.4758 96.2384 54.5925C96.3229 54.7016 96.4336 54.7879 96.5603 54.8434C96.7105 54.9074 96.8724 54.9382 97.0357 54.9337C97.2054 54.9372 97.3749 54.9159 97.5387 54.871C97.6768 54.8331 97.8113 54.7837 97.9411 54.7229L98.0618 55.1018Z" fill="#898E96"/>
<path d="M99.8253 55.3678C99.5874 55.375 99.3502 55.3341 99.1287 55.2473C98.9529 55.1731 98.8002 55.0536 98.686 54.9011C98.5668 54.738 98.4858 54.5503 98.4496 54.3516C98.3998 54.1108 98.3761 53.8651 98.3792 53.619C98.3792 53.0337 98.5082 52.6004 98.7665 52.3194C99.0248 52.0384 99.4287 51.8971 99.9787 51.8954C100.217 51.8881 100.454 51.929 100.675 52.0158C100.85 52.0916 101.003 52.2107 101.118 52.362C101.236 52.5269 101.318 52.715 101.357 52.914C101.41 53.1564 101.435 53.4037 101.432 53.6516C101.432 54.2355 101.302 54.6678 101.04 54.9488C100.878 55.0993 100.686 55.2145 100.477 55.2867C100.268 55.3587 100.046 55.3866 99.8253 55.3678ZM99.8253 54.9437C99.981 54.9621 100.139 54.9407 100.284 54.8813C100.429 54.8221 100.557 54.727 100.655 54.605C100.824 54.2984 100.901 53.9504 100.879 53.6014C100.88 53.4333 100.868 53.2658 100.841 53.0997C100.82 52.9566 100.773 52.8187 100.701 52.6932C100.635 52.5798 100.54 52.4855 100.426 52.4197C100.29 52.3475 100.136 52.3126 99.9813 52.3194C99.5756 52.3194 99.2989 52.4348 99.1513 52.6656C98.9835 52.9725 98.9051 53.3202 98.9249 53.6692C98.9232 53.8373 98.9367 54.0054 98.9652 54.171C98.9855 54.313 99.0326 54.4502 99.1035 54.5749C99.1691 54.6881 99.265 54.7809 99.3802 54.8434C99.5157 54.9146 99.6671 54.95 99.8203 54.9463L99.8253 54.9437Z" fill="#898E96"/>
<path d="M102.59 51.9731L102.645 52.4272C102.767 52.2802 102.916 52.1582 103.085 52.0684C103.286 51.957 103.512 51.8976 103.742 51.8953C103.89 51.8893 104.039 51.9186 104.174 51.9806L104.028 52.4448C103.908 52.3941 103.779 52.3702 103.648 52.3745C103.447 52.3763 103.251 52.4382 103.085 52.5527C102.949 52.651 102.824 52.7647 102.713 52.8914V55.2899H102.172V52.8838L102.097 51.9731H102.59Z" fill="#898E96"/>
<path d="M105.579 55.368C105.386 55.3835 105.192 55.3511 105.014 55.2736C104.836 55.1963 104.68 55.0762 104.561 54.9239C104.323 54.5548 104.21 54.1197 104.236 53.6819C104.234 53.4393 104.262 53.1975 104.319 52.9619C104.369 52.7559 104.463 52.5632 104.596 52.3973C104.726 52.2373 104.892 52.1108 105.081 52.0285C105.308 51.9352 105.551 51.8898 105.796 51.8956C105.949 51.8923 106.102 51.9109 106.251 51.9508C106.344 51.9804 106.435 52.0172 106.522 52.0611V50.3601L107.063 50.2798V54.4447L107.116 55.2927H106.638L106.578 55.0619C106.447 55.1492 106.307 55.2207 106.16 55.2751C105.973 55.3388 105.777 55.3702 105.579 55.368ZM105.851 52.3196C105.704 52.3095 105.556 52.3329 105.419 52.3881C105.282 52.4433 105.16 52.5288 105.061 52.6382C104.854 52.9471 104.759 53.3169 104.792 53.6869C104.792 53.8475 104.806 54.0081 104.835 54.1662C104.859 54.3084 104.91 54.4449 104.986 54.5676C105.057 54.6825 105.157 54.7773 105.275 54.8436C105.417 54.9158 105.576 54.9505 105.735 54.9439C105.91 54.9482 106.083 54.9076 106.238 54.826C106.336 54.7703 106.429 54.7073 106.517 54.6378V52.5228C106.321 52.3893 106.089 52.3186 105.851 52.3196Z" fill="#898E96"/>
<path d="M112.363 54.8258V55.29H109.629V50.5229H110.16V54.8258H112.363Z" fill="#898E96"/>
<path d="M115.554 55.3051C115.524 55.3149 115.493 55.3201 115.461 55.3201H115.353C115.229 55.3347 115.103 55.3048 114.999 55.2361C114.894 55.1671 114.818 55.0637 114.782 54.9438C114.645 55.066 114.489 55.1651 114.319 55.2373C114.109 55.3287 113.882 55.3731 113.653 55.3678C113.482 55.3741 113.311 55.3477 113.15 55.29C113.027 55.2449 112.916 55.1709 112.828 55.0743C112.748 54.9817 112.69 54.8718 112.66 54.7531C112.624 54.6214 112.607 54.4854 112.609 54.3492C112.602 54.176 112.638 54.0039 112.712 53.8474C112.78 53.7222 112.88 53.6176 113.002 53.5438C113.138 53.4633 113.288 53.4096 113.444 53.3857C113.628 53.3566 113.814 53.3423 114 53.3431C114.133 53.3431 114.252 53.3431 114.35 53.3431L114.694 53.3657V53.1925C114.696 53.0538 114.684 52.915 114.659 52.7786C114.642 52.6782 114.6 52.5841 114.536 52.5051C114.468 52.4321 114.381 52.3804 114.284 52.357C114.156 52.3217 114.024 52.3056 113.892 52.3094C113.704 52.3101 113.517 52.3372 113.336 52.3897C113.179 52.4341 113.026 52.4913 112.878 52.5603L112.748 52.1789C112.934 52.0939 113.128 52.0251 113.326 51.9732C113.559 51.914 113.798 51.8844 114.038 51.8854C114.23 51.8806 114.421 51.9042 114.606 51.9556C114.748 51.9975 114.875 52.0773 114.973 52.1864C115.073 52.3076 115.14 52.4516 115.17 52.6054C115.211 52.8177 115.231 53.034 115.227 53.2502V54.4495C115.217 54.5687 115.242 54.6886 115.3 54.7933C115.33 54.8259 115.367 54.8515 115.407 54.8675C115.449 54.8836 115.493 54.8899 115.537 54.8861L115.554 55.3051ZM113.962 53.752C113.749 53.731 113.535 53.7811 113.354 53.895C113.294 53.9485 113.247 54.015 113.217 54.0895C113.188 54.164 113.176 54.2443 113.183 54.3241C113.166 54.4101 113.171 54.499 113.198 54.5825C113.224 54.6661 113.27 54.7418 113.333 54.8033C113.396 54.8645 113.473 54.9094 113.557 54.934C113.641 54.9586 113.73 54.9619 113.816 54.9438C113.981 54.9425 114.143 54.9067 114.292 54.8384C114.44 54.7734 114.579 54.6891 114.704 54.5875V53.7922L114.345 53.7646C114.229 53.7571 114.103 53.752 113.962 53.752Z" fill="#898E96"/>
<path d="M116.575 51.973L116.598 52.2716C116.734 52.175 116.882 52.0957 117.038 52.0357C117.267 51.9456 117.511 51.8982 117.757 51.8952C117.938 51.8897 118.118 51.9178 118.288 51.978C118.42 52.0287 118.534 52.1157 118.618 52.2289C118.704 52.3461 118.76 52.4821 118.784 52.6253C118.815 52.805 118.831 52.9874 118.829 53.1698V55.3024H118.288V53.2952C118.289 53.1678 118.281 53.0403 118.265 52.9138C118.254 52.811 118.222 52.7114 118.172 52.6203C118.127 52.5365 118.055 52.4695 117.969 52.4296C117.858 52.3804 117.737 52.3574 117.617 52.3619C117.495 52.3619 117.374 52.3789 117.257 52.4121C117.045 52.4783 116.846 52.5784 116.666 52.7081V55.3099H116.125V52.8787L116.072 51.9931L116.575 51.973Z" fill="#898E96"/>
<path d="M122.345 51.9732V55.4482C122.352 55.682 122.316 55.9151 122.237 56.1356C122.172 56.3085 122.068 56.4638 121.933 56.5897C121.796 56.7089 121.633 56.795 121.457 56.8406C121.258 56.8956 121.053 56.9224 120.846 56.9209C120.653 56.9224 120.461 56.9074 120.27 56.8758C120.116 56.8529 119.965 56.8125 119.82 56.7553L119.958 56.3388C120.067 56.3714 120.195 56.4016 120.341 56.4342C120.506 56.4673 120.675 56.4831 120.844 56.4818C120.973 56.4831 121.101 56.468 121.226 56.4367C121.339 56.4101 121.445 56.3566 121.533 56.2811C121.624 56.1983 121.693 56.095 121.737 55.98C121.789 55.8285 121.814 55.6687 121.81 55.5084V55.1094C121.677 55.187 121.536 55.2499 121.39 55.2976C121.231 55.3463 121.065 55.3701 120.899 55.3679C120.702 55.3844 120.504 55.3538 120.322 55.2783C120.139 55.2028 119.978 55.0846 119.85 54.9338C119.608 54.5622 119.493 54.1219 119.523 53.6793C119.521 53.4367 119.55 53.1946 119.609 52.9593C119.659 52.753 119.75 52.5593 119.878 52.3897C120.006 52.2284 120.172 52.1007 120.361 52.0184C120.592 51.9241 120.84 51.8787 121.09 51.8854C121.241 51.8832 121.391 51.9025 121.535 51.9431C121.658 51.9815 121.778 52.0277 121.895 52.0811L121.933 51.9632L122.345 51.9732ZM121.805 52.5001C121.707 52.4504 121.607 52.4083 121.503 52.3747C121.389 52.3365 121.269 52.3177 121.148 52.3195C120.996 52.3069 120.844 52.3295 120.702 52.3857C120.561 52.4419 120.435 52.53 120.333 52.6431C120.137 52.9552 120.049 53.3226 120.082 53.6894C120.082 53.8452 120.096 54.0005 120.124 54.1535C120.149 54.2963 120.2 54.4333 120.275 54.5575C120.347 54.6756 120.448 54.7727 120.57 54.8385C120.717 54.9145 120.882 54.9509 121.047 54.9439C121.183 54.9456 121.318 54.9218 121.445 54.8736C121.574 54.8217 121.697 54.7562 121.812 54.6779L121.805 52.5001Z" fill="#898E96"/>
<path d="M125.899 54.4043L125.954 55.29H125.451L125.421 54.999C125.287 55.0931 125.142 55.1698 124.988 55.2273C124.762 55.3174 124.521 55.3648 124.277 55.3678C124.097 55.3738 123.918 55.3457 123.749 55.285C123.62 55.2378 123.507 55.1553 123.424 55.0466C123.338 54.9297 123.282 54.7937 123.261 54.6502C123.231 54.4703 123.217 54.2882 123.218 54.1058V51.9731H123.741V53.9803C123.74 54.1085 123.748 54.2367 123.764 54.3642C123.777 54.4668 123.808 54.5662 123.857 54.6577C123.902 54.7403 123.972 54.8063 124.058 54.8459C124.166 54.8953 124.284 54.9184 124.402 54.9137C124.523 54.9134 124.643 54.8966 124.76 54.8635C124.872 54.8299 124.982 54.7862 125.087 54.733C125.174 54.6873 125.258 54.6352 125.338 54.5775V51.9731H125.879L125.899 54.4043Z" fill="#898E96"/>
<path d="M129.525 55.305C129.495 55.3148 129.464 55.3201 129.432 55.3201H129.324C129.203 55.3304 129.082 55.299 128.981 55.231C128.88 55.163 128.806 55.0624 128.771 54.9462C128.633 55.0689 128.476 55.168 128.306 55.2398C128.097 55.3314 127.87 55.3758 127.642 55.3702C127.471 55.3765 127.3 55.3502 127.139 55.2925C127.016 55.2473 126.905 55.1733 126.817 55.0767C126.736 54.9841 126.679 54.8742 126.648 54.7556C126.613 54.6238 126.596 54.4878 126.598 54.3516C126.59 54.1785 126.625 54.0059 126.701 53.8498C126.769 53.7246 126.868 53.62 126.99 53.5462C127.125 53.4657 127.275 53.412 127.43 53.3882C127.615 53.3591 127.802 53.3448 127.989 53.3455C128.122 53.3455 128.24 53.3455 128.338 53.3455L128.683 53.3681V53.195C128.686 53.0562 128.674 52.9172 128.648 52.781C128.631 52.6806 128.588 52.5866 128.524 52.5075C128.457 52.4345 128.369 52.3828 128.273 52.3595C128.145 52.3241 128.013 52.3081 127.88 52.3118C127.692 52.3126 127.504 52.3397 127.322 52.3921C127.166 52.437 127.014 52.494 126.867 52.5627L126.736 52.1814C126.923 52.0963 127.116 52.0276 127.315 51.9756C127.547 51.9162 127.786 51.8866 128.026 51.8878C128.218 51.883 128.41 51.9066 128.595 51.9581C128.736 52 128.863 52.0797 128.962 52.1889C129.061 52.3101 129.129 52.4541 129.158 52.6079C129.2 52.8201 129.219 53.0364 129.216 53.2527V54.452C129.205 54.5711 129.231 54.6911 129.289 54.7957C129.318 54.8283 129.355 54.8539 129.396 54.87C129.437 54.886 129.481 54.8923 129.525 54.8885V55.305ZM127.933 53.752C127.719 53.7311 127.504 53.7816 127.322 53.895C127.263 53.9489 127.217 54.0157 127.188 54.0899C127.159 54.1644 127.147 54.2445 127.154 54.324C127.137 54.4101 127.142 54.4989 127.169 54.5824C127.195 54.666 127.241 54.7418 127.304 54.8032C127.367 54.8644 127.444 54.9094 127.528 54.9339C127.612 54.9585 127.701 54.9618 127.787 54.9437C127.952 54.9425 128.114 54.9066 128.263 54.8384C128.411 54.7734 128.55 54.6891 128.675 54.5875V53.7921L128.316 53.7645C128.205 53.757 128.077 53.752 127.938 53.752H127.933Z" fill="#898E96"/>
<path d="M132.76 51.9732V55.4482C132.767 55.682 132.731 55.9151 132.652 56.1356C132.587 56.3085 132.483 56.4638 132.348 56.5897C132.211 56.7089 132.048 56.795 131.872 56.8406C131.674 56.8956 131.468 56.9224 131.261 56.9209C131.068 56.9224 130.876 56.9074 130.685 56.8758C130.531 56.8529 130.38 56.8125 130.235 56.7553L130.373 56.3388C130.482 56.3714 130.61 56.4016 130.756 56.4342C130.921 56.4673 131.09 56.4831 131.259 56.4818C131.388 56.4831 131.516 56.468 131.641 56.4367C131.754 56.4106 131.858 56.3571 131.945 56.2811C132.038 56.1991 132.109 56.0957 132.152 55.98C132.204 55.8285 132.229 55.6687 132.225 55.5084V55.1094C132.092 55.187 131.951 55.2499 131.805 55.2976C131.646 55.3463 131.48 55.3701 131.314 55.3679C131.117 55.3849 130.919 55.3543 130.736 55.2788C130.554 55.2033 130.392 55.0849 130.265 54.9338C130.023 54.5622 129.908 54.1219 129.938 53.6793C129.936 53.4367 129.965 53.1946 130.024 52.9593C130.074 52.753 130.165 52.5593 130.293 52.3897C130.421 52.2284 130.587 52.1007 130.776 52.0184C131.007 51.9241 131.256 51.8787 131.505 51.8854C131.656 51.8832 131.806 51.9025 131.95 51.9431C132.073 51.9815 132.193 52.0277 132.31 52.0811L132.348 51.9632L132.76 51.9732ZM132.22 52.5001C132.122 52.4504 132.022 52.4083 131.918 52.3747C131.804 52.3365 131.684 52.3177 131.563 52.3195C131.411 52.3064 131.259 52.329 131.117 52.3852C130.976 52.4414 130.849 52.5297 130.748 52.6431C130.552 52.9552 130.464 53.3226 130.497 53.6894C130.497 53.8452 130.511 54.0005 130.539 54.1535C130.564 54.2963 130.615 54.4333 130.69 54.5575C130.761 54.6751 130.862 54.772 130.982 54.8385C131.131 54.9142 131.296 54.9504 131.463 54.9439C131.598 54.9456 131.733 54.9218 131.86 54.8736C131.989 54.8217 132.112 54.7562 132.227 54.6779L132.22 52.5001Z" fill="#898E96"/>
<path d="M135.001 55.3678C134.759 55.3738 134.517 55.3364 134.287 55.2574C134.105 55.1929 133.944 55.081 133.819 54.9338C133.694 54.7732 133.608 54.586 133.568 54.3868C133.512 54.1324 133.485 53.8722 133.49 53.6115C133.49 53.0262 133.613 52.5936 133.859 52.3144C134.006 52.1669 134.183 52.0532 134.378 51.9807C134.573 51.9085 134.781 51.8793 134.989 51.8954C135.215 51.8874 135.439 51.9285 135.648 52.0158C135.812 52.0896 135.953 52.2068 136.055 52.3545C136.156 52.5063 136.224 52.6772 136.256 52.8563C136.293 53.0693 136.31 53.2851 136.309 53.5011V53.752H134.046C134.043 53.9129 134.058 54.0737 134.091 54.2312C134.123 54.3795 134.188 54.5185 134.282 54.6377C134.367 54.7418 134.481 54.8193 134.609 54.861C134.762 54.9069 134.922 54.9287 135.082 54.9262C135.288 54.93 135.494 54.8996 135.69 54.8359C135.837 54.7885 135.979 54.7298 136.115 54.6603L136.256 55.0341C136.186 55.0775 136.112 55.1136 136.035 55.142C135.936 55.1821 135.834 55.2158 135.731 55.2424C135.617 55.2725 135.497 55.2976 135.373 55.3201C135.251 55.3462 135.127 55.362 135.001 55.3678ZM135.756 53.3606C135.785 53.0739 135.712 52.7861 135.55 52.5477C135.48 52.4715 135.395 52.4112 135.3 52.3719C135.205 52.3322 135.102 52.3144 134.999 52.3194C134.844 52.3142 134.69 52.3407 134.546 52.3972C134.425 52.4494 134.322 52.5367 134.252 52.6481C134.172 52.7733 134.118 52.9133 134.093 53.0596C134.078 53.1524 134.066 53.2578 134.056 53.3707L135.756 53.3606Z" fill="#898E96"/>
<path d="M141.412 54.8258V55.29H138.678V50.5229H139.218V54.8258H141.412Z" fill="#898E96"/>
<path d="M143.212 55.3679C142.97 55.3739 142.728 55.3366 142.498 55.2575C142.316 55.193 142.155 55.0811 142.03 54.9339C141.905 54.7733 141.819 54.5861 141.779 54.3869C141.723 54.1325 141.696 53.8723 141.701 53.6116C141.701 53.0263 141.825 52.5938 142.073 52.3145C142.219 52.167 142.395 52.0531 142.59 51.9808C142.784 51.9083 142.993 51.8792 143.2 51.8955C143.426 51.8875 143.652 51.9286 143.861 52.016C144.024 52.0907 144.164 52.2079 144.266 52.3547C144.368 52.5059 144.436 52.6768 144.467 52.8564C144.503 53.0695 144.521 53.2852 144.52 53.5013V53.7522H142.257C142.255 53.9132 142.271 54.0738 142.304 54.2314C142.334 54.3799 142.399 54.5191 142.493 54.6378C142.579 54.7422 142.693 54.8197 142.822 54.8611C142.975 54.907 143.134 54.9291 143.293 54.9263C143.5 54.9301 143.706 54.8995 143.904 54.836C144.05 54.7881 144.192 54.7294 144.329 54.6604L144.467 55.0342C144.397 55.0776 144.323 55.1138 144.246 55.1421C144.147 55.1828 144.045 55.2161 143.942 55.2425C143.828 55.2726 143.71 55.2977 143.587 55.3203C143.464 55.3463 143.338 55.3621 143.212 55.3679ZM143.967 53.3607C143.995 53.0745 143.924 52.787 143.763 52.5478C143.693 52.4718 143.607 52.4119 143.512 52.3722C143.416 52.3328 143.313 52.3148 143.21 52.3195C143.055 52.3145 142.901 52.3411 142.757 52.3973C142.636 52.4487 142.534 52.5366 142.465 52.6482C142.384 52.7724 142.329 52.9129 142.307 53.0597C142.292 53.1525 142.277 53.2579 142.267 53.3708L143.967 53.3607Z" fill="#898E96"/>
<path d="M147.973 55.3051C147.943 55.3149 147.912 55.32 147.88 55.3202H147.772C147.64 55.3297 147.508 55.2954 147.397 55.2224C147.307 55.1496 147.238 55.0532 147.199 54.9439C147.062 55.0665 146.905 55.1656 146.736 55.2374C146.527 55.3285 146.3 55.3729 146.072 55.3679C145.901 55.3739 145.73 55.3475 145.569 55.2901C145.447 55.2449 145.337 55.1709 145.25 55.0743C145.169 54.982 145.11 54.8718 145.079 54.7532C145.044 54.6212 145.028 54.4855 145.028 54.3492C145.021 54.1759 145.057 54.0032 145.134 53.8474C145.201 53.7217 145.301 53.6169 145.423 53.5439C145.558 53.4628 145.708 53.4091 145.863 53.3858C146.047 53.3567 146.233 53.3424 146.419 53.3431C146.552 53.3431 146.671 53.3431 146.771 53.3431L147.116 53.3657V53.1926C147.118 53.0538 147.106 52.9151 147.081 52.7786C147.063 52.6788 147.02 52.5847 146.957 52.5051C146.89 52.4321 146.802 52.3804 146.706 52.3571C146.577 52.3215 146.444 52.3054 146.311 52.3094C146.123 52.3102 145.936 52.3373 145.755 52.3897C145.599 52.4341 145.447 52.4911 145.3 52.5603L145.169 52.179C145.355 52.0937 145.549 52.0247 145.748 51.9732C145.98 51.9138 146.219 51.8842 146.459 51.8854C146.65 51.8804 146.841 51.904 147.025 51.9557C147.167 51.9968 147.294 52.0769 147.392 52.1865C147.492 52.3082 147.56 52.4519 147.591 52.6055C147.633 52.8178 147.652 53.034 147.649 53.2503V54.4496C147.637 54.569 147.662 54.6892 147.722 54.7933C147.751 54.8264 147.788 54.852 147.829 54.8681C147.87 54.8841 147.914 54.8904 147.958 54.8861L147.973 55.3051ZM146.376 53.7521C146.162 53.731 145.948 53.7812 145.765 53.8951C145.706 53.9488 145.66 54.0155 145.63 54.0898C145.6 54.1643 145.588 54.2444 145.594 54.3241C145.578 54.4102 145.583 54.499 145.609 54.5826C145.635 54.6661 145.682 54.7419 145.745 54.8034C145.807 54.8646 145.884 54.9095 145.969 54.9341C146.053 54.9587 146.142 54.9619 146.228 54.9439C146.392 54.9431 146.554 54.9072 146.703 54.8385C146.852 54.7735 146.992 54.6892 147.118 54.5876V53.7922L146.759 53.7646C146.648 53.7571 146.52 53.7521 146.376 53.7521Z" fill="#898E96"/>
<path d="M148.977 51.973L149.03 52.4271C149.152 52.2808 149.302 52.1591 149.47 52.0683C149.672 51.9567 149.898 51.8972 150.129 51.8952C150.278 51.8897 150.426 51.919 150.561 51.9805L150.413 52.4446C150.294 52.3942 150.165 52.3704 150.036 52.3744C149.834 52.3767 149.637 52.4386 149.47 52.5525C149.334 52.6504 149.209 52.764 149.1 52.8912V55.2898H148.559V52.8837L148.481 51.973H148.977Z" fill="#898E96"/>
<path d="M151.419 51.973L151.442 52.2716C151.578 52.175 151.726 52.0957 151.882 52.0357C152.111 51.9456 152.355 51.8982 152.601 51.8952C152.782 51.8897 152.963 51.9178 153.134 51.978C153.265 52.0297 153.378 52.1165 153.461 52.2289C153.547 52.3461 153.604 52.4821 153.627 52.6253C153.66 52.805 153.676 52.9871 153.675 53.1698V55.3024H153.134V53.2952C153.136 53.1678 153.127 53.04 153.109 52.9138C153.097 52.811 153.066 52.7114 153.016 52.6203C152.971 52.5365 152.899 52.4695 152.812 52.4296C152.702 52.3802 152.581 52.3571 152.46 52.3619C152.339 52.3619 152.218 52.3789 152.101 52.4121C151.889 52.4783 151.689 52.5784 151.51 52.7081V55.3099H150.969V52.8787L150.916 51.9931L151.419 51.973Z" fill="#898E96"/>
<path d="M154.522 50.6108H155.073V51.1829H154.522V50.6108ZM154.522 51.9732H155.063V55.29H154.522V51.9732Z" fill="#898E96"/>
<path d="M156.436 51.973L156.459 52.2716C156.596 52.1753 156.745 52.0962 156.902 52.0358C157.13 51.9459 157.373 51.8985 157.619 51.8953C157.8 51.8895 157.981 51.9176 158.152 51.9781C158.283 52.0292 158.397 52.1163 158.481 52.229C158.565 52.3474 158.622 52.4826 158.647 52.6254C158.679 52.805 158.694 52.9874 158.692 53.1698V55.3024H158.152V53.2953C158.152 53.1678 158.145 53.0404 158.129 52.9139C158.116 52.8113 158.085 52.7117 158.036 52.6204C157.99 52.5371 157.919 52.4703 157.832 52.4297C157.722 52.3805 157.601 52.3574 157.48 52.3619C157.358 52.3619 157.237 52.379 157.121 52.4121C157.004 52.447 156.891 52.4932 156.784 52.5501C156.696 52.5963 156.612 52.6492 156.532 52.7082V55.31H155.991V52.8788L155.938 51.9931L156.436 51.973Z" fill="#898E96"/>
<path d="M162.197 51.9729V55.4479C162.203 55.6817 162.167 55.9148 162.089 56.1353C162.027 56.3079 161.923 56.463 161.787 56.5864C161.651 56.7099 161.487 56.7979 161.309 56.8428C161.11 56.8978 160.904 56.9246 160.698 56.9231C160.505 56.9246 160.312 56.9096 160.122 56.878C159.967 56.8551 159.815 56.8147 159.669 56.7575L159.81 56.341C159.918 56.3737 160.044 56.4038 160.192 56.4364C160.358 56.4695 160.526 56.4853 160.695 56.4841C160.824 56.4853 160.952 56.4703 161.077 56.4389C161.19 56.4123 161.295 56.3589 161.382 56.2833C161.474 56.2013 161.545 56.0979 161.588 55.9823C161.64 55.8307 161.665 55.6709 161.661 55.5106V55.1117C161.527 55.1894 161.386 55.2527 161.238 55.2998C161.076 55.3503 160.906 55.3741 160.735 55.3701C160.543 55.3851 160.349 55.3545 160.17 55.2808C159.991 55.2072 159.833 55.0923 159.707 54.9461C159.464 54.5745 159.349 54.1342 159.38 53.6916C159.378 53.449 159.405 53.2071 159.463 52.9715C159.515 52.7655 159.607 52.5718 159.734 52.402C159.862 52.2407 160.028 52.1129 160.217 52.0307C160.448 51.9361 160.697 51.8907 160.947 51.8977C161.097 51.8954 161.247 51.9147 161.392 51.9554C161.515 51.9938 161.635 52.0399 161.752 52.0934L161.789 51.9755L162.197 51.9729ZM161.656 52.4998C161.559 52.4502 161.458 52.408 161.354 52.3744C161.24 52.3362 161.12 52.3174 161 52.3192C160.848 52.3059 160.695 52.3282 160.554 52.3844C160.412 52.4406 160.286 52.5292 160.185 52.6428C159.988 52.9547 159.9 53.3223 159.933 53.6891C159.932 53.8449 159.946 54.0002 159.976 54.1532C160.001 54.296 160.052 54.433 160.127 54.5572C160.198 54.6748 160.298 54.7717 160.419 54.8382C160.567 54.9142 160.732 54.9506 160.899 54.9436C161.035 54.9453 161.17 54.9215 161.296 54.8733C161.425 54.8214 161.549 54.7559 161.663 54.6776L161.656 52.4998Z" fill="#898E96"/>
</svg>
