<svg width="92" height="22" viewBox="0 0 92 22" fill="none" xmlns="http://www.w3.org/2000/svg">
<g clip-path="url(#clip0_42_1956)">
<path d="M32.4364 8.16692V9.35894H32.4734C32.9088 8.72074 33.6316 7.96913 35.2336 7.96913C36.48 7.96913 37.4361 8.59415 37.8458 9.53828H37.8828C38.2328 9.06094 38.634 8.69964 39.0836 8.44383C39.6158 8.14055 40.2076 7.96649 40.9532 7.96649C42.6406 7.96649 44.1345 9.04775 44.1345 11.7746V16.9462H41.5621V12.1359C41.5621 10.754 41.0556 9.95496 40.0028 9.95496C39.2316 9.95496 38.671 10.4349 38.4576 11.0257C38.3836 11.2287 38.3495 11.5056 38.3495 11.7377V16.9489H35.7771V11.9408C35.7771 10.7672 35.2905 9.95232 34.2519 9.95232C33.421 9.95232 32.9003 10.5589 32.6868 11.0784C32.5958 11.2999 32.5673 11.5558 32.5673 11.7957V16.9462H29.9921V8.16692H32.4364ZM57.4118 8.16692V9.8231H57.483C57.9553 8.55723 59.0765 7.96913 60.061 7.96913C60.3086 7.96913 60.4452 7.98759 60.6444 8.02451V10.3242C60.4082 10.2925 60.1891 10.2609 59.8818 10.2609C58.7663 10.2609 57.9895 10.8622 57.7931 11.8037C57.7504 11.9988 57.7362 12.2098 57.7362 12.4524V16.9489H55.0956V8.16692H57.4118ZM64.2298 5.25806V8.02187H66.4607V10.2582H64.2298V13.5574C64.2298 14.6255 64.5229 15.1424 65.3936 15.1424C65.8034 15.1424 66.105 15.0949 66.3668 15.0343L66.4009 16.8882C66.0509 17.0095 65.3054 17.1414 64.5485 17.1414C63.6578 17.1414 62.9151 16.8539 62.4627 16.4083C61.9448 15.8993 61.7058 15.0659 61.7058 13.8792V5.25806H64.2298ZM28.1994 16.9462H25.6384V5.25806H28.1994V16.9462ZM21.3701 13.8106C21.3701 13.9715 21.3559 14.1402 21.3075 14.2853C21.1083 14.8945 20.4282 15.4087 19.5802 15.4087C18.8717 15.4087 18.3083 15.0369 18.3083 14.2484C18.3083 13.0432 19.7424 12.7082 21.3729 12.7161V13.8106H21.3701ZM23.9282 11.7087C23.9282 9.71761 23.012 7.96913 19.9132 7.96913C18.3225 7.96913 17.0591 8.38317 16.3705 8.75238L16.8741 10.3505C17.503 9.98133 18.5075 9.67805 19.4579 9.67805C21.0315 9.67541 21.2876 10.5035 21.2876 11.0336V11.1602C17.8587 11.1549 15.6932 12.2546 15.6932 14.4963C15.6932 15.865 16.7944 17.1467 18.7123 17.1467C19.8932 17.1467 20.8778 16.7115 21.4697 16.0127H21.5266C21.5266 16.0127 21.9193 17.5291 24.0762 16.9489C23.9624 16.3159 23.9254 15.6435 23.9254 14.8338V11.7087H23.9282ZM2.82848 5.25806C3.09311 6.49492 3.84434 10.0868 3.84434 10.0868C4.16019 11.5637 4.45044 13.1117 4.66955 14.3354H4.70939C4.9228 13.0352 5.25858 11.8037 5.61712 10.2793L6.88339 5.25806H9.68625L10.87 10.4086C11.1802 11.8406 11.4277 12.9456 11.6241 14.2774H11.6611C11.8745 12.9324 12.1533 11.7826 12.4578 10.311L13.596 5.25806H16.2851L12.9529 16.9462C10.8302 17.3761 10.0163 16.5849 9.72609 15.3296C9.43585 14.0717 8.86674 11.6797 8.86674 11.6797C8.57364 10.369 8.346 9.44597 8.18665 8.10099H8.14681C7.91917 9.43279 7.68014 10.3664 7.32729 11.6771L5.93013 16.9489C3.76182 17.3497 3.01059 16.7564 2.59514 15.145C2.2366 13.7658 0 5.26069 0 5.26069H2.82848V5.25806ZM50.8272 13.8106C50.8272 13.9715 50.813 14.1402 50.7646 14.2853C50.5654 14.8945 49.8853 15.4087 49.0374 15.4087C48.3288 15.4087 47.7654 15.0369 47.7654 14.2484C47.7654 13.0432 49.1996 12.7082 50.8301 12.7161V13.8106H50.8272ZM53.3854 11.7087C53.3854 9.71761 52.4691 7.96913 49.3703 7.96913C47.7796 7.96913 46.5162 8.38317 45.8276 8.75238L46.3313 10.3505C46.9601 9.98133 47.9646 9.67805 48.915 9.67805C50.4858 9.67541 50.7447 10.5035 50.7447 11.0336V11.1602C47.3187 11.1549 45.1532 12.2546 45.1532 14.4963C45.1532 15.865 46.2573 17.1467 48.1723 17.1467C49.3504 17.1467 50.3378 16.7115 50.9268 16.0127H50.9866C50.9866 16.0127 51.3793 17.5291 53.5362 16.9489C53.4224 16.3159 53.3854 15.6435 53.3854 14.8338V11.7087Z" fill="#0676C3"/>
<path d="M76.842 12.9208C77.0944 13.3476 77.0774 13.824 76.8079 14.0416L72.1505 17.2112C71.6655 17.4839 70.9394 17.1534 70.5281 16.4622C70.114 15.7682 70.1877 14.9944 70.6728 14.7218L75.8294 12.3921C76.1527 12.2709 76.5895 12.4939 76.842 12.9208ZM82.9714 12.9208C83.2267 12.4939 83.6607 12.2736 83.984 12.3893L89.1434 14.719C89.6285 14.9917 89.6994 15.7655 89.2881 16.4595C88.874 17.1507 88.145 17.4784 87.6628 17.2085L83.0055 14.0388C82.7388 13.824 82.719 13.3449 82.9714 12.9208ZM79.9053 14.6392C80.413 14.6392 80.8299 14.8925 80.8867 15.2257L81.3887 20.7279C81.3887 21.2731 80.7335 21.7193 79.9081 21.7193C79.0856 21.7193 78.4275 21.2731 78.4275 20.7279L78.9267 15.2257C78.9834 14.8925 79.4004 14.6392 79.9053 14.6392ZM83.0055 8.36596L87.6628 5.19356C88.145 4.92093 88.874 5.24863 89.2881 5.9426C89.6994 6.63656 89.6285 7.41039 89.1434 7.68301L83.984 10.0155C83.6607 10.1312 83.2239 9.91086 82.9714 9.48402C82.719 9.05717 82.7388 8.58076 83.0055 8.36596ZM75.8294 10.0155L70.6728 7.68301C70.1906 7.41039 70.1168 6.63656 70.5281 5.9426C70.9394 5.24863 71.6683 4.92093 72.1505 5.19356L76.8079 8.36596C77.0774 8.57801 77.0944 9.05717 76.842 9.48402C76.5895 9.91086 76.1527 10.1312 75.8294 10.0155ZM78.9267 7.17906L78.4275 1.67692C78.4275 1.13167 79.0827 0.685547 79.9081 0.685547C80.7335 0.685547 81.3887 1.13167 81.3887 1.67692L80.8867 7.17906C80.8299 7.50952 80.413 7.76563 79.9053 7.76563C79.4004 7.76563 78.9834 7.50952 78.9267 7.17906ZM90.5475 17.1892V17.0515H90.6751C90.7177 17.0515 90.746 17.0791 90.746 17.1204C90.746 17.1589 90.7177 17.1892 90.6751 17.1892H90.5475ZM90.4425 17.4398C90.4425 17.4536 90.4539 17.4674 90.4709 17.4674H90.5248C90.539 17.4674 90.5531 17.4536 90.5531 17.4398V17.2828H90.6411L90.712 17.4481C90.7176 17.4591 90.7262 17.4674 90.7375 17.4674H90.8027C90.8226 17.4674 90.8368 17.4481 90.8283 17.4288C90.8027 17.3792 90.7772 17.3269 90.7517 17.2746C90.7942 17.2608 90.8595 17.2195 90.8595 17.1204C90.8595 17.0157 90.7715 16.9551 90.6836 16.9551H90.4709C90.4567 16.9551 90.4425 16.9689 90.4425 16.9827V17.4398ZM90.2128 17.2112C90.2128 16.9882 90.4 16.8064 90.6297 16.8064C90.8595 16.8064 91.0467 16.9854 91.0467 17.2112C91.0467 17.4343 90.8623 17.6161 90.6297 17.6161C90.3971 17.6161 90.2128 17.4343 90.2128 17.2112ZM90.1135 17.2112C90.1135 17.4866 90.3432 17.7124 90.6297 17.7124C90.9134 17.7124 91.146 17.4866 91.146 17.2112C91.146 16.9359 90.9134 16.71 90.6297 16.71C90.3432 16.71 90.1135 16.9359 90.1135 17.2112Z" fill="#F7AE2E"/>
</g>
<defs>
<clipPath id="clip0_42_1956">
<rect width="91.1461" height="21.0337" fill="white" transform="translate(0 0.685547)"/>
</clipPath>
</defs>
</svg>
